<?xml version="1.0" encoding="utf-8"?>
<!-- Generator: Adobe Illustrator 26.3.1, SVG Export Plug-In . SVG Version: 6.00 Build 0)  -->
<svg version="1.1" id="Layer_1" xmlns="http://www.w3.org/2000/svg" xmlns:xlink="http://www.w3.org/1999/xlink" x="0px" y="0px"
	 viewBox="0 0 405 405" style="enable-background:new 0 0 405 405;" xml:space="preserve">
<style type="text/css">
	.st0{fill:url(#SVGID_1_);}
	.st1{fill:url(#SVGID_00000014596482185437199190000006566762696155817359_);}
	.st2{fill:#FFFFFF;}
	.st3{fill:none;stroke:#FFFFFF;stroke-miterlimit:10;}
	.st4{fill-rule:evenodd;clip-rule:evenodd;fill:#50AF95;}
	.st5{fill-rule:evenodd;clip-rule:evenodd;fill:#FFFFFF;}
	.st6{fill:#8C8C8C;}
	.st7{fill:url(#SVGID_00000010310257587619459230000018379118788037948600_);}
	.st8{fill:url(#SVGID_00000054947487880605816920000012164765800903614340_);}
	.st9{fill:url(#SVGID_00000037683465003300909680000008287267806796340647_);}
	.st10{fill:url(#SVGID_00000042001551973346986250000007048529041472523150_);}
	.st11{fill:#2775CA;}
	.st12{fill:url(#SVGID_00000104686258528877720520000000727931442122885308_);}
	.st13{fill:url(#SVGID_00000064344425826788000260000009196807090252687265_);}
	.st14{fill-rule:evenodd;clip-rule:evenodd;fill:#627EEA;}
	.st15{fill:#FFFFFF;fill-opacity:0.602;}
	.st16{fill:#FFFFFF;fill-opacity:0.2;}
	.st17{fill:url(#SVGID_00000011024395117978344070000013817227326991442868_);}
	.st18{fill:url(#SVGID_00000054973561096335754770000011958329527388168120_);}
	.st19{fill:#8247E5;}
	.st20{fill:url(#SVGID_00000147210818618762919170000017510842420094243761_);}
	.st21{fill:url(#SVGID_00000116201244018030386620000014266293549974554523_);}
	.st22{fill:url(#SVGID_00000136409399859815426560000015341039970781731743_);}
	.st23{fill:url(#SVGID_00000034051380153274292700000005016503450817921208_);}
	.st24{fill:url(#SVGID_00000042737418821106350120000011281176208994314683_);}
	.st25{fill:url(#SVGID_00000090285071885113597980000013130877607868214206_);}
	.st26{fill:url(#SVGID_00000016040918646504356570000017027670547231614340_);}
	.st27{fill:url(#SVGID_00000000197481748310441560000008146413052207262609_);}
	.st28{fill:#E84142;}
	.st29{fill:url(#SVGID_00000125583560744702457060000015665015042016456598_);}
	.st30{fill:url(#SVGID_00000029014646551259619670000004816607524199628222_);}
	.st31{fill:url(#SVGID_00000135685452800807759560000005915808865865708708_);}
	.st32{fill:url(#SVGID_00000093137122773655086320000015521976189798839740_);}
	.st33{fill:url(#SVGID_00000114792802327518027040000003132350222850662822_);}
	.st34{fill:#D85111;}
	.st35{fill:url(#SVGID_00000168796838630502000520000013048063499845710508_);}
	.st36{fill:url(#SVGID_00000122686542052893984460000017461009455508788120_);}
	.st37{fill:url(#SVGID_00000130630952321810428490000006228385943938388404_);}
	.st38{fill:url(#SVGID_00000082370391295083998400000016802399044133258674_);}
	.st39{fill:url(#SVGID_00000071520819996358873690000011406547087614000000_);}
	.st40{fill:url(#SVGID_00000046324949619347151960000000740634124114054587_);}
	.st41{fill:url(#SVGID_00000047051438431218160870000014114121798702411172_);}
	.st42{fill:url(#SVGID_00000057864580455523491320000011773947051928442815_);}
	.st43{fill:url(#SVGID_00000183962008857348332970000002480421553289765022_);}
	.st44{fill:url(#SVGID_00000043457190191357552000000003157231872696489623_);}
	.st45{fill:url(#SVGID_00000023961521789552415800000013640085691758732193_);}
	.st46{fill:url(#SVGID_00000021117850400661829030000004655839346898883763_);}
	.st47{fill:#FAB600;}
	.st48{fill:url(#SVGID_00000070841151115995365650000017052644617689586816_);}
	.st49{fill:url(#SVGID_00000170963888445617993860000002641891466723613345_);}
	.st50{fill:url(#SVGID_00000063591810073430282300000002135400544496612229_);}
	.st51{fill:url(#SVGID_00000031915415449049942600000008884235025755631000_);}
	.st52{fill:url(#SVGID_00000096747246277179463390000013945049525269785011_);}
	.st53{fill:url(#SVGID_00000124152141955210147290000007064634898674395778_);}
	.st54{fill:url(#SVGID_00000081631884163589258440000012368483933135216774_);}
	.st55{fill:url(#SVGID_00000097491693031909631990000017240503044420717185_);}
	.st56{fill:url(#SVGID_00000006704269028024318530000000201960736088809638_);}
	.st57{fill:url(#SVGID_00000176017273063391348020000012064084211310980777_);}
	.st58{font-family:'Courier';}
	.st59{font-size:24px;}
	.st60{font-size:10px;}
	.st61{fill:#FF0000;}
	.st62{font-family:'Courier-Bold';}
	.st63{font-size:12px;}
	.st64{fill:url(#SVGID_00000166643470479801072340000004260496100860523959_);}
</style>
<radialGradient id="SVGID_1_" cx="460.5557" cy="-1416.3894" r="1" gradientTransform="matrix(2.000000e-14 327.499 327.499 -2.000000e-14 464068.5938 -150831.5156)" gradientUnits="userSpaceOnUse">
	<stop  offset="0" style="stop-color:#FF0000"/>
	<stop  offset="1" style="stop-color:#000000"/>
</radialGradient>
<path class="st0" d="M30,0h345c16.57,0,30,13.43,30,30v345c0,16.57-13.43,30-30,30H30c-16.57,0-30-13.43-30-30V30
	C0,13.43,13.43,0,30,0z"/>
<radialGradient id="SVGID_00000147188074699335414610000008428563769789642932_" cx="461.7141" cy="-1417.7159" r="1" gradientTransform="matrix(1.700000e-14 270.995 167.538 -1.000000e-14 237723.7812 -125044.6953)" gradientUnits="userSpaceOnUse">
	<stop  offset="0" style="stop-color:#FFFFFF"/>
	<stop  offset="0.7107" style="stop-color:#D85111"/>
	<stop  offset="1" style="stop-color:#000000;stop-opacity:0"/>
	<stop  offset="1" style="stop-color:#000000;stop-opacity:0"/>
</radialGradient>
<path style="fill:url(#SVGID_00000147188074699335414610000008428563769789642932_);" d="M214.93,95.88c-5.94-8.8-18.93-8.8-24.87,0
	c-43.56,64.49-70.9,107.33-70.9,149.07c0,45.6,37.28,82.55,83.33,82.55s83.33-36.95,83.33-82.55
	C285.83,203.21,258.49,160.37,214.93,95.88z"/>
<g>
	<path class="st2" d="M271.41,338.62c-0.08-0.08-0.17-0.14-0.27-0.18c-0.1-0.04-0.21-0.06-0.32-0.06h-1.66
		c-0.11,0-0.22,0.02-0.32,0.06c-0.1,0.04-0.19,0.1-0.27,0.18c-0.08,0.08-0.14,0.17-0.18,0.27c-0.04,0.1-0.06,0.21-0.06,0.32v5
		c0,0.11-0.02,0.22-0.06,0.32c-0.04,0.1-0.1,0.2-0.18,0.27c-0.08,0.08-0.17,0.14-0.27,0.18c-0.1,0.04-0.21,0.06-0.32,0.06h-8.33
		c-0.11,0-0.22-0.02-0.32-0.06s-0.2-0.1-0.27-0.18s-0.14-0.17-0.18-0.27c-0.04-0.1-0.06-0.21-0.06-0.32v-5
		c0-0.11-0.02-0.22-0.06-0.32c-0.04-0.1-0.1-0.19-0.18-0.27c-0.08-0.08-0.17-0.14-0.27-0.18c-0.1-0.04-0.21-0.06-0.32-0.06h-1.67
		c-0.22,0-0.43,0.09-0.59,0.24s-0.24,0.37-0.24,0.59v15c0,0.11,0.02,0.22,0.06,0.32c0.04,0.1,0.1,0.19,0.18,0.27
		c0.08,0.08,0.17,0.14,0.27,0.18c0.1,0.04,0.21,0.06,0.32,0.06h1.67c0.11,0,0.22-0.02,0.32-0.06c0.1-0.04,0.19-0.1,0.27-0.18
		c0.08-0.08,0.14-0.17,0.18-0.27c0.04-0.1,0.06-0.21,0.06-0.32v-5c0-0.11,0.02-0.22,0.06-0.32c0.04-0.1,0.1-0.19,0.18-0.27
		c0.08-0.08,0.17-0.14,0.27-0.18c0.1-0.04,0.21-0.06,0.32-0.06h8.33c0.11,0,0.22,0.02,0.32,0.06c0.1,0.04,0.19,0.1,0.27,0.18
		c0.08,0.08,0.14,0.17,0.18,0.27c0.04,0.1,0.06,0.21,0.06,0.32v5c0,0.11,0.02,0.22,0.06,0.32c0.04,0.1,0.1,0.2,0.18,0.27
		s0.17,0.14,0.27,0.18s0.21,0.06,0.32,0.06h1.66c0.11,0,0.22-0.02,0.32-0.06c0.1-0.04,0.2-0.1,0.27-0.18s0.14-0.17,0.18-0.27
		c0.04-0.1,0.06-0.21,0.06-0.32v-15c0-0.11-0.02-0.22-0.06-0.32C271.55,338.78,271.49,338.69,271.41,338.62z"/>
	<path class="st2" d="M321.41,341.91c-0.08-0.08-0.17-0.14-0.27-0.18c-0.1-0.04-0.21-0.06-0.32-0.06h-5.83v0.04h-2.5
		c-0.11,0-0.22-0.02-0.32-0.06c-0.1-0.04-0.19-0.1-0.27-0.18c-0.08-0.08-0.14-0.17-0.18-0.27c-0.04-0.1-0.06-0.21-0.06-0.32v-5
		c0-0.11-0.02-0.22-0.06-0.32c-0.04-0.1-0.1-0.19-0.18-0.27c-0.08-0.08-0.17-0.14-0.27-0.18c-0.1-0.04-0.21-0.06-0.32-0.06h-1.66
		c-0.11,0-0.22,0.02-0.32,0.06c-0.1,0.04-0.2,0.1-0.27,0.18c-0.08,0.08-0.14,0.17-0.18,0.27s-0.06,0.21-0.06,0.32v18.33
		c0,0.11,0.02,0.22,0.06,0.32c0.04,0.1,0.1,0.2,0.18,0.27c0.08,0.08,0.17,0.14,0.27,0.18c0.1,0.04,0.21,0.06,0.32,0.06h1.66
		c0.11,0,0.22-0.02,0.32-0.06c0.1-0.04,0.2-0.1,0.27-0.18c0.08-0.08,0.14-0.17,0.18-0.27c0.04-0.1,0.06-0.21,0.06-0.32v-8.33
		c0-0.11,0.02-0.22,0.06-0.32c0.04-0.1,0.1-0.19,0.18-0.27c0.08-0.08,0.17-0.14,0.27-0.18c0.1-0.04,0.21-0.06,0.32-0.06h5
		c0.11,0,0.22,0.02,0.32,0.06c0.1,0.04,0.19,0.1,0.27,0.18c0.08,0.08,0.14,0.17,0.18,0.27c0.04,0.1,0.06,0.21,0.06,0.32v8.33
		c0,0.11,0.02,0.22,0.06,0.32c0.04,0.1,0.1,0.2,0.18,0.27c0.08,0.08,0.17,0.14,0.27,0.18c0.1,0.04,0.21,0.06,0.32,0.06h1.66
		c0.11,0,0.22-0.02,0.32-0.06c0.1-0.04,0.2-0.1,0.27-0.18c0.08-0.08,0.14-0.17,0.18-0.27c0.04-0.1,0.06-0.21,0.06-0.32v-11.7
		c0-0.11-0.02-0.22-0.06-0.32C321.55,342.08,321.49,341.99,321.41,341.91z"/>
	<path class="st2" d="M338.08,341.91c-0.08-0.08-0.17-0.14-0.27-0.18c-0.1-0.04-0.21-0.06-0.32-0.06h-11.67
		c-0.11,0-0.22,0.02-0.32,0.06c-0.1,0.04-0.19,0.11-0.27,0.18c-0.08,0.08-0.14,0.17-0.18,0.27s-0.06,0.21-0.06,0.32v11.66
		c0,0.11,0.02,0.22,0.06,0.32s0.1,0.19,0.18,0.27c0.08,0.08,0.17,0.14,0.27,0.18c0.1,0.04,0.21,0.06,0.32,0.06h11.67
		c0.11,0,0.22-0.02,0.32-0.06c0.1-0.04,0.19-0.1,0.27-0.18c0.08-0.08,0.14-0.17,0.18-0.27c0.04-0.1,0.06-0.21,0.06-0.32v-1.66
		c0-0.11-0.02-0.22-0.06-0.32c-0.04-0.1-0.1-0.2-0.18-0.27c-0.08-0.08-0.17-0.14-0.27-0.18c-0.1-0.04-0.21-0.06-0.32-0.06h-8.33
		c-0.22,0-0.43-0.09-0.59-0.24c-0.16-0.16-0.24-0.37-0.24-0.59s0.09-0.43,0.24-0.59c0.16-0.16,0.37-0.24,0.59-0.24h8.33
		c0.11,0,0.22-0.02,0.32-0.06c0.1-0.04,0.19-0.1,0.27-0.18c0.08-0.08,0.14-0.17,0.18-0.27c0.04-0.1,0.06-0.21,0.06-0.32v-6.66
		c0-0.11-0.02-0.22-0.06-0.32C338.22,342.08,338.15,341.99,338.08,341.91z M334.92,346.15c-0.04,0.1-0.1,0.19-0.18,0.27
		c-0.08,0.08-0.17,0.14-0.27,0.18c-0.1,0.04-0.21,0.06-0.32,0.06h-5c-0.11,0-0.22-0.02-0.32-0.06c-0.1-0.04-0.19-0.1-0.27-0.18
		c-0.08-0.08-0.14-0.17-0.18-0.27c-0.04-0.1-0.06-0.21-0.06-0.32s0.02-0.22,0.06-0.32c0.04-0.1,0.1-0.19,0.18-0.27
		c0.08-0.08,0.17-0.14,0.27-0.18c0.1-0.04,0.21-0.06,0.32-0.06h5c0.11,0,0.22,0.02,0.32,0.06c0.1,0.04,0.19,0.1,0.27,0.18
		c0.08,0.08,0.14,0.17,0.18,0.27c0.04,0.1,0.06,0.21,0.06,0.32C334.98,345.94,334.96,346.05,334.92,346.15z"/>
	<path class="st2" d="M354.74,341.91c-0.08-0.08-0.17-0.14-0.27-0.18s-0.21-0.06-0.32-0.06l-2.5,0.04h-9.17
		c-0.11,0-0.22,0.02-0.32,0.06c-0.1,0.04-0.19,0.1-0.27,0.18c-0.08,0.08-0.14,0.17-0.18,0.27c-0.04,0.1-0.06,0.21-0.06,0.32v11.66
		c0,0.11,0.02,0.22,0.06,0.32c0.04,0.1,0.1,0.2,0.18,0.27c0.08,0.08,0.17,0.14,0.27,0.18s0.21,0.06,0.32,0.06h1.67
		c0.11,0,0.22-0.02,0.32-0.06s0.19-0.1,0.27-0.18c0.08-0.08,0.14-0.17,0.18-0.27c0.04-0.1,0.06-0.21,0.06-0.32v-8.33
		c0-0.11,0.02-0.22,0.06-0.32c0.04-0.1,0.1-0.19,0.18-0.27c0.08-0.08,0.17-0.14,0.27-0.18c0.1-0.04,0.21-0.06,0.32-0.06h5
		c0.11,0,0.22,0.02,0.32,0.06c0.1,0.04,0.2,0.1,0.27,0.18c0.08,0.08,0.14,0.17,0.18,0.27c0.04,0.1,0.06,0.21,0.06,0.32v8.33
		c0,0.11,0.02,0.22,0.06,0.32c0.04,0.1,0.1,0.2,0.18,0.27c0.08,0.08,0.17,0.14,0.27,0.18s0.21,0.06,0.32,0.06h1.67
		c0.11,0,0.22-0.02,0.32-0.06s0.19-0.1,0.27-0.18c0.08-0.08,0.14-0.17,0.18-0.27c0.04-0.1,0.06-0.21,0.06-0.32v-11.7
		c0-0.11-0.02-0.22-0.06-0.32C354.88,342.08,354.82,341.99,354.74,341.91z"/>
	<path class="st2" d="M288.08,341.91c-0.08-0.08-0.17-0.14-0.27-0.18c-0.1-0.04-0.21-0.06-0.32-0.06h-1.67
		c-0.11,0-0.22,0.02-0.32,0.06c-0.1,0.04-0.19,0.11-0.27,0.18c-0.08,0.08-0.14,0.17-0.18,0.27s-0.06,0.21-0.06,0.32v8.33
		c0,0.11-0.02,0.22-0.06,0.32c-0.04,0.1-0.1,0.19-0.18,0.27c-0.08,0.08-0.17,0.14-0.27,0.18c-0.1,0.04-0.21,0.06-0.32,0.06h-5
		c-0.11,0-0.22-0.02-0.32-0.06c-0.1-0.04-0.2-0.1-0.27-0.18c-0.08-0.08-0.14-0.17-0.18-0.27c-0.04-0.1-0.06-0.21-0.06-0.32v-8.33
		c0-0.11-0.02-0.22-0.06-0.32c-0.04-0.1-0.1-0.2-0.18-0.27c-0.08-0.08-0.17-0.14-0.27-0.18c-0.1-0.04-0.21-0.06-0.32-0.06h-1.67
		c-0.11,0-0.22,0.02-0.32,0.06c-0.1,0.04-0.19,0.11-0.27,0.18c-0.08,0.08-0.14,0.17-0.18,0.27s-0.06,0.21-0.06,0.32v11.66
		c0,0.11,0.02,0.22,0.06,0.32s0.1,0.19,0.18,0.27c0.08,0.08,0.17,0.14,0.27,0.18c0.1,0.04,0.21,0.06,0.32,0.06h8.34
		c0.22,0,0.43,0.09,0.59,0.24c0.16,0.16,0.24,0.37,0.24,0.59s-0.09,0.43-0.24,0.59c-0.16,0.16-0.37,0.24-0.59,0.24h-5
		c-0.11,0-0.22,0.02-0.32,0.06s-0.2,0.1-0.27,0.18s-0.14,0.17-0.18,0.27c-0.04,0.1-0.06,0.21-0.06,0.32v1.66
		c0,0.11,0.02,0.22,0.06,0.32c0.04,0.1,0.1,0.2,0.18,0.27s0.17,0.14,0.27,0.18s0.21,0.06,0.32,0.06h8.33c0.11,0,0.22-0.02,0.32-0.06
		c0.1-0.04,0.19-0.1,0.27-0.18c0.08-0.08,0.14-0.17,0.18-0.27c0.04-0.1,0.06-0.21,0.06-0.32v-16.66c0-0.11-0.02-0.22-0.06-0.32
		C288.22,342.08,288.15,341.99,288.08,341.91z"/>
	<path class="st2" d="M304.74,341.91c-0.08-0.08-0.17-0.14-0.27-0.18s-0.21-0.06-0.32-0.06h-11.67c-0.11,0-0.22,0.02-0.32,0.06
		c-0.1,0.04-0.19,0.1-0.27,0.18c-0.08,0.08-0.14,0.17-0.18,0.27c-0.04,0.1-0.06,0.21-0.06,0.32v16.66c0,0.11,0.02,0.22,0.06,0.32
		c0.04,0.1,0.1,0.2,0.18,0.27c0.08,0.08,0.17,0.14,0.27,0.18c0.1,0.04,0.21,0.06,0.32,0.06h1.67c0.11,0,0.22-0.02,0.32-0.06
		s0.19-0.1,0.27-0.18c0.08-0.08,0.14-0.17,0.18-0.27c0.04-0.1,0.06-0.21,0.06-0.32v-3.33c0-0.11,0.02-0.22,0.06-0.32
		c0.04-0.1,0.1-0.19,0.18-0.27c0.08-0.08,0.17-0.14,0.27-0.18c0.1-0.04,0.21-0.06,0.32-0.06h8.34c0.11,0,0.22-0.02,0.32-0.06
		s0.19-0.1,0.27-0.18c0.08-0.08,0.14-0.17,0.18-0.27c0.04-0.1,0.06-0.21,0.06-0.32v-11.66c0-0.11-0.02-0.22-0.06-0.32
		C304.88,342.08,304.82,341.99,304.74,341.91z M301.65,350.84c0,0.11-0.02,0.22-0.06,0.32c-0.04,0.1-0.1,0.19-0.18,0.27
		c-0.08,0.08-0.17,0.14-0.28,0.18c-0.1,0.04-0.21,0.06-0.32,0.06h-5c-0.11,0-0.22-0.02-0.32-0.06c-0.1-0.04-0.19-0.1-0.27-0.18
		c-0.08-0.08-0.14-0.17-0.18-0.27c-0.04-0.1-0.06-0.21-0.06-0.32v-5c0-0.11,0.02-0.22,0.06-0.32c0.04-0.1,0.1-0.19,0.18-0.27
		c0.08-0.08,0.17-0.14,0.27-0.18c0.1-0.04,0.21-0.06,0.32-0.06h5c0.11,0,0.22,0.02,0.32,0.06c0.1,0.04,0.2,0.1,0.28,0.18
		c0.08,0.08,0.14,0.17,0.18,0.27c0.04,0.1,0.06,0.21,0.06,0.32V350.84z"/>
	<path class="st2" d="M329.97,96.59c0.28,0,0.57-0.05,0.83-0.16c0.26-0.11,0.5-0.27,0.7-0.47c0.2-0.2,0.36-0.44,0.47-0.7
		c0.11-0.26,0.16-0.54,0.16-0.83V81.49c0-0.28-0.05-0.56-0.16-0.82c-0.11-0.26-0.26-0.5-0.46-0.7c-0.2-0.2-0.43-0.36-0.7-0.47
		c-0.26-0.11-0.54-0.16-0.82-0.16h-4.31c-0.57,0-1.12,0.23-1.52,0.63c-0.4,0.4-0.63,0.95-0.63,1.52v4.31c0,0.28-0.05,0.57-0.16,0.83
		c-0.11,0.26-0.27,0.5-0.47,0.7c-0.2,0.2-0.44,0.36-0.7,0.47c-0.26,0.11-0.54,0.16-0.83,0.16h-4.31c-0.28,0-0.57-0.05-0.83-0.16
		c-0.26-0.11-0.5-0.27-0.7-0.47c-0.2-0.2-0.36-0.44-0.47-0.7c-0.11-0.26-0.16-0.54-0.16-0.83V64.24c0-0.28,0.05-0.57,0.16-0.83
		c0.11-0.26,0.27-0.5,0.47-0.7c0.2-0.2,0.44-0.36,0.7-0.47s0.54-0.16,0.83-0.16h1.25c0.42,0,0.84-0.12,1.2-0.36
		c0.35-0.24,0.63-0.57,0.79-0.97c0.16-0.39,0.2-0.83,0.11-1.24c-0.09-0.42-0.3-0.8-0.6-1.09l-7.68-7.76
		c-0.2-0.21-0.44-0.37-0.7-0.48c-0.26-0.11-0.55-0.17-0.83-0.17c-0.29,0-0.57,0.06-0.83,0.17c-0.26,0.11-0.5,0.27-0.7,0.48
		l-7.72,7.76c-0.3,0.3-0.51,0.68-0.59,1.09s-0.04,0.85,0.12,1.24c0.16,0.39,0.43,0.73,0.78,0.96c0.35,0.24,0.76,0.37,1.19,0.37h1.25
		c0.29,0,0.57,0.05,0.83,0.16s0.5,0.27,0.7,0.47c0.2,0.2,0.36,0.44,0.47,0.7c0.11,0.26,0.16,0.55,0.16,0.83v30.2
		c0,0.28,0.05,0.57,0.16,0.83c0.11,0.26,0.27,0.5,0.47,0.7c0.2,0.2,0.44,0.36,0.7,0.47c0.26,0.11,0.54,0.16,0.83,0.16H329.97z"/>
	<path class="st2" d="M324.14,70.08c0.2,0.2,0.44,0.36,0.7,0.47c0.26,0.11,0.54,0.16,0.83,0.16h4.31c0.28,0,0.57-0.05,0.83-0.16
		c0.26-0.11,0.5-0.27,0.7-0.47c0.2-0.2,0.36-0.44,0.47-0.7c0.11-0.26,0.16-0.54,0.16-0.83v-4.31c0-0.28,0.05-0.57,0.16-0.83
		c0.11-0.26,0.27-0.5,0.47-0.7c0.2-0.2,0.44-0.36,0.7-0.47c0.26-0.11,0.54-0.16,0.83-0.16h4.32c0.28,0,0.57,0.05,0.83,0.16
		c0.26,0.11,0.5,0.27,0.7,0.47c0.2,0.2,0.36,0.44,0.47,0.7c0.11,0.26,0.16,0.55,0.16,0.83v21.57c0,0.28-0.05,0.57-0.16,0.83
		c-0.11,0.26-0.27,0.5-0.47,0.7c-0.2,0.2-0.44,0.36-0.7,0.47c-0.26,0.11-0.54,0.16-0.83,0.16h-1.26c-0.42,0-0.84,0.13-1.2,0.36
		c-0.35,0.24-0.63,0.57-0.79,0.97c-0.16,0.39-0.2,0.83-0.11,1.24c0.09,0.42,0.3,0.8,0.6,1.1l7.73,7.72c0.2,0.2,0.44,0.37,0.7,0.48
		c0.26,0.11,0.55,0.17,0.83,0.17c0.29,0,0.57-0.06,0.83-0.17c0.26-0.11,0.5-0.28,0.7-0.48l7.72-7.72c0.3-0.3,0.5-0.69,0.58-1.1
		c0.08-0.42,0.04-0.85-0.12-1.24c-0.16-0.39-0.44-0.73-0.79-0.96c-0.35-0.24-0.77-0.36-1.19-0.36h-1.29c-0.28,0-0.57-0.05-0.83-0.16
		c-0.26-0.11-0.5-0.27-0.7-0.47c-0.2-0.2-0.36-0.44-0.47-0.7c-0.11-0.26-0.16-0.54-0.16-0.83V55.6c0-0.28-0.05-0.57-0.16-0.83
		c-0.11-0.26-0.27-0.5-0.47-0.7c-0.2-0.2-0.44-0.36-0.7-0.47c-0.26-0.11-0.55-0.16-0.83-0.16h-21.57c-0.28,0-0.57,0.05-0.83,0.16
		c-0.26,0.11-0.5,0.27-0.7,0.47c-0.2,0.2-0.36,0.44-0.47,0.7c-0.11,0.26-0.16,0.54-0.16,0.83v12.95c0,0.28,0.05,0.57,0.16,0.83
		C323.78,69.64,323.94,69.88,324.14,70.08z"/>
</g>
<text transform="matrix(1 0 0 1 73.6859 67.0002)" class="st2 st58 st59">1881 BICO</text>
<text transform="matrix(0 -1 1 0 70.5179 356.7031)" class="st2 st58 st59">0.02%</text>
<line class="st3" x1="61.86" y1="267.12" x2="61.86" y2="114.71"/>
<text transform="matrix(1 0 0 1 79.9149 355.0007)" class="st2 st58 st60">ID: 27</text>
<g>
	<path class="st61" d="M136.03,77.23H56.69c-2.76,0-5,2.24-5,5v7.47c0,2.76,2.24,5,5,5h79.34c2.76,0,5-2.24,5-5v-7.47
		C141.03,79.47,138.79,77.23,136.03,77.23z"/>
	<text transform="matrix(1 0 0 1 56.6854 89.7064)" class="st2 st62 st63">ON OPTIMISM</text>
</g>
<g>
	<g>
		<circle cx="60.19" cy="58.5" r="8.5"/>
		<g>
			
				<linearGradient id="SVGID_00000102519053925185458630000017075407510996614826_" gradientUnits="userSpaceOnUse" x1="58.7095" y1="66.8721" x2="61.662" y2="50.1276">
				<stop  offset="0" style="stop-color:#FFFFFF"/>
				<stop  offset="1" style="stop-color:#FFFFFF"/>
			</linearGradient>
			<path style="fill:url(#SVGID_00000102519053925185458630000017075407510996614826_);" d="M60.19,50.75
				c4.27,0,7.75,3.48,7.75,7.75s-3.48,7.75-7.75,7.75s-7.75-3.48-7.75-7.75S55.91,50.75,60.19,50.75 M60.19,50
				c-4.69,0-8.5,3.81-8.5,8.5s3.81,8.5,8.5,8.5s8.5-3.81,8.5-8.5S64.88,50,60.19,50L60.19,50z"/>
		</g>
	</g>
	<g>
		<path class="st34" d="M61.53,54.53c-0.31-0.18-0.68-0.28-1.06-0.28h-2.12c0.59,0,1.06,0.48,1.06,1.06v2.13v1.06h1.06
			c0.39,0,0.75-0.1,1.06-0.29c0.23-0.13,0.44-0.31,0.6-0.52c0.29-0.36,0.46-0.82,0.46-1.32C62.59,55.59,62.17,54.9,61.53,54.53z"/>
		<path class="st2" d="M62.14,57.69c-0.17,0.21-0.37,0.39-0.6,0.52c-0.31,0.18-0.68,0.29-1.06,0.29h-1.06v-1.06v-2.13
			c0-0.59-0.48-1.06-1.06-1.06h0c-0.59,0-1.06,0.48-1.06,1.06v2.13v1.06v3.19v1.06h1.06H61c0.18,0,0.36-0.02,0.53-0.05
			c1.21-0.25,2.12-1.32,2.12-2.6C63.66,59.03,63.03,58.12,62.14,57.69z"/>
	</g>
</g>
</svg>
