<?xml version="1.0" encoding="utf-8"?>
<!-- Generator: Adobe Illustrator 26.3.1, SVG Export Plug-In . SVG Version: 6.00 Build 0)  -->
<svg version="1.1" id="Layer_1" xmlns="http://www.w3.org/2000/svg" xmlns:xlink="http://www.w3.org/1999/xlink" x="0px" y="0px"
	 viewBox="0 0 405 405" style="enable-background:new 0 0 405 405;" xml:space="preserve">
<style type="text/css">
	.st0{fill:url(#SVGID_1_);}
	.st1{fill:url(#SVGID_00000090996024588662509790000005158870577075296191_);}
	.st2{fill:#FFFFFF;}
	.st3{fill:none;stroke:#FFFFFF;stroke-miterlimit:10;}
	.st4{fill-rule:evenodd;clip-rule:evenodd;fill:#50AF95;}
	.st5{fill-rule:evenodd;clip-rule:evenodd;fill:#FFFFFF;}
	.st6{fill:#8C8C8C;}
	.st7{fill:url(#SVGID_00000031165380858602821470000017334662305927964040_);}
	.st8{fill:url(#SVGID_00000151506376099163703710000017499784363844322962_);}
	.st9{fill:url(#SVGID_00000173847100451665311520000006388720653938219145_);}
	.st10{fill:url(#SVGID_00000165225882736518955480000005379306478958738583_);}
	.st11{fill:#2775CA;}
	.st12{fill:url(#SVGID_00000148650705603719629900000001036319596191637659_);}
	.st13{fill:url(#SVGID_00000173866457563574720810000006670243462422081688_);}
	.st14{fill-rule:evenodd;clip-rule:evenodd;fill:#627EEA;}
	.st15{fill:#FFFFFF;fill-opacity:0.602;}
	.st16{fill:#FFFFFF;fill-opacity:0.2;}
	.st17{fill:url(#SVGID_00000125585727566400377660000016487274690282909850_);}
	.st18{fill:url(#SVGID_00000052063987660385451590000002783288963560853147_);}
	.st19{fill:#8247E5;}
	.st20{fill:url(#SVGID_00000003810508331549346110000000411063230852574648_);}
	.st21{fill:url(#SVGID_00000003804328857754660550000006718728277674210181_);}
	.st22{fill:url(#SVGID_00000174581527295585111260000013080803264693888927_);}
	.st23{fill:url(#SVGID_00000075861982580885537940000018249949921284717722_);}
	.st24{fill:url(#SVGID_00000153705899623170626050000011660792343727484842_);}
	.st25{fill:url(#SVGID_00000077313963370852239950000000134503133278940081_);}
	.st26{fill:url(#SVGID_00000109732678539717137980000003846949716461498536_);}
	.st27{fill:url(#SVGID_00000106131343693436824630000011854928956297328007_);}
	.st28{fill:#E84142;}
	.st29{fill:url(#SVGID_00000129922459697913691330000011187066899932991914_);}
	.st30{fill:url(#SVGID_00000152228411713668606270000000427575680144951984_);}
	.st31{fill:url(#SVGID_00000029038058049459475520000007006256144215475588_);}
	.st32{fill:url(#SVGID_00000006691541439786537730000000249436085343848606_);}
	.st33{fill:url(#SVGID_00000097487968113192848210000011594667892607638445_);}
	.st34{fill:#D85111;}
	.st35{fill:url(#SVGID_00000061439747362666474040000006303643328618795136_);}
	.st36{fill:url(#SVGID_00000044139051077422137860000003862122839873269179_);}
	.st37{fill:url(#SVGID_00000119116385162919053570000006464545186625925008_);}
	.st38{fill:url(#SVGID_00000059997046620883388880000000759214459565846694_);}
	.st39{fill:url(#SVGID_00000026154472654972791360000006655663496412341137_);}
	.st40{fill:url(#SVGID_00000003071167503580157210000001022920865933330104_);}
	.st41{fill:url(#SVGID_00000036242229438368937160000004841768915738580372_);}
	.st42{fill:url(#SVGID_00000038414595452571455740000003621572061541578905_);}
	.st43{fill:url(#SVGID_00000010282190058818646970000000659196471401030803_);}
	.st44{fill:url(#SVGID_00000009582415144204631860000009974248498464921231_);}
	.st45{fill:url(#SVGID_00000025413377367460471560000011289558425332374461_);}
	.st46{fill:url(#SVGID_00000057132819002879976960000002691713423818215057_);}
	.st47{fill:#FAB600;}
	.st48{fill:url(#SVGID_00000085936143771606681650000017983178311100470146_);}
	.st49{fill:url(#SVGID_00000159430839776685321390000010633443991511858097_);}
	.st50{fill:url(#SVGID_00000117667561117617550270000000727576212740855950_);}
	.st51{fill:url(#SVGID_00000183938624574817154220000010026930844257596573_);}
	.st52{fill:url(#SVGID_00000059991486030533896730000017945502587331767189_);}
	.st53{fill:url(#SVGID_00000106836138079392745030000003202510002318214076_);}
	.st54{fill:url(#SVGID_00000173846226474900487750000009503661441745528977_);}
	.st55{fill:url(#SVGID_00000089546670369070744920000003063183712615077794_);}
	.st56{font-family:'Courier';}
	.st57{font-size:24px;}
	.st58{font-size:10px;}
	.st59{fill:url(#SVGID_00000078766873856780194670000017495996790908714407_);}
	.st60{fill:url(#SVGID_00000072261378477875713330000004158068069344891778_);}
	.st61{fill:#FF0000;}
	.st62{font-family:'Courier-Bold';}
	.st63{font-size:12px;}
	.st64{fill:url(#SVGID_00000123427364252348645450000000163606352956084380_);}
</style>
<radialGradient id="SVGID_1_" cx="-904.4443" cy="-1412.2214" r="1" gradientTransform="matrix(2.000000e-14 327.499 327.499 -2.000000e-14 462703.5938 296204.5938)" gradientUnits="userSpaceOnUse">
	<stop  offset="0" style="stop-color:#FF0000"/>
	<stop  offset="1" style="stop-color:#000000"/>
</radialGradient>
<path class="st0" d="M30,0h345c16.57,0,30,13.43,30,30v345c0,16.57-13.43,30-30,30H30c-16.57,0-30-13.43-30-30V30
	C0,13.43,13.43,0,30,0z"/>
<radialGradient id="SVGID_00000129166680091918409060000006423726566596609466_" cx="-903.2859" cy="-1409.5685" r="1" gradientTransform="matrix(1.700000e-14 270.995 167.538 -1.000000e-14 236358.7812 244863.4688)" gradientUnits="userSpaceOnUse">
	<stop  offset="0" style="stop-color:#FFFFFF"/>
	<stop  offset="0.7107" style="stop-color:#627EEA"/>
	<stop  offset="1" style="stop-color:#000000;stop-opacity:0"/>
	<stop  offset="1" style="stop-color:#000000;stop-opacity:0"/>
</radialGradient>
<path style="fill:url(#SVGID_00000129166680091918409060000006423726566596609466_);" d="M214.93,95.88c-5.94-8.8-18.93-8.8-24.87,0
	c-43.56,64.49-70.9,107.33-70.9,149.07c0,45.6,37.28,82.55,83.33,82.55s83.33-36.95,83.33-82.55
	C285.83,203.21,258.49,160.37,214.93,95.88z"/>
<g>
	<path class="st2" d="M271.41,338.62c-0.08-0.08-0.17-0.14-0.27-0.18c-0.1-0.04-0.21-0.06-0.32-0.06h-1.66
		c-0.11,0-0.22,0.02-0.32,0.06c-0.1,0.04-0.19,0.1-0.27,0.18c-0.08,0.08-0.14,0.17-0.18,0.27c-0.04,0.1-0.06,0.21-0.06,0.32v5
		c0,0.11-0.02,0.22-0.06,0.32c-0.04,0.1-0.1,0.2-0.18,0.27c-0.08,0.08-0.17,0.14-0.27,0.18c-0.1,0.04-0.21,0.06-0.32,0.06h-8.33
		c-0.11,0-0.22-0.02-0.32-0.06s-0.2-0.1-0.27-0.18s-0.14-0.17-0.18-0.27c-0.04-0.1-0.06-0.21-0.06-0.32v-5
		c0-0.11-0.02-0.22-0.06-0.32c-0.04-0.1-0.1-0.19-0.18-0.27c-0.08-0.08-0.17-0.14-0.27-0.18c-0.1-0.04-0.21-0.06-0.32-0.06h-1.67
		c-0.22,0-0.43,0.09-0.59,0.24s-0.24,0.37-0.24,0.59v15c0,0.11,0.02,0.22,0.06,0.32c0.04,0.1,0.1,0.19,0.18,0.27
		c0.08,0.08,0.17,0.14,0.27,0.18c0.1,0.04,0.21,0.06,0.32,0.06h1.67c0.11,0,0.22-0.02,0.32-0.06c0.1-0.04,0.19-0.1,0.27-0.18
		c0.08-0.08,0.14-0.17,0.18-0.27c0.04-0.1,0.06-0.21,0.06-0.32v-5c0-0.11,0.02-0.22,0.06-0.32c0.04-0.1,0.1-0.19,0.18-0.27
		c0.08-0.08,0.17-0.14,0.27-0.18c0.1-0.04,0.21-0.06,0.32-0.06h8.33c0.11,0,0.22,0.02,0.32,0.06c0.1,0.04,0.19,0.1,0.27,0.18
		c0.08,0.08,0.14,0.17,0.18,0.27c0.04,0.1,0.06,0.21,0.06,0.32v5c0,0.11,0.02,0.22,0.06,0.32c0.04,0.1,0.1,0.2,0.18,0.27
		s0.17,0.14,0.27,0.18s0.21,0.06,0.32,0.06h1.66c0.11,0,0.22-0.02,0.32-0.06c0.1-0.04,0.2-0.1,0.27-0.18s0.14-0.17,0.18-0.27
		c0.04-0.1,0.06-0.21,0.06-0.32v-15c0-0.11-0.02-0.22-0.06-0.32C271.55,338.78,271.49,338.69,271.41,338.62z"/>
	<path class="st2" d="M321.41,341.91c-0.08-0.08-0.17-0.14-0.27-0.18c-0.1-0.04-0.21-0.06-0.32-0.06h-5.83v0.04h-2.5
		c-0.11,0-0.22-0.02-0.32-0.06c-0.1-0.04-0.19-0.1-0.27-0.18c-0.08-0.08-0.14-0.17-0.18-0.27c-0.04-0.1-0.06-0.21-0.06-0.32v-5
		c0-0.11-0.02-0.22-0.06-0.32c-0.04-0.1-0.1-0.19-0.18-0.27c-0.08-0.08-0.17-0.14-0.27-0.18c-0.1-0.04-0.21-0.06-0.32-0.06h-1.66
		c-0.11,0-0.22,0.02-0.32,0.06c-0.1,0.04-0.2,0.1-0.27,0.18c-0.08,0.08-0.14,0.17-0.18,0.27s-0.06,0.21-0.06,0.32v18.33
		c0,0.11,0.02,0.22,0.06,0.32c0.04,0.1,0.1,0.2,0.18,0.27c0.08,0.08,0.17,0.14,0.27,0.18c0.1,0.04,0.21,0.06,0.32,0.06h1.66
		c0.11,0,0.22-0.02,0.32-0.06c0.1-0.04,0.2-0.1,0.27-0.18c0.08-0.08,0.14-0.17,0.18-0.27c0.04-0.1,0.06-0.21,0.06-0.32v-8.33
		c0-0.11,0.02-0.22,0.06-0.32c0.04-0.1,0.1-0.19,0.18-0.27c0.08-0.08,0.17-0.14,0.27-0.18c0.1-0.04,0.21-0.06,0.32-0.06h5
		c0.11,0,0.22,0.02,0.32,0.06c0.1,0.04,0.19,0.1,0.27,0.18c0.08,0.08,0.14,0.17,0.18,0.27c0.04,0.1,0.06,0.21,0.06,0.32v8.33
		c0,0.11,0.02,0.22,0.06,0.32c0.04,0.1,0.1,0.2,0.18,0.27c0.08,0.08,0.17,0.14,0.27,0.18c0.1,0.04,0.21,0.06,0.32,0.06h1.66
		c0.11,0,0.22-0.02,0.32-0.06c0.1-0.04,0.2-0.1,0.27-0.18c0.08-0.08,0.14-0.17,0.18-0.27c0.04-0.1,0.06-0.21,0.06-0.32v-11.7
		c0-0.11-0.02-0.22-0.06-0.32C321.55,342.08,321.49,341.99,321.41,341.91z"/>
	<path class="st2" d="M338.08,341.91c-0.08-0.08-0.17-0.14-0.27-0.18c-0.1-0.04-0.21-0.06-0.32-0.06h-11.67
		c-0.11,0-0.22,0.02-0.32,0.06c-0.1,0.04-0.19,0.11-0.27,0.18c-0.08,0.08-0.14,0.17-0.18,0.27s-0.06,0.21-0.06,0.32v11.66
		c0,0.11,0.02,0.22,0.06,0.32s0.1,0.19,0.18,0.27c0.08,0.08,0.17,0.14,0.27,0.18c0.1,0.04,0.21,0.06,0.32,0.06h11.67
		c0.11,0,0.22-0.02,0.32-0.06c0.1-0.04,0.19-0.1,0.27-0.18c0.08-0.08,0.14-0.17,0.18-0.27c0.04-0.1,0.06-0.21,0.06-0.32v-1.66
		c0-0.11-0.02-0.22-0.06-0.32c-0.04-0.1-0.1-0.2-0.18-0.27c-0.08-0.08-0.17-0.14-0.27-0.18c-0.1-0.04-0.21-0.06-0.32-0.06h-8.33
		c-0.22,0-0.43-0.09-0.59-0.24c-0.16-0.16-0.24-0.37-0.24-0.59s0.09-0.43,0.24-0.59c0.16-0.16,0.37-0.24,0.59-0.24h8.33
		c0.11,0,0.22-0.02,0.32-0.06c0.1-0.04,0.19-0.1,0.27-0.18c0.08-0.08,0.14-0.17,0.18-0.27c0.04-0.1,0.06-0.21,0.06-0.32v-6.66
		c0-0.11-0.02-0.22-0.06-0.32C338.22,342.08,338.15,341.99,338.08,341.91z M334.92,346.15c-0.04,0.1-0.1,0.19-0.18,0.27
		c-0.08,0.08-0.17,0.14-0.27,0.18c-0.1,0.04-0.21,0.06-0.32,0.06h-5c-0.11,0-0.22-0.02-0.32-0.06c-0.1-0.04-0.19-0.1-0.27-0.18
		c-0.08-0.08-0.14-0.17-0.18-0.27c-0.04-0.1-0.06-0.21-0.06-0.32s0.02-0.22,0.06-0.32c0.04-0.1,0.1-0.19,0.18-0.27
		c0.08-0.08,0.17-0.14,0.27-0.18c0.1-0.04,0.21-0.06,0.32-0.06h5c0.11,0,0.22,0.02,0.32,0.06c0.1,0.04,0.19,0.1,0.27,0.18
		c0.08,0.08,0.14,0.17,0.18,0.27c0.04,0.1,0.06,0.21,0.06,0.32C334.98,345.94,334.96,346.05,334.92,346.15z"/>
	<path class="st2" d="M354.74,341.91c-0.08-0.08-0.17-0.14-0.27-0.18s-0.21-0.06-0.32-0.06l-2.5,0.04h-9.17
		c-0.11,0-0.22,0.02-0.32,0.06c-0.1,0.04-0.19,0.1-0.27,0.18c-0.08,0.08-0.14,0.17-0.18,0.27c-0.04,0.1-0.06,0.21-0.06,0.32v11.66
		c0,0.11,0.02,0.22,0.06,0.32c0.04,0.1,0.1,0.2,0.18,0.27c0.08,0.08,0.17,0.14,0.27,0.18s0.21,0.06,0.32,0.06h1.67
		c0.11,0,0.22-0.02,0.32-0.06s0.19-0.1,0.27-0.18c0.08-0.08,0.14-0.17,0.18-0.27c0.04-0.1,0.06-0.21,0.06-0.32v-8.33
		c0-0.11,0.02-0.22,0.06-0.32c0.04-0.1,0.1-0.19,0.18-0.27c0.08-0.08,0.17-0.14,0.27-0.18c0.1-0.04,0.21-0.06,0.32-0.06h5
		c0.11,0,0.22,0.02,0.32,0.06c0.1,0.04,0.2,0.1,0.27,0.18c0.08,0.08,0.14,0.17,0.18,0.27c0.04,0.1,0.06,0.21,0.06,0.32v8.33
		c0,0.11,0.02,0.22,0.06,0.32c0.04,0.1,0.1,0.2,0.18,0.27c0.08,0.08,0.17,0.14,0.27,0.18s0.21,0.06,0.32,0.06h1.67
		c0.11,0,0.22-0.02,0.32-0.06s0.19-0.1,0.27-0.18c0.08-0.08,0.14-0.17,0.18-0.27c0.04-0.1,0.06-0.21,0.06-0.32v-11.7
		c0-0.11-0.02-0.22-0.06-0.32C354.88,342.08,354.82,341.99,354.74,341.91z"/>
	<path class="st2" d="M288.08,341.91c-0.08-0.08-0.17-0.14-0.27-0.18c-0.1-0.04-0.21-0.06-0.32-0.06h-1.67
		c-0.11,0-0.22,0.02-0.32,0.06c-0.1,0.04-0.19,0.11-0.27,0.18c-0.08,0.08-0.14,0.17-0.18,0.27s-0.06,0.21-0.06,0.32v8.33
		c0,0.11-0.02,0.22-0.06,0.32c-0.04,0.1-0.1,0.19-0.18,0.27c-0.08,0.08-0.17,0.14-0.27,0.18c-0.1,0.04-0.21,0.06-0.32,0.06h-5
		c-0.11,0-0.22-0.02-0.32-0.06c-0.1-0.04-0.2-0.1-0.27-0.18c-0.08-0.08-0.14-0.17-0.18-0.27c-0.04-0.1-0.06-0.21-0.06-0.32v-8.33
		c0-0.11-0.02-0.22-0.06-0.32c-0.04-0.1-0.1-0.2-0.18-0.27c-0.08-0.08-0.17-0.14-0.27-0.18c-0.1-0.04-0.21-0.06-0.32-0.06h-1.67
		c-0.11,0-0.22,0.02-0.32,0.06c-0.1,0.04-0.19,0.11-0.27,0.18c-0.08,0.08-0.14,0.17-0.18,0.27s-0.06,0.21-0.06,0.32v11.66
		c0,0.11,0.02,0.22,0.06,0.32s0.1,0.19,0.18,0.27c0.08,0.08,0.17,0.14,0.27,0.18c0.1,0.04,0.21,0.06,0.32,0.06h8.34
		c0.22,0,0.43,0.09,0.59,0.24c0.16,0.16,0.24,0.37,0.24,0.59s-0.09,0.43-0.24,0.59c-0.16,0.16-0.37,0.24-0.59,0.24h-5
		c-0.11,0-0.22,0.02-0.32,0.06s-0.2,0.1-0.27,0.18s-0.14,0.17-0.18,0.27c-0.04,0.1-0.06,0.21-0.06,0.32v1.66
		c0,0.11,0.02,0.22,0.06,0.32c0.04,0.1,0.1,0.2,0.18,0.27s0.17,0.14,0.27,0.18s0.21,0.06,0.32,0.06h8.33c0.11,0,0.22-0.02,0.32-0.06
		c0.1-0.04,0.19-0.1,0.27-0.18c0.08-0.08,0.14-0.17,0.18-0.27c0.04-0.1,0.06-0.21,0.06-0.32v-16.66c0-0.11-0.02-0.22-0.06-0.32
		C288.22,342.08,288.15,341.99,288.08,341.91z"/>
	<path class="st2" d="M304.74,341.91c-0.08-0.08-0.17-0.14-0.27-0.18s-0.21-0.06-0.32-0.06h-11.67c-0.11,0-0.22,0.02-0.32,0.06
		c-0.1,0.04-0.19,0.1-0.27,0.18c-0.08,0.08-0.14,0.17-0.18,0.27c-0.04,0.1-0.06,0.21-0.06,0.32v16.66c0,0.11,0.02,0.22,0.06,0.32
		c0.04,0.1,0.1,0.2,0.18,0.27c0.08,0.08,0.17,0.14,0.27,0.18c0.1,0.04,0.21,0.06,0.32,0.06h1.67c0.11,0,0.22-0.02,0.32-0.06
		s0.19-0.1,0.27-0.18c0.08-0.08,0.14-0.17,0.18-0.27c0.04-0.1,0.06-0.21,0.06-0.32v-3.33c0-0.11,0.02-0.22,0.06-0.32
		c0.04-0.1,0.1-0.19,0.18-0.27c0.08-0.08,0.17-0.14,0.27-0.18c0.1-0.04,0.21-0.06,0.32-0.06h8.34c0.11,0,0.22-0.02,0.32-0.06
		s0.19-0.1,0.27-0.18c0.08-0.08,0.14-0.17,0.18-0.27c0.04-0.1,0.06-0.21,0.06-0.32v-11.66c0-0.11-0.02-0.22-0.06-0.32
		C304.88,342.08,304.82,341.99,304.74,341.91z M301.65,350.84c0,0.11-0.02,0.22-0.06,0.32c-0.04,0.1-0.1,0.19-0.18,0.27
		c-0.08,0.08-0.17,0.14-0.28,0.18c-0.1,0.04-0.21,0.06-0.32,0.06h-5c-0.11,0-0.22-0.02-0.32-0.06c-0.1-0.04-0.19-0.1-0.27-0.18
		c-0.08-0.08-0.14-0.17-0.18-0.27c-0.04-0.1-0.06-0.21-0.06-0.32v-5c0-0.11,0.02-0.22,0.06-0.32c0.04-0.1,0.1-0.19,0.18-0.27
		c0.08-0.08,0.17-0.14,0.27-0.18c0.1-0.04,0.21-0.06,0.32-0.06h5c0.11,0,0.22,0.02,0.32,0.06c0.1,0.04,0.2,0.1,0.28,0.18
		c0.08,0.08,0.14,0.17,0.18,0.27c0.04,0.1,0.06,0.21,0.06,0.32V350.84z"/>
	<path class="st2" d="M329.97,96.59c0.28,0,0.57-0.05,0.83-0.16c0.26-0.11,0.5-0.27,0.7-0.47c0.2-0.2,0.36-0.44,0.47-0.7
		c0.11-0.26,0.16-0.54,0.16-0.83V81.49c0-0.28-0.05-0.56-0.16-0.82c-0.11-0.26-0.26-0.5-0.46-0.7c-0.2-0.2-0.43-0.36-0.7-0.47
		c-0.26-0.11-0.54-0.16-0.82-0.16h-4.31c-0.57,0-1.12,0.23-1.52,0.63c-0.4,0.4-0.63,0.95-0.63,1.52v4.31c0,0.28-0.05,0.57-0.16,0.83
		c-0.11,0.26-0.27,0.5-0.47,0.7c-0.2,0.2-0.44,0.36-0.7,0.47c-0.26,0.11-0.54,0.16-0.83,0.16h-4.31c-0.28,0-0.57-0.05-0.83-0.16
		c-0.26-0.11-0.5-0.27-0.7-0.47c-0.2-0.2-0.36-0.44-0.47-0.7c-0.11-0.26-0.16-0.54-0.16-0.83V64.24c0-0.28,0.05-0.57,0.16-0.83
		c0.11-0.26,0.27-0.5,0.47-0.7c0.2-0.2,0.44-0.36,0.7-0.47s0.54-0.16,0.83-0.16h1.25c0.42,0,0.84-0.12,1.2-0.36
		c0.35-0.24,0.63-0.57,0.79-0.97c0.16-0.39,0.2-0.83,0.11-1.24c-0.09-0.42-0.3-0.8-0.6-1.09l-7.68-7.76
		c-0.2-0.21-0.44-0.37-0.7-0.48c-0.26-0.11-0.55-0.17-0.83-0.17c-0.29,0-0.57,0.06-0.83,0.17c-0.26,0.11-0.5,0.27-0.7,0.48
		l-7.72,7.76c-0.3,0.3-0.51,0.68-0.59,1.09s-0.04,0.85,0.12,1.24c0.16,0.39,0.43,0.73,0.78,0.96c0.35,0.24,0.76,0.37,1.19,0.37h1.25
		c0.29,0,0.57,0.05,0.83,0.16s0.5,0.27,0.7,0.47c0.2,0.2,0.36,0.44,0.47,0.7c0.11,0.26,0.16,0.55,0.16,0.83v30.2
		c0,0.28,0.05,0.57,0.16,0.83c0.11,0.26,0.27,0.5,0.47,0.7c0.2,0.2,0.44,0.36,0.7,0.47c0.26,0.11,0.54,0.16,0.83,0.16H329.97z"/>
	<path class="st2" d="M324.14,70.08c0.2,0.2,0.44,0.36,0.7,0.47c0.26,0.11,0.54,0.16,0.83,0.16h4.31c0.28,0,0.57-0.05,0.83-0.16
		c0.26-0.11,0.5-0.27,0.7-0.47c0.2-0.2,0.36-0.44,0.47-0.7c0.11-0.26,0.16-0.54,0.16-0.83v-4.31c0-0.28,0.05-0.57,0.16-0.83
		c0.11-0.26,0.27-0.5,0.47-0.7c0.2-0.2,0.44-0.36,0.7-0.47c0.26-0.11,0.54-0.16,0.83-0.16h4.32c0.28,0,0.57,0.05,0.83,0.16
		c0.26,0.11,0.5,0.27,0.7,0.47c0.2,0.2,0.36,0.44,0.47,0.7c0.11,0.26,0.16,0.55,0.16,0.83v21.57c0,0.28-0.05,0.57-0.16,0.83
		c-0.11,0.26-0.27,0.5-0.47,0.7c-0.2,0.2-0.44,0.36-0.7,0.47c-0.26,0.11-0.54,0.16-0.83,0.16h-1.26c-0.42,0-0.84,0.13-1.2,0.36
		c-0.35,0.24-0.63,0.57-0.79,0.97c-0.16,0.39-0.2,0.83-0.11,1.24c0.09,0.42,0.3,0.8,0.6,1.1l7.73,7.72c0.2,0.2,0.44,0.37,0.7,0.48
		c0.26,0.11,0.55,0.17,0.83,0.17c0.29,0,0.57-0.06,0.83-0.17c0.26-0.11,0.5-0.28,0.7-0.48l7.72-7.72c0.3-0.3,0.5-0.69,0.58-1.1
		c0.08-0.42,0.04-0.85-0.12-1.24c-0.16-0.39-0.44-0.73-0.79-0.96c-0.35-0.24-0.77-0.36-1.19-0.36h-1.29c-0.28,0-0.57-0.05-0.83-0.16
		c-0.26-0.11-0.5-0.27-0.7-0.47c-0.2-0.2-0.36-0.44-0.47-0.7c-0.11-0.26-0.16-0.54-0.16-0.83V55.6c0-0.28-0.05-0.57-0.16-0.83
		c-0.11-0.26-0.27-0.5-0.47-0.7c-0.2-0.2-0.44-0.36-0.7-0.47c-0.26-0.11-0.55-0.16-0.83-0.16h-21.57c-0.28,0-0.57,0.05-0.83,0.16
		c-0.26,0.11-0.5,0.27-0.7,0.47c-0.2,0.2-0.36,0.44-0.47,0.7c-0.11,0.26-0.16,0.54-0.16,0.83v12.95c0,0.28,0.05,0.57,0.16,0.83
		C323.78,69.64,323.94,69.88,324.14,70.08z"/>
</g>
<text transform="matrix(1 0 0 1 73.6859 67.0002)" class="st2 st56 st57">0.235 ETH</text>
<text transform="matrix(0 -1 1 0 70.5179 356.7012)" class="st2 st56 st57">0.02%</text>
<line class="st3" x1="61.86" y1="267.12" x2="61.86" y2="114.71"/>
<text transform="matrix(1 0 0 1 79.9149 355.0007)" class="st2 st56 st58">ID: 28</text>
<g>
	<circle class="st14" cx="60.19" cy="58.5" r="8.5"/>
	<g>
		<path class="st15" d="M60.45,52.12v4.71l3.98,1.78L60.45,52.12z"/>
		<path class="st2" d="M60.45,52.12l-3.98,6.49l3.98-1.78V52.12z"/>
		<path class="st15" d="M60.45,61.67v3.2l3.99-5.51L60.45,61.67z"/>
		<path class="st2" d="M60.45,64.87v-3.2l-3.98-2.31L60.45,64.87z"/>
		<path class="st16" d="M60.45,60.93l3.98-2.31l-3.98-1.78V60.93z"/>
		<path class="st15" d="M56.47,58.62l3.98,2.31v-4.09L56.47,58.62z"/>
	</g>
</g>
<g>
	<path class="st61" d="M136.03,77.23H56.69c-2.76,0-5,2.24-5,5v7.47c0,2.76,2.24,5,5,5h79.34c2.76,0,5-2.24,5-5v-7.47
		C141.03,79.47,138.79,77.23,136.03,77.23z"/>
	<text transform="matrix(1 0 0 1 56.6854 89.7064)" class="st2 st62 st63">ON OPTIMISM</text>
</g>
</svg>
