<?xml version="1.0" encoding="utf-8"?>
<!-- Generator: Adobe Illustrator 26.3.1, SVG Export Plug-In . SVG Version: 6.00 Build 0)  -->
<svg version="1.1" id="Layer_1" xmlns="http://www.w3.org/2000/svg" xmlns:xlink="http://www.w3.org/1999/xlink" x="0px" y="0px"
	 viewBox="0 0 405 405" style="enable-background:new 0 0 405 405;" xml:space="preserve">
<style type="text/css">
	.st0{fill:url(#SVGID_1_);}
	.st1{fill:url(#SVGID_00000075852601027884001190000013268285362358771093_);}
	.st2{fill:#FFFFFF;}
	.st3{fill:none;stroke:#FFFFFF;stroke-miterlimit:10;}
	.st4{fill-rule:evenodd;clip-rule:evenodd;fill:#50AF95;}
	.st5{fill-rule:evenodd;clip-rule:evenodd;fill:#FFFFFF;}
	.st6{fill:#8C8C8C;}
	.st7{fill:url(#SVGID_00000003795166405252420370000017361008227348834479_);}
	.st8{fill:url(#SVGID_00000166660417450732935380000011301291180787611574_);}
	.st9{fill:url(#SVGID_00000058588938654789610340000015518775469763432340_);}
	.st10{fill:url(#SVGID_00000049222607132383641020000014078781929623809947_);}
	.st11{fill:#2775CA;}
	.st12{fill:url(#SVGID_00000088110643204892987440000001063980487494062234_);}
	.st13{fill:url(#SVGID_00000119095222179743677190000001550957582686960544_);}
	.st14{fill-rule:evenodd;clip-rule:evenodd;fill:#627EEA;}
	.st15{fill:#FFFFFF;fill-opacity:0.602;}
	.st16{fill:#FFFFFF;fill-opacity:0.2;}
	.st17{fill:url(#SVGID_00000055702193910752680990000013377256618354408089_);}
	.st18{fill:url(#SVGID_00000168118532927645699770000006239105070970936753_);}
	.st19{fill:#8247E5;}
	.st20{fill:url(#SVGID_00000123418724882182301090000005537291125958665107_);}
	.st21{fill:url(#SVGID_00000018234536940430329800000001156292810023887242_);}
	.st22{fill:url(#SVGID_00000157265770716641993280000011068440778325126791_);}
	.st23{fill:url(#SVGID_00000111181437310361664370000014563652443998509243_);}
	.st24{fill:url(#SVGID_00000142157740483097180700000013407054809339165320_);}
	.st25{fill:url(#SVGID_00000028318337209333027370000014571742475616000426_);}
	.st26{fill:url(#SVGID_00000139994028571111033170000006969711540760378543_);}
	.st27{fill:url(#SVGID_00000080888266006453614280000010715278984261830076_);}
	.st28{fill:#E84142;}
	.st29{fill:url(#SVGID_00000040555088231572911090000005940535667643019411_);}
	.st30{fill:url(#SVGID_00000083788590803931034940000003217272459892761252_);}
	.st31{fill:url(#SVGID_00000054238192353635137290000007686012186218080407_);}
	.st32{fill:url(#SVGID_00000000920171884019563520000008205209691099966604_);}
	.st33{fill:url(#SVGID_00000081643151769288000520000009140622906483016368_);}
	.st34{fill:#D85111;}
	.st35{fill:url(#SVGID_00000065058389956382015950000001527791649504326793_);}
	.st36{fill:url(#SVGID_00000147921019789348679390000011788304013329022371_);}
	.st37{fill:url(#SVGID_00000155136166425506484890000004818158648037267128_);}
	.st38{fill:url(#SVGID_00000088092848368035522960000005683890238427548093_);}
	.st39{fill:url(#SVGID_00000139268291115906143540000001876047146981338799_);}
	.st40{fill:url(#SVGID_00000070808852321227950200000013983582583907738551_);}
	.st41{fill:url(#SVGID_00000130633736485810148940000010100068991203949442_);}
	.st42{fill:url(#SVGID_00000032629552286097314520000010779518114710875301_);}
	.st43{fill:url(#SVGID_00000048481723649196689310000016041449302080464568_);}
	.st44{fill:url(#SVGID_00000137110960868919061090000013397790242343320202_);}
	.st45{fill:url(#SVGID_00000091016998438332268950000014990588184957458111_);}
	.st46{fill:url(#SVGID_00000049903936236099230020000000326392102380992696_);}
	.st47{fill:#FAB600;}
	.st48{fill:url(#SVGID_00000110463340647346338970000009559864279321351088_);}
	.st49{fill:url(#SVGID_00000127748315272139476230000004676529118886232452_);}
	.st50{fill:url(#SVGID_00000138537212540143957780000006650990356678743455_);}
	.st51{fill:url(#SVGID_00000175295139469165435650000015542132406393142922_);}
	.st52{fill:url(#SVGID_00000078018917609174428350000015367132581833302940_);}
	.st53{fill:url(#SVGID_00000178905913349436022230000017213942522335536259_);}
	.st54{font-family:'Courier';}
	.st55{font-size:24px;}
	.st56{font-size:10px;}
	.st57{fill:url(#SVGID_00000098934216158780725960000012820205992887397031_);}
	.st58{fill:url(#SVGID_00000096021027125617532850000005770908911614034864_);}
	.st59{fill:url(#SVGID_00000103243908992058343660000006306362966538700186_);}
	.st60{fill:url(#SVGID_00000058585875000559904670000018221324636770158527_);}
	.st61{fill:#FF0000;}
	.st62{font-family:'Courier-Bold';}
	.st63{font-size:12px;}
	.st64{fill:url(#SVGID_00000133528049116971854030000014420698030005502117_);}
</style>
<radialGradient id="SVGID_1_" cx="-449.4443" cy="-1413.6107" r="1" gradientTransform="matrix(2.000000e-14 327.499 327.499 -2.000000e-14 463158.5938 147192.5625)" gradientUnits="userSpaceOnUse">
	<stop  offset="0" style="stop-color:#FF0000"/>
	<stop  offset="1" style="stop-color:#000000"/>
</radialGradient>
<path class="st0" d="M30,0h345c16.57,0,30,13.43,30,30v345c0,16.57-13.43,30-30,30H30c-16.57,0-30-13.43-30-30V30
	C0,13.43,13.43,0,30,0z"/>
<radialGradient id="SVGID_00000011017797905306306690000000707057151068658853_" cx="-448.2859" cy="-1412.2843" r="1" gradientTransform="matrix(1.700000e-14 270.995 167.538 -1.000000e-14 236813.7812 121560.75)" gradientUnits="userSpaceOnUse">
	<stop  offset="0" style="stop-color:#FFFFFF"/>
	<stop  offset="0.7107" style="stop-color:#2775CA"/>
	<stop  offset="1" style="stop-color:#000000;stop-opacity:0"/>
	<stop  offset="1" style="stop-color:#000000;stop-opacity:0"/>
</radialGradient>
<path style="fill:url(#SVGID_00000011017797905306306690000000707057151068658853_);" d="M214.93,95.88c-5.94-8.8-18.93-8.8-24.87,0
	c-43.56,64.49-70.9,107.33-70.9,149.07c0,45.6,37.28,82.55,83.33,82.55s83.33-36.95,83.33-82.55
	C285.83,203.21,258.49,160.37,214.93,95.88z"/>
<g>
	<path class="st2" d="M271.41,338.62c-0.08-0.08-0.17-0.14-0.27-0.18c-0.1-0.04-0.21-0.06-0.32-0.06h-1.66
		c-0.11,0-0.22,0.02-0.32,0.06c-0.1,0.04-0.19,0.1-0.27,0.18c-0.08,0.08-0.14,0.17-0.18,0.27c-0.04,0.1-0.06,0.21-0.06,0.32v5
		c0,0.11-0.02,0.22-0.06,0.32c-0.04,0.1-0.1,0.2-0.18,0.27c-0.08,0.08-0.17,0.14-0.27,0.18c-0.1,0.04-0.21,0.06-0.32,0.06h-8.33
		c-0.11,0-0.22-0.02-0.32-0.06s-0.2-0.1-0.27-0.18s-0.14-0.17-0.18-0.27c-0.04-0.1-0.06-0.21-0.06-0.32v-5
		c0-0.11-0.02-0.22-0.06-0.32c-0.04-0.1-0.1-0.19-0.18-0.27c-0.08-0.08-0.17-0.14-0.27-0.18c-0.1-0.04-0.21-0.06-0.32-0.06h-1.67
		c-0.22,0-0.43,0.09-0.59,0.24s-0.24,0.37-0.24,0.59v15c0,0.11,0.02,0.22,0.06,0.32c0.04,0.1,0.1,0.19,0.18,0.27
		c0.08,0.08,0.17,0.14,0.27,0.18c0.1,0.04,0.21,0.06,0.32,0.06h1.67c0.11,0,0.22-0.02,0.32-0.06c0.1-0.04,0.19-0.1,0.27-0.18
		c0.08-0.08,0.14-0.17,0.18-0.27c0.04-0.1,0.06-0.21,0.06-0.32v-5c0-0.11,0.02-0.22,0.06-0.32c0.04-0.1,0.1-0.19,0.18-0.27
		c0.08-0.08,0.17-0.14,0.27-0.18c0.1-0.04,0.21-0.06,0.32-0.06h8.33c0.11,0,0.22,0.02,0.32,0.06c0.1,0.04,0.19,0.1,0.27,0.18
		c0.08,0.08,0.14,0.17,0.18,0.27c0.04,0.1,0.06,0.21,0.06,0.32v5c0,0.11,0.02,0.22,0.06,0.32c0.04,0.1,0.1,0.2,0.18,0.27
		s0.17,0.14,0.27,0.18s0.21,0.06,0.32,0.06h1.66c0.11,0,0.22-0.02,0.32-0.06c0.1-0.04,0.2-0.1,0.27-0.18s0.14-0.17,0.18-0.27
		c0.04-0.1,0.06-0.21,0.06-0.32v-15c0-0.11-0.02-0.22-0.06-0.32C271.55,338.78,271.49,338.69,271.41,338.62z"/>
	<path class="st2" d="M321.41,341.91c-0.08-0.08-0.17-0.14-0.27-0.18c-0.1-0.04-0.21-0.06-0.32-0.06h-5.83v0.04h-2.5
		c-0.11,0-0.22-0.02-0.32-0.06c-0.1-0.04-0.19-0.1-0.27-0.18c-0.08-0.08-0.14-0.17-0.18-0.27c-0.04-0.1-0.06-0.21-0.06-0.32v-5
		c0-0.11-0.02-0.22-0.06-0.32c-0.04-0.1-0.1-0.19-0.18-0.27c-0.08-0.08-0.17-0.14-0.27-0.18c-0.1-0.04-0.21-0.06-0.32-0.06h-1.66
		c-0.11,0-0.22,0.02-0.32,0.06c-0.1,0.04-0.2,0.1-0.27,0.18c-0.08,0.08-0.14,0.17-0.18,0.27s-0.06,0.21-0.06,0.32v18.33
		c0,0.11,0.02,0.22,0.06,0.32c0.04,0.1,0.1,0.2,0.18,0.27c0.08,0.08,0.17,0.14,0.27,0.18c0.1,0.04,0.21,0.06,0.32,0.06h1.66
		c0.11,0,0.22-0.02,0.32-0.06c0.1-0.04,0.2-0.1,0.27-0.18c0.08-0.08,0.14-0.17,0.18-0.27c0.04-0.1,0.06-0.21,0.06-0.32v-8.33
		c0-0.11,0.02-0.22,0.06-0.32c0.04-0.1,0.1-0.19,0.18-0.27c0.08-0.08,0.17-0.14,0.27-0.18c0.1-0.04,0.21-0.06,0.32-0.06h5
		c0.11,0,0.22,0.02,0.32,0.06c0.1,0.04,0.19,0.1,0.27,0.18c0.08,0.08,0.14,0.17,0.18,0.27c0.04,0.1,0.06,0.21,0.06,0.32v8.33
		c0,0.11,0.02,0.22,0.06,0.32c0.04,0.1,0.1,0.2,0.18,0.27c0.08,0.08,0.17,0.14,0.27,0.18c0.1,0.04,0.21,0.06,0.32,0.06h1.66
		c0.11,0,0.22-0.02,0.32-0.06c0.1-0.04,0.2-0.1,0.27-0.18c0.08-0.08,0.14-0.17,0.18-0.27c0.04-0.1,0.06-0.21,0.06-0.32v-11.7
		c0-0.11-0.02-0.22-0.06-0.32C321.55,342.08,321.49,341.99,321.41,341.91z"/>
	<path class="st2" d="M338.08,341.91c-0.08-0.08-0.17-0.14-0.27-0.18c-0.1-0.04-0.21-0.06-0.32-0.06h-11.67
		c-0.11,0-0.22,0.02-0.32,0.06c-0.1,0.04-0.19,0.11-0.27,0.18c-0.08,0.08-0.14,0.17-0.18,0.27s-0.06,0.21-0.06,0.32v11.66
		c0,0.11,0.02,0.22,0.06,0.32s0.1,0.19,0.18,0.27c0.08,0.08,0.17,0.14,0.27,0.18c0.1,0.04,0.21,0.06,0.32,0.06h11.67
		c0.11,0,0.22-0.02,0.32-0.06c0.1-0.04,0.19-0.1,0.27-0.18c0.08-0.08,0.14-0.17,0.18-0.27c0.04-0.1,0.06-0.21,0.06-0.32v-1.66
		c0-0.11-0.02-0.22-0.06-0.32c-0.04-0.1-0.1-0.2-0.18-0.27c-0.08-0.08-0.17-0.14-0.27-0.18c-0.1-0.04-0.21-0.06-0.32-0.06h-8.33
		c-0.22,0-0.43-0.09-0.59-0.24c-0.16-0.16-0.24-0.37-0.24-0.59s0.09-0.43,0.24-0.59c0.16-0.16,0.37-0.24,0.59-0.24h8.33
		c0.11,0,0.22-0.02,0.32-0.06c0.1-0.04,0.19-0.1,0.27-0.18c0.08-0.08,0.14-0.17,0.18-0.27c0.04-0.1,0.06-0.21,0.06-0.32v-6.66
		c0-0.11-0.02-0.22-0.06-0.32C338.22,342.08,338.15,341.99,338.08,341.91z M334.92,346.15c-0.04,0.1-0.1,0.19-0.18,0.27
		c-0.08,0.08-0.17,0.14-0.27,0.18c-0.1,0.04-0.21,0.06-0.32,0.06h-5c-0.11,0-0.22-0.02-0.32-0.06c-0.1-0.04-0.19-0.1-0.27-0.18
		c-0.08-0.08-0.14-0.17-0.18-0.27c-0.04-0.1-0.06-0.21-0.06-0.32s0.02-0.22,0.06-0.32c0.04-0.1,0.1-0.19,0.18-0.27
		c0.08-0.08,0.17-0.14,0.27-0.18c0.1-0.04,0.21-0.06,0.32-0.06h5c0.11,0,0.22,0.02,0.32,0.06c0.1,0.04,0.19,0.1,0.27,0.18
		c0.08,0.08,0.14,0.17,0.18,0.27c0.04,0.1,0.06,0.21,0.06,0.32C334.98,345.94,334.96,346.05,334.92,346.15z"/>
	<path class="st2" d="M354.74,341.91c-0.08-0.08-0.17-0.14-0.27-0.18s-0.21-0.06-0.32-0.06l-2.5,0.04h-9.17
		c-0.11,0-0.22,0.02-0.32,0.06c-0.1,0.04-0.19,0.1-0.27,0.18c-0.08,0.08-0.14,0.17-0.18,0.27c-0.04,0.1-0.06,0.21-0.06,0.32v11.66
		c0,0.11,0.02,0.22,0.06,0.32c0.04,0.1,0.1,0.2,0.18,0.27c0.08,0.08,0.17,0.14,0.27,0.18s0.21,0.06,0.32,0.06h1.67
		c0.11,0,0.22-0.02,0.32-0.06s0.19-0.1,0.27-0.18c0.08-0.08,0.14-0.17,0.18-0.27c0.04-0.1,0.06-0.21,0.06-0.32v-8.33
		c0-0.11,0.02-0.22,0.06-0.32c0.04-0.1,0.1-0.19,0.18-0.27c0.08-0.08,0.17-0.14,0.27-0.18c0.1-0.04,0.21-0.06,0.32-0.06h5
		c0.11,0,0.22,0.02,0.32,0.06c0.1,0.04,0.2,0.1,0.27,0.18c0.08,0.08,0.14,0.17,0.18,0.27c0.04,0.1,0.06,0.21,0.06,0.32v8.33
		c0,0.11,0.02,0.22,0.06,0.32c0.04,0.1,0.1,0.2,0.18,0.27c0.08,0.08,0.17,0.14,0.27,0.18s0.21,0.06,0.32,0.06h1.67
		c0.11,0,0.22-0.02,0.32-0.06s0.19-0.1,0.27-0.18c0.08-0.08,0.14-0.17,0.18-0.27c0.04-0.1,0.06-0.21,0.06-0.32v-11.7
		c0-0.11-0.02-0.22-0.06-0.32C354.88,342.08,354.82,341.99,354.74,341.91z"/>
	<path class="st2" d="M288.08,341.91c-0.08-0.08-0.17-0.14-0.27-0.18c-0.1-0.04-0.21-0.06-0.32-0.06h-1.67
		c-0.11,0-0.22,0.02-0.32,0.06c-0.1,0.04-0.19,0.11-0.27,0.18c-0.08,0.08-0.14,0.17-0.18,0.27s-0.06,0.21-0.06,0.32v8.33
		c0,0.11-0.02,0.22-0.06,0.32c-0.04,0.1-0.1,0.19-0.18,0.27c-0.08,0.08-0.17,0.14-0.27,0.18c-0.1,0.04-0.21,0.06-0.32,0.06h-5
		c-0.11,0-0.22-0.02-0.32-0.06c-0.1-0.04-0.2-0.1-0.27-0.18c-0.08-0.08-0.14-0.17-0.18-0.27c-0.04-0.1-0.06-0.21-0.06-0.32v-8.33
		c0-0.11-0.02-0.22-0.06-0.32c-0.04-0.1-0.1-0.2-0.18-0.27c-0.08-0.08-0.17-0.14-0.27-0.18c-0.1-0.04-0.21-0.06-0.32-0.06h-1.67
		c-0.11,0-0.22,0.02-0.32,0.06c-0.1,0.04-0.19,0.11-0.27,0.18c-0.08,0.08-0.14,0.17-0.18,0.27s-0.06,0.21-0.06,0.32v11.66
		c0,0.11,0.02,0.22,0.06,0.32s0.1,0.19,0.18,0.27c0.08,0.08,0.17,0.14,0.27,0.18c0.1,0.04,0.21,0.06,0.32,0.06h8.34
		c0.22,0,0.43,0.09,0.59,0.24c0.16,0.16,0.24,0.37,0.24,0.59s-0.09,0.43-0.24,0.59c-0.16,0.16-0.37,0.24-0.59,0.24h-5
		c-0.11,0-0.22,0.02-0.32,0.06s-0.2,0.1-0.27,0.18s-0.14,0.17-0.18,0.27c-0.04,0.1-0.06,0.21-0.06,0.32v1.66
		c0,0.11,0.02,0.22,0.06,0.32c0.04,0.1,0.1,0.2,0.18,0.27s0.17,0.14,0.27,0.18s0.21,0.06,0.32,0.06h8.33c0.11,0,0.22-0.02,0.32-0.06
		c0.1-0.04,0.19-0.1,0.27-0.18c0.08-0.08,0.14-0.17,0.18-0.27c0.04-0.1,0.06-0.21,0.06-0.32v-16.66c0-0.11-0.02-0.22-0.06-0.32
		C288.22,342.08,288.15,341.99,288.08,341.91z"/>
	<path class="st2" d="M304.74,341.91c-0.08-0.08-0.17-0.14-0.27-0.18s-0.21-0.06-0.32-0.06h-11.67c-0.11,0-0.22,0.02-0.32,0.06
		c-0.1,0.04-0.19,0.1-0.27,0.18c-0.08,0.08-0.14,0.17-0.18,0.27c-0.04,0.1-0.06,0.21-0.06,0.32v16.66c0,0.11,0.02,0.22,0.06,0.32
		c0.04,0.1,0.1,0.2,0.18,0.27c0.08,0.08,0.17,0.14,0.27,0.18c0.1,0.04,0.21,0.06,0.32,0.06h1.67c0.11,0,0.22-0.02,0.32-0.06
		s0.19-0.1,0.27-0.18c0.08-0.08,0.14-0.17,0.18-0.27c0.04-0.1,0.06-0.21,0.06-0.32v-3.33c0-0.11,0.02-0.22,0.06-0.32
		c0.04-0.1,0.1-0.19,0.18-0.27c0.08-0.08,0.17-0.14,0.27-0.18c0.1-0.04,0.21-0.06,0.32-0.06h8.34c0.11,0,0.22-0.02,0.32-0.06
		s0.19-0.1,0.27-0.18c0.08-0.08,0.14-0.17,0.18-0.27c0.04-0.1,0.06-0.21,0.06-0.32v-11.66c0-0.11-0.02-0.22-0.06-0.32
		C304.88,342.08,304.82,341.99,304.74,341.91z M301.65,350.84c0,0.11-0.02,0.22-0.06,0.32c-0.04,0.1-0.1,0.19-0.18,0.27
		c-0.08,0.08-0.17,0.14-0.28,0.18c-0.1,0.04-0.21,0.06-0.32,0.06h-5c-0.11,0-0.22-0.02-0.32-0.06c-0.1-0.04-0.19-0.1-0.27-0.18
		c-0.08-0.08-0.14-0.17-0.18-0.27c-0.04-0.1-0.06-0.21-0.06-0.32v-5c0-0.11,0.02-0.22,0.06-0.32c0.04-0.1,0.1-0.19,0.18-0.27
		c0.08-0.08,0.17-0.14,0.27-0.18c0.1-0.04,0.21-0.06,0.32-0.06h5c0.11,0,0.22,0.02,0.32,0.06c0.1,0.04,0.2,0.1,0.28,0.18
		c0.08,0.08,0.14,0.17,0.18,0.27c0.04,0.1,0.06,0.21,0.06,0.32V350.84z"/>
	<path class="st2" d="M329.97,96.59c0.28,0,0.57-0.05,0.83-0.16c0.26-0.11,0.5-0.27,0.7-0.47c0.2-0.2,0.36-0.44,0.47-0.7
		c0.11-0.26,0.16-0.54,0.16-0.83V81.49c0-0.28-0.05-0.56-0.16-0.82c-0.11-0.26-0.26-0.5-0.46-0.7c-0.2-0.2-0.43-0.36-0.7-0.47
		c-0.26-0.11-0.54-0.16-0.82-0.16h-4.31c-0.57,0-1.12,0.23-1.52,0.63c-0.4,0.4-0.63,0.95-0.63,1.52v4.31c0,0.28-0.05,0.57-0.16,0.83
		c-0.11,0.26-0.27,0.5-0.47,0.7c-0.2,0.2-0.44,0.36-0.7,0.47c-0.26,0.11-0.54,0.16-0.83,0.16h-4.31c-0.28,0-0.57-0.05-0.83-0.16
		c-0.26-0.11-0.5-0.27-0.7-0.47c-0.2-0.2-0.36-0.44-0.47-0.7c-0.11-0.26-0.16-0.54-0.16-0.83V64.24c0-0.28,0.05-0.57,0.16-0.83
		c0.11-0.26,0.27-0.5,0.47-0.7c0.2-0.2,0.44-0.36,0.7-0.47s0.54-0.16,0.83-0.16h1.25c0.42,0,0.84-0.12,1.2-0.36
		c0.35-0.24,0.63-0.57,0.79-0.97c0.16-0.39,0.2-0.83,0.11-1.24c-0.09-0.42-0.3-0.8-0.6-1.09l-7.68-7.76
		c-0.2-0.21-0.44-0.37-0.7-0.48c-0.26-0.11-0.55-0.17-0.83-0.17c-0.29,0-0.57,0.06-0.83,0.17c-0.26,0.11-0.5,0.27-0.7,0.48
		l-7.72,7.76c-0.3,0.3-0.51,0.68-0.59,1.09s-0.04,0.85,0.12,1.24c0.16,0.39,0.43,0.73,0.78,0.96c0.35,0.24,0.76,0.37,1.19,0.37h1.25
		c0.29,0,0.57,0.05,0.83,0.16s0.5,0.27,0.7,0.47c0.2,0.2,0.36,0.44,0.47,0.7c0.11,0.26,0.16,0.55,0.16,0.83v30.2
		c0,0.28,0.05,0.57,0.16,0.83c0.11,0.26,0.27,0.5,0.47,0.7c0.2,0.2,0.44,0.36,0.7,0.47c0.26,0.11,0.54,0.16,0.83,0.16H329.97z"/>
	<path class="st2" d="M324.14,70.08c0.2,0.2,0.44,0.36,0.7,0.47c0.26,0.11,0.54,0.16,0.83,0.16h4.31c0.28,0,0.57-0.05,0.83-0.16
		c0.26-0.11,0.5-0.27,0.7-0.47c0.2-0.2,0.36-0.44,0.47-0.7c0.11-0.26,0.16-0.54,0.16-0.83v-4.31c0-0.28,0.05-0.57,0.16-0.83
		c0.11-0.26,0.27-0.5,0.47-0.7c0.2-0.2,0.44-0.36,0.7-0.47c0.26-0.11,0.54-0.16,0.83-0.16h4.32c0.28,0,0.57,0.05,0.83,0.16
		c0.26,0.11,0.5,0.27,0.7,0.47c0.2,0.2,0.36,0.44,0.47,0.7c0.11,0.26,0.16,0.55,0.16,0.83v21.57c0,0.28-0.05,0.57-0.16,0.83
		c-0.11,0.26-0.27,0.5-0.47,0.7c-0.2,0.2-0.44,0.36-0.7,0.47c-0.26,0.11-0.54,0.16-0.83,0.16h-1.26c-0.42,0-0.84,0.13-1.2,0.36
		c-0.35,0.24-0.63,0.57-0.79,0.97c-0.16,0.39-0.2,0.83-0.11,1.24c0.09,0.42,0.3,0.8,0.6,1.1l7.73,7.72c0.2,0.2,0.44,0.37,0.7,0.48
		c0.26,0.11,0.55,0.17,0.83,0.17c0.29,0,0.57-0.06,0.83-0.17c0.26-0.11,0.5-0.28,0.7-0.48l7.72-7.72c0.3-0.3,0.5-0.69,0.58-1.1
		c0.08-0.42,0.04-0.85-0.12-1.24c-0.16-0.39-0.44-0.73-0.79-0.96c-0.35-0.24-0.77-0.36-1.19-0.36h-1.29c-0.28,0-0.57-0.05-0.83-0.16
		c-0.26-0.11-0.5-0.27-0.7-0.47c-0.2-0.2-0.36-0.44-0.47-0.7c-0.11-0.26-0.16-0.54-0.16-0.83V55.6c0-0.28-0.05-0.57-0.16-0.83
		c-0.11-0.26-0.27-0.5-0.47-0.7c-0.2-0.2-0.44-0.36-0.7-0.47c-0.26-0.11-0.55-0.16-0.83-0.16h-21.57c-0.28,0-0.57,0.05-0.83,0.16
		c-0.26,0.11-0.5,0.27-0.7,0.47c-0.2,0.2-0.36,0.44-0.47,0.7c-0.11,0.26-0.16,0.54-0.16,0.83v12.95c0,0.28,0.05,0.57,0.16,0.83
		C323.78,69.64,323.94,69.88,324.14,70.08z"/>
</g>
<text transform="matrix(1 0 0 1 73.6859 67.0002)" class="st2 st54 st55">886 USDC</text>
<text transform="matrix(0 -1 1 0 70.5179 356.7012)" class="st2 st54 st55">0.02%</text>
<line class="st3" x1="61.86" y1="267.12" x2="61.86" y2="114.71"/>
<text transform="matrix(1 0 0 1 79.9149 355.0007)" class="st2 st54 st56">ID: 28</text>
<g>
	<path class="st11" d="M60.19,67c4.71,0,8.5-3.79,8.5-8.5S64.9,50,60.19,50s-8.5,3.79-8.5,8.5S55.48,67,60.19,67z"/>
	<path class="st2" d="M62.52,59.85c0-1.24-0.74-1.66-2.23-1.84c-1.06-0.14-1.27-0.42-1.27-0.92c0-0.5,0.35-0.81,1.06-0.81
		c0.64,0,0.99,0.21,1.17,0.74c0.04,0.11,0.14,0.18,0.25,0.18h0.57c0.14,0,0.25-0.11,0.25-0.25v-0.04c-0.14-0.78-0.78-1.38-1.59-1.45
		V54.6c0-0.14-0.11-0.25-0.28-0.28H59.9c-0.14,0-0.25,0.11-0.28,0.28v0.81c-1.06,0.14-1.74,0.85-1.74,1.74
		c0,1.17,0.71,1.63,2.2,1.81c0.99,0.18,1.31,0.39,1.31,0.96c0,0.57-0.5,0.96-1.17,0.96c-0.92,0-1.24-0.39-1.35-0.92
		c-0.04-0.14-0.14-0.21-0.25-0.21h-0.6c-0.14,0-0.25,0.11-0.25,0.25v0.04c0.14,0.89,0.71,1.52,1.88,1.7v0.85
		c0,0.14,0.11,0.25,0.28,0.28h0.53c0.14,0,0.25-0.11,0.28-0.28v-0.85C61.81,61.55,62.52,60.8,62.52,59.85L62.52,59.85z"/>
	<path class="st2" d="M58.38,63.56c-2.76-0.99-4.18-4.07-3.15-6.8c0.53-1.49,1.7-2.62,3.15-3.15c0.14-0.07,0.21-0.18,0.21-0.35v-0.5
		c0-0.14-0.07-0.25-0.21-0.28c-0.04,0-0.11,0-0.14,0.04c-3.36,1.06-5.21,4.64-4.14,8c0.64,1.98,2.16,3.51,4.14,4.14
		c0.14,0.07,0.28,0,0.32-0.14c0.04-0.04,0.04-0.07,0.04-0.14v-0.5C58.59,63.78,58.49,63.64,58.38,63.56z M62.13,52.51
		c-0.14-0.07-0.28,0-0.32,0.14c-0.04,0.04-0.04,0.07-0.04,0.14v0.5c0,0.14,0.11,0.28,0.21,0.35c2.76,0.99,4.18,4.07,3.15,6.8
		c-0.53,1.49-1.7,2.62-3.15,3.15c-0.14,0.07-0.21,0.18-0.21,0.35v0.5c0,0.14,0.07,0.25,0.21,0.28c0.04,0,0.11,0,0.14-0.04
		c3.36-1.06,5.21-4.64,4.14-8C65.64,54.67,64.08,53.15,62.13,52.51L62.13,52.51z"/>
</g>
<g>
	<path class="st61" d="M136.03,77.23H56.69c-2.76,0-5,2.24-5,5v7.47c0,2.76,2.24,5,5,5h79.34c2.76,0,5-2.24,5-5v-7.47
		C141.03,79.47,138.79,77.23,136.03,77.23z"/>
	<text transform="matrix(1 0 0 1 56.6854 89.7064)" class="st2 st62 st63">ON OPTIMISM</text>
</g>
</svg>
