<?xml version="1.0" encoding="utf-8"?>
<!-- Generator: Adobe Illustrator 26.3.1, SVG Export Plug-In . SVG Version: 6.00 Build 0)  -->
<svg version="1.1" id="Layer_1" xmlns="http://www.w3.org/2000/svg" xmlns:xlink="http://www.w3.org/1999/xlink" x="0px" y="0px"
	 viewBox="0 0 405 405" style="enable-background:new 0 0 405 405;" xml:space="preserve">
<style type="text/css">
	.st0{fill:url(#SVGID_1_);}
	.st1{fill:url(#SVGID_00000124880051612567339290000010697688506723159476_);}
	.st2{fill:#FFFFFF;}
	.st3{fill:none;stroke:#FFFFFF;stroke-miterlimit:10;}
	.st4{fill-rule:evenodd;clip-rule:evenodd;fill:#50AF95;}
	.st5{fill-rule:evenodd;clip-rule:evenodd;fill:#FFFFFF;}
	.st6{fill:#8C8C8C;}
	.st7{fill:url(#SVGID_00000172420121383476884310000005702167494751921072_);}
	.st8{fill:url(#SVGID_00000026133856192289143720000003931149157088750238_);}
	.st9{fill:url(#SVGID_00000141450234331568675070000018005462057529679233_);}
	.st10{fill:url(#SVGID_00000081637649552689215900000000650728119330947238_);}
	.st11{fill:#2775CA;}
	.st12{fill:url(#SVGID_00000161606546729209160570000006681417814372611771_);}
	.st13{fill:url(#SVGID_00000067226032420630273450000004687080020471178895_);}
	.st14{fill-rule:evenodd;clip-rule:evenodd;fill:#627EEA;}
	.st15{fill:#FFFFFF;fill-opacity:0.602;}
	.st16{fill:#FFFFFF;fill-opacity:0.2;}
	.st17{fill:url(#SVGID_00000076603995709850906140000000276763901020742287_);}
	.st18{fill:url(#SVGID_00000039125159369416321140000011373382196257085850_);}
	.st19{fill:#8247E5;}
	.st20{fill:url(#SVGID_00000052825401793888234420000007346646201273710773_);}
	.st21{fill:url(#SVGID_00000070808967304169402050000003945693378408694433_);}
	.st22{fill:url(#SVGID_00000183946256652169006170000006860890977560699547_);}
	.st23{fill:url(#SVGID_00000019654202237644779960000011207830709338997899_);}
	.st24{fill:url(#SVGID_00000168100724863496579780000010717363778312676274_);}
	.st25{fill:url(#SVGID_00000045593487954803021710000012077984916258235056_);}
	.st26{fill:url(#SVGID_00000072958860955529019340000002626997477938486155_);}
	.st27{fill:url(#SVGID_00000121983625223810399100000018043710913373765299_);}
	.st28{fill:#E84142;}
	.st29{fill:url(#SVGID_00000103959813047333051280000009969748609666670997_);}
	.st30{fill:url(#SVGID_00000093145222475657486360000011187676285430549134_);}
	.st31{fill:url(#SVGID_00000152963823913352215150000010913730526954251420_);}
	.st32{fill:url(#SVGID_00000089542493639076755050000009776756334928112807_);}
	.st33{fill:url(#SVGID_00000059280379160371739800000002091813542263979432_);}
	.st34{fill:#D85111;}
	.st35{fill:url(#SVGID_00000023239124964959837360000016379876170583995817_);}
	.st36{fill:url(#SVGID_00000121240629434130051930000012207289335613648819_);}
	.st37{fill:url(#SVGID_00000065784681222207843110000016468662800332753595_);}
	.st38{fill:url(#SVGID_00000070833358089988351740000001397341307188981691_);}
	.st39{fill:url(#SVGID_00000096023758839226604210000003907320814666247854_);}
	.st40{fill:url(#SVGID_00000069375983386750672830000008299021651482447806_);}
	.st41{fill:url(#SVGID_00000031886241904229492090000014045997950735798711_);}
	.st42{fill:url(#SVGID_00000112624169977964187250000017850535686127893925_);}
	.st43{fill:url(#SVGID_00000083064669388179282300000017163477841011542422_);}
	.st44{fill:url(#SVGID_00000039826825229970245960000014915533443962106032_);}
	.st45{fill:url(#SVGID_00000078745614585685707030000013441023456132152711_);}
	.st46{fill:url(#SVGID_00000060000259183010099730000005129756347094443158_);}
	.st47{fill:#FAB600;}
	.st48{fill:url(#SVGID_00000097500336763887619880000004097368464192233856_);}
	.st49{fill:url(#SVGID_00000018214897108203134690000011241692640667908014_);}
	.st50{fill:url(#SVGID_00000065756493742035019270000007360295085629790399_);}
	.st51{fill:url(#SVGID_00000055697612327927909370000011736060037489522053_);}
	.st52{font-family:'Courier';}
	.st53{font-size:24px;}
	.st54{font-size:10px;}
	.st55{fill:url(#SVGID_00000139280850036467481570000009533241225077324468_);}
	.st56{fill:url(#SVGID_00000112611364565963785050000009049069300885226885_);}
	.st57{fill:url(#SVGID_00000105402790353972566500000005307354723389309337_);}
	.st58{fill:url(#SVGID_00000136373305937854877490000002827847332343511737_);}
	.st59{fill:url(#SVGID_00000160168429442967961660000016102259664503465387_);}
	.st60{fill:url(#SVGID_00000109013401497948061290000010805681648438772379_);}
	.st61{fill:#FF0000;}
	.st62{font-family:'Courier-Bold';}
	.st63{font-size:12px;}
	.st64{fill:url(#SVGID_00000173124956633683398680000006343823625450277517_);}
</style>
<radialGradient id="SVGID_1_" cx="5.5557" cy="-1415" r="1" gradientTransform="matrix(2.000000e-14 327.499 327.499 -2.000000e-14 463613.5938 -1819.4756)" gradientUnits="userSpaceOnUse">
	<stop  offset="0" style="stop-color:#FF0000"/>
	<stop  offset="1" style="stop-color:#000000"/>
</radialGradient>
<path class="st0" d="M30,0h345c16.57,0,30,13.43,30,30v345c0,16.57-13.43,30-30,30H30c-16.57,0-30-13.43-30-30V30
	C0,13.43,13.43,0,30,0z"/>
<radialGradient id="SVGID_00000052810431636550618490000011266454588971209908_" cx="6.7141" cy="-1415.0001" r="1" gradientTransform="matrix(1.700000e-14 270.995 167.538 -1.000000e-14 237268.7812 -1741.9756)" gradientUnits="userSpaceOnUse">
	<stop  offset="0" style="stop-color:#FFFFFF"/>
	<stop  offset="0.7107" style="stop-color:#50AF95"/>
	<stop  offset="1" style="stop-color:#000000;stop-opacity:0"/>
	<stop  offset="1" style="stop-color:#000000;stop-opacity:0"/>
</radialGradient>
<path style="fill:url(#SVGID_00000052810431636550618490000011266454588971209908_);" d="M214.93,95.88c-5.94-8.8-18.93-8.8-24.87,0
	c-43.56,64.49-70.9,107.33-70.9,149.07c0,45.6,37.28,82.55,83.33,82.55s83.33-36.95,83.33-82.55
	C285.83,203.21,258.49,160.37,214.93,95.88z"/>
<g>
	<path class="st2" d="M271.41,338.62c-0.08-0.08-0.17-0.14-0.27-0.18c-0.1-0.04-0.21-0.06-0.32-0.06h-1.66
		c-0.11,0-0.22,0.02-0.32,0.06c-0.1,0.04-0.19,0.1-0.27,0.18c-0.08,0.08-0.14,0.17-0.18,0.27c-0.04,0.1-0.06,0.21-0.06,0.32v5
		c0,0.11-0.02,0.22-0.06,0.32c-0.04,0.1-0.1,0.2-0.18,0.27c-0.08,0.08-0.17,0.14-0.27,0.18c-0.1,0.04-0.21,0.06-0.32,0.06h-8.33
		c-0.11,0-0.22-0.02-0.32-0.06s-0.2-0.1-0.27-0.18s-0.14-0.17-0.18-0.27c-0.04-0.1-0.06-0.21-0.06-0.32v-5
		c0-0.11-0.02-0.22-0.06-0.32c-0.04-0.1-0.1-0.19-0.18-0.27c-0.08-0.08-0.17-0.14-0.27-0.18c-0.1-0.04-0.21-0.06-0.32-0.06h-1.67
		c-0.22,0-0.43,0.09-0.59,0.24s-0.24,0.37-0.24,0.59v15c0,0.11,0.02,0.22,0.06,0.32c0.04,0.1,0.1,0.19,0.18,0.27
		c0.08,0.08,0.17,0.14,0.27,0.18c0.1,0.04,0.21,0.06,0.32,0.06h1.67c0.11,0,0.22-0.02,0.32-0.06c0.1-0.04,0.19-0.1,0.27-0.18
		c0.08-0.08,0.14-0.17,0.18-0.27c0.04-0.1,0.06-0.21,0.06-0.32v-5c0-0.11,0.02-0.22,0.06-0.32c0.04-0.1,0.1-0.19,0.18-0.27
		c0.08-0.08,0.17-0.14,0.27-0.18c0.1-0.04,0.21-0.06,0.32-0.06h8.33c0.11,0,0.22,0.02,0.32,0.06c0.1,0.04,0.19,0.1,0.27,0.18
		c0.08,0.08,0.14,0.17,0.18,0.27c0.04,0.1,0.06,0.21,0.06,0.32v5c0,0.11,0.02,0.22,0.06,0.32c0.04,0.1,0.1,0.2,0.18,0.27
		s0.17,0.14,0.27,0.18s0.21,0.06,0.32,0.06h1.66c0.11,0,0.22-0.02,0.32-0.06c0.1-0.04,0.2-0.1,0.27-0.18s0.14-0.17,0.18-0.27
		c0.04-0.1,0.06-0.21,0.06-0.32v-15c0-0.11-0.02-0.22-0.06-0.32C271.55,338.78,271.49,338.69,271.41,338.62z"/>
	<path class="st2" d="M321.41,341.91c-0.08-0.08-0.17-0.14-0.27-0.18c-0.1-0.04-0.21-0.06-0.32-0.06h-5.83v0.04h-2.5
		c-0.11,0-0.22-0.02-0.32-0.06c-0.1-0.04-0.19-0.1-0.27-0.18c-0.08-0.08-0.14-0.17-0.18-0.27c-0.04-0.1-0.06-0.21-0.06-0.32v-5
		c0-0.11-0.02-0.22-0.06-0.32c-0.04-0.1-0.1-0.19-0.18-0.27c-0.08-0.08-0.17-0.14-0.27-0.18c-0.1-0.04-0.21-0.06-0.32-0.06h-1.66
		c-0.11,0-0.22,0.02-0.32,0.06c-0.1,0.04-0.2,0.1-0.27,0.18c-0.08,0.08-0.14,0.17-0.18,0.27s-0.06,0.21-0.06,0.32v18.33
		c0,0.11,0.02,0.22,0.06,0.32c0.04,0.1,0.1,0.2,0.18,0.27c0.08,0.08,0.17,0.14,0.27,0.18c0.1,0.04,0.21,0.06,0.32,0.06h1.66
		c0.11,0,0.22-0.02,0.32-0.06c0.1-0.04,0.2-0.1,0.27-0.18c0.08-0.08,0.14-0.17,0.18-0.27c0.04-0.1,0.06-0.21,0.06-0.32v-8.33
		c0-0.11,0.02-0.22,0.06-0.32c0.04-0.1,0.1-0.19,0.18-0.27c0.08-0.08,0.17-0.14,0.27-0.18c0.1-0.04,0.21-0.06,0.32-0.06h5
		c0.11,0,0.22,0.02,0.32,0.06c0.1,0.04,0.19,0.1,0.27,0.18c0.08,0.08,0.14,0.17,0.18,0.27c0.04,0.1,0.06,0.21,0.06,0.32v8.33
		c0,0.11,0.02,0.22,0.06,0.32c0.04,0.1,0.1,0.2,0.18,0.27c0.08,0.08,0.17,0.14,0.27,0.18c0.1,0.04,0.21,0.06,0.32,0.06h1.66
		c0.11,0,0.22-0.02,0.32-0.06c0.1-0.04,0.2-0.1,0.27-0.18c0.08-0.08,0.14-0.17,0.18-0.27c0.04-0.1,0.06-0.21,0.06-0.32v-11.7
		c0-0.11-0.02-0.22-0.06-0.32C321.55,342.08,321.49,341.99,321.41,341.91z"/>
	<path class="st2" d="M338.08,341.91c-0.08-0.08-0.17-0.14-0.27-0.18c-0.1-0.04-0.21-0.06-0.32-0.06h-11.67
		c-0.11,0-0.22,0.02-0.32,0.06c-0.1,0.04-0.19,0.11-0.27,0.18c-0.08,0.08-0.14,0.17-0.18,0.27s-0.06,0.21-0.06,0.32v11.66
		c0,0.11,0.02,0.22,0.06,0.32s0.1,0.19,0.18,0.27c0.08,0.08,0.17,0.14,0.27,0.18c0.1,0.04,0.21,0.06,0.32,0.06h11.67
		c0.11,0,0.22-0.02,0.32-0.06c0.1-0.04,0.19-0.1,0.27-0.18c0.08-0.08,0.14-0.17,0.18-0.27c0.04-0.1,0.06-0.21,0.06-0.32v-1.66
		c0-0.11-0.02-0.22-0.06-0.32c-0.04-0.1-0.1-0.2-0.18-0.27c-0.08-0.08-0.17-0.14-0.27-0.18c-0.1-0.04-0.21-0.06-0.32-0.06h-8.33
		c-0.22,0-0.43-0.09-0.59-0.24c-0.16-0.16-0.24-0.37-0.24-0.59s0.09-0.43,0.24-0.59c0.16-0.16,0.37-0.24,0.59-0.24h8.33
		c0.11,0,0.22-0.02,0.32-0.06c0.1-0.04,0.19-0.1,0.27-0.18c0.08-0.08,0.14-0.17,0.18-0.27c0.04-0.1,0.06-0.21,0.06-0.32v-6.66
		c0-0.11-0.02-0.22-0.06-0.32C338.22,342.08,338.15,341.99,338.08,341.91z M334.92,346.15c-0.04,0.1-0.1,0.19-0.18,0.27
		c-0.08,0.08-0.17,0.14-0.27,0.18c-0.1,0.04-0.21,0.06-0.32,0.06h-5c-0.11,0-0.22-0.02-0.32-0.06c-0.1-0.04-0.19-0.1-0.27-0.18
		c-0.08-0.08-0.14-0.17-0.18-0.27c-0.04-0.1-0.06-0.21-0.06-0.32s0.02-0.22,0.06-0.32c0.04-0.1,0.1-0.19,0.18-0.27
		c0.08-0.08,0.17-0.14,0.27-0.18c0.1-0.04,0.21-0.06,0.32-0.06h5c0.11,0,0.22,0.02,0.32,0.06c0.1,0.04,0.19,0.1,0.27,0.18
		c0.08,0.08,0.14,0.17,0.18,0.27c0.04,0.1,0.06,0.21,0.06,0.32C334.98,345.94,334.96,346.05,334.92,346.15z"/>
	<path class="st2" d="M354.74,341.91c-0.08-0.08-0.17-0.14-0.27-0.18s-0.21-0.06-0.32-0.06l-2.5,0.04h-9.17
		c-0.11,0-0.22,0.02-0.32,0.06c-0.1,0.04-0.19,0.1-0.27,0.18c-0.08,0.08-0.14,0.17-0.18,0.27c-0.04,0.1-0.06,0.21-0.06,0.32v11.66
		c0,0.11,0.02,0.22,0.06,0.32c0.04,0.1,0.1,0.2,0.18,0.27c0.08,0.08,0.17,0.14,0.27,0.18s0.21,0.06,0.32,0.06h1.67
		c0.11,0,0.22-0.02,0.32-0.06s0.19-0.1,0.27-0.18c0.08-0.08,0.14-0.17,0.18-0.27c0.04-0.1,0.06-0.21,0.06-0.32v-8.33
		c0-0.11,0.02-0.22,0.06-0.32c0.04-0.1,0.1-0.19,0.18-0.27c0.08-0.08,0.17-0.14,0.27-0.18c0.1-0.04,0.21-0.06,0.32-0.06h5
		c0.11,0,0.22,0.02,0.32,0.06c0.1,0.04,0.2,0.1,0.27,0.18c0.08,0.08,0.14,0.17,0.18,0.27c0.04,0.1,0.06,0.21,0.06,0.32v8.33
		c0,0.11,0.02,0.22,0.06,0.32c0.04,0.1,0.1,0.2,0.18,0.27c0.08,0.08,0.17,0.14,0.27,0.18s0.21,0.06,0.32,0.06h1.67
		c0.11,0,0.22-0.02,0.32-0.06s0.19-0.1,0.27-0.18c0.08-0.08,0.14-0.17,0.18-0.27c0.04-0.1,0.06-0.21,0.06-0.32v-11.7
		c0-0.11-0.02-0.22-0.06-0.32C354.88,342.08,354.82,341.99,354.74,341.91z"/>
	<path class="st2" d="M288.08,341.91c-0.08-0.08-0.17-0.14-0.27-0.18c-0.1-0.04-0.21-0.06-0.32-0.06h-1.67
		c-0.11,0-0.22,0.02-0.32,0.06c-0.1,0.04-0.19,0.11-0.27,0.18c-0.08,0.08-0.14,0.17-0.18,0.27s-0.06,0.21-0.06,0.32v8.33
		c0,0.11-0.02,0.22-0.06,0.32c-0.04,0.1-0.1,0.19-0.18,0.27c-0.08,0.08-0.17,0.14-0.27,0.18c-0.1,0.04-0.21,0.06-0.32,0.06h-5
		c-0.11,0-0.22-0.02-0.32-0.06c-0.1-0.04-0.2-0.1-0.27-0.18c-0.08-0.08-0.14-0.17-0.18-0.27c-0.04-0.1-0.06-0.21-0.06-0.32v-8.33
		c0-0.11-0.02-0.22-0.06-0.32c-0.04-0.1-0.1-0.2-0.18-0.27c-0.08-0.08-0.17-0.14-0.27-0.18c-0.1-0.04-0.21-0.06-0.32-0.06h-1.67
		c-0.11,0-0.22,0.02-0.32,0.06c-0.1,0.04-0.19,0.11-0.27,0.18c-0.08,0.08-0.14,0.17-0.18,0.27s-0.06,0.21-0.06,0.32v11.66
		c0,0.11,0.02,0.22,0.06,0.32s0.1,0.19,0.18,0.27c0.08,0.08,0.17,0.14,0.27,0.18c0.1,0.04,0.21,0.06,0.32,0.06h8.34
		c0.22,0,0.43,0.09,0.59,0.24c0.16,0.16,0.24,0.37,0.24,0.59s-0.09,0.43-0.24,0.59c-0.16,0.16-0.37,0.24-0.59,0.24h-5
		c-0.11,0-0.22,0.02-0.32,0.06s-0.2,0.1-0.27,0.18s-0.14,0.17-0.18,0.27c-0.04,0.1-0.06,0.21-0.06,0.32v1.66
		c0,0.11,0.02,0.22,0.06,0.32c0.04,0.1,0.1,0.2,0.18,0.27s0.17,0.14,0.27,0.18s0.21,0.06,0.32,0.06h8.33c0.11,0,0.22-0.02,0.32-0.06
		c0.1-0.04,0.19-0.1,0.27-0.18c0.08-0.08,0.14-0.17,0.18-0.27c0.04-0.1,0.06-0.21,0.06-0.32v-16.66c0-0.11-0.02-0.22-0.06-0.32
		C288.22,342.08,288.15,341.99,288.08,341.91z"/>
	<path class="st2" d="M304.74,341.91c-0.08-0.08-0.17-0.14-0.27-0.18s-0.21-0.06-0.32-0.06h-11.67c-0.11,0-0.22,0.02-0.32,0.06
		c-0.1,0.04-0.19,0.1-0.27,0.18c-0.08,0.08-0.14,0.17-0.18,0.27c-0.04,0.1-0.06,0.21-0.06,0.32v16.66c0,0.11,0.02,0.22,0.06,0.32
		c0.04,0.1,0.1,0.2,0.18,0.27c0.08,0.08,0.17,0.14,0.27,0.18c0.1,0.04,0.21,0.06,0.32,0.06h1.67c0.11,0,0.22-0.02,0.32-0.06
		s0.19-0.1,0.27-0.18c0.08-0.08,0.14-0.17,0.18-0.27c0.04-0.1,0.06-0.21,0.06-0.32v-3.33c0-0.11,0.02-0.22,0.06-0.32
		c0.04-0.1,0.1-0.19,0.18-0.27c0.08-0.08,0.17-0.14,0.27-0.18c0.1-0.04,0.21-0.06,0.32-0.06h8.34c0.11,0,0.22-0.02,0.32-0.06
		s0.19-0.1,0.27-0.18c0.08-0.08,0.14-0.17,0.18-0.27c0.04-0.1,0.06-0.21,0.06-0.32v-11.66c0-0.11-0.02-0.22-0.06-0.32
		C304.88,342.08,304.82,341.99,304.74,341.91z M301.65,350.84c0,0.11-0.02,0.22-0.06,0.32c-0.04,0.1-0.1,0.19-0.18,0.27
		c-0.08,0.08-0.17,0.14-0.28,0.18c-0.1,0.04-0.21,0.06-0.32,0.06h-5c-0.11,0-0.22-0.02-0.32-0.06c-0.1-0.04-0.19-0.1-0.27-0.18
		c-0.08-0.08-0.14-0.17-0.18-0.27c-0.04-0.1-0.06-0.21-0.06-0.32v-5c0-0.11,0.02-0.22,0.06-0.32c0.04-0.1,0.1-0.19,0.18-0.27
		c0.08-0.08,0.17-0.14,0.27-0.18c0.1-0.04,0.21-0.06,0.32-0.06h5c0.11,0,0.22,0.02,0.32,0.06c0.1,0.04,0.2,0.1,0.28,0.18
		c0.08,0.08,0.14,0.17,0.18,0.27c0.04,0.1,0.06,0.21,0.06,0.32V350.84z"/>
	<path class="st2" d="M329.97,96.59c0.28,0,0.57-0.05,0.83-0.16c0.26-0.11,0.5-0.27,0.7-0.47c0.2-0.2,0.36-0.44,0.47-0.7
		c0.11-0.26,0.16-0.54,0.16-0.83V81.49c0-0.28-0.05-0.56-0.16-0.82c-0.11-0.26-0.26-0.5-0.46-0.7c-0.2-0.2-0.43-0.36-0.7-0.47
		c-0.26-0.11-0.54-0.16-0.82-0.16h-4.31c-0.57,0-1.12,0.23-1.52,0.63c-0.4,0.4-0.63,0.95-0.63,1.52v4.31c0,0.28-0.05,0.57-0.16,0.83
		c-0.11,0.26-0.27,0.5-0.47,0.7c-0.2,0.2-0.44,0.36-0.7,0.47c-0.26,0.11-0.54,0.16-0.83,0.16h-4.31c-0.28,0-0.57-0.05-0.83-0.16
		c-0.26-0.11-0.5-0.27-0.7-0.47c-0.2-0.2-0.36-0.44-0.47-0.7c-0.11-0.26-0.16-0.54-0.16-0.83V64.24c0-0.28,0.05-0.57,0.16-0.83
		c0.11-0.26,0.27-0.5,0.47-0.7c0.2-0.2,0.44-0.36,0.7-0.47s0.54-0.16,0.83-0.16h1.25c0.42,0,0.84-0.12,1.2-0.36
		c0.35-0.24,0.63-0.57,0.79-0.97c0.16-0.39,0.2-0.83,0.11-1.24c-0.09-0.42-0.3-0.8-0.6-1.09l-7.68-7.76
		c-0.2-0.21-0.44-0.37-0.7-0.48c-0.26-0.11-0.55-0.17-0.83-0.17c-0.29,0-0.57,0.06-0.83,0.17c-0.26,0.11-0.5,0.27-0.7,0.48
		l-7.72,7.76c-0.3,0.3-0.51,0.68-0.59,1.09s-0.04,0.85,0.12,1.24c0.16,0.39,0.43,0.73,0.78,0.96c0.35,0.24,0.76,0.37,1.19,0.37h1.25
		c0.29,0,0.57,0.05,0.83,0.16s0.5,0.27,0.7,0.47c0.2,0.2,0.36,0.44,0.47,0.7c0.11,0.26,0.16,0.55,0.16,0.83v30.2
		c0,0.28,0.05,0.57,0.16,0.83c0.11,0.26,0.27,0.5,0.47,0.7c0.2,0.2,0.44,0.36,0.7,0.47c0.26,0.11,0.54,0.16,0.83,0.16H329.97z"/>
	<path class="st2" d="M324.14,70.08c0.2,0.2,0.44,0.36,0.7,0.47c0.26,0.11,0.54,0.16,0.83,0.16h4.31c0.28,0,0.57-0.05,0.83-0.16
		c0.26-0.11,0.5-0.27,0.7-0.47c0.2-0.2,0.36-0.44,0.47-0.7c0.11-0.26,0.16-0.54,0.16-0.83v-4.31c0-0.28,0.05-0.57,0.16-0.83
		c0.11-0.26,0.27-0.5,0.47-0.7c0.2-0.2,0.44-0.36,0.7-0.47c0.26-0.11,0.54-0.16,0.83-0.16h4.32c0.28,0,0.57,0.05,0.83,0.16
		c0.26,0.11,0.5,0.27,0.7,0.47c0.2,0.2,0.36,0.44,0.47,0.7c0.11,0.26,0.16,0.55,0.16,0.83v21.57c0,0.28-0.05,0.57-0.16,0.83
		c-0.11,0.26-0.27,0.5-0.47,0.7c-0.2,0.2-0.44,0.36-0.7,0.47c-0.26,0.11-0.54,0.16-0.83,0.16h-1.26c-0.42,0-0.84,0.13-1.2,0.36
		c-0.35,0.24-0.63,0.57-0.79,0.97c-0.16,0.39-0.2,0.83-0.11,1.24c0.09,0.42,0.3,0.8,0.6,1.1l7.73,7.72c0.2,0.2,0.44,0.37,0.7,0.48
		c0.26,0.11,0.55,0.17,0.83,0.17c0.29,0,0.57-0.06,0.83-0.17c0.26-0.11,0.5-0.28,0.7-0.48l7.72-7.72c0.3-0.3,0.5-0.69,0.58-1.1
		c0.08-0.42,0.04-0.85-0.12-1.24c-0.16-0.39-0.44-0.73-0.79-0.96c-0.35-0.24-0.77-0.36-1.19-0.36h-1.29c-0.28,0-0.57-0.05-0.83-0.16
		c-0.26-0.11-0.5-0.27-0.7-0.47c-0.2-0.2-0.36-0.44-0.47-0.7c-0.11-0.26-0.16-0.54-0.16-0.83V55.6c0-0.28-0.05-0.57-0.16-0.83
		c-0.11-0.26-0.27-0.5-0.47-0.7c-0.2-0.2-0.44-0.36-0.7-0.47c-0.26-0.11-0.55-0.16-0.83-0.16h-21.57c-0.28,0-0.57,0.05-0.83,0.16
		c-0.26,0.11-0.5,0.27-0.7,0.47c-0.2,0.2-0.36,0.44-0.47,0.7c-0.11,0.26-0.16,0.54-0.16,0.83v12.95c0,0.28,0.05,0.57,0.16,0.83
		C323.78,69.64,323.94,69.88,324.14,70.08z"/>
</g>
<text transform="matrix(1 0 0 1 73.6859 67.0002)" class="st2 st52 st53">1881 USDT</text>
<text transform="matrix(0 -1 1 0 70.5179 356.7012)" class="st2 st52 st53">0.02%</text>
<line class="st3" x1="61.86" y1="267.12" x2="61.86" y2="114.71"/>
<text transform="matrix(1 0 0 1 79.9149 355.0007)" class="st2 st52 st54">ID: 27</text>
<g>
	<path class="st4" d="M54.8,51.18l-3.1,6.51c-0.02,0.05-0.01,0.11,0.03,0.15l8.37,8.02c0.05,0.05,0.13,0.05,0.18,0l8.37-8.02
		c0.04-0.04,0.05-0.1,0.03-0.15l-3.1-6.51c-0.02-0.04-0.07-0.07-0.11-0.07H54.91C54.86,51.1,54.82,51.13,54.8,51.18L54.8,51.18z"/>
	<path class="st5" d="M61.26,58.36L61.26,58.36c-0.06,0-0.37,0.02-1.06,0.02c-0.55,0-0.94-0.02-1.08-0.02l0,0
		c-2.13-0.09-3.72-0.46-3.72-0.91c0-0.44,1.59-0.81,3.72-0.91v1.45c0.14,0.01,0.54,0.03,1.09,0.03c0.66,0,0.99-0.03,1.05-0.03v-1.45
		c2.12,0.09,3.71,0.47,3.71,0.91S63.38,58.26,61.26,58.36L61.26,58.36L61.26,58.36z M61.26,56.39v-1.3h2.97v-1.98h-8.07v1.98h2.96
		v1.3c-2.41,0.11-4.22,0.59-4.22,1.16c0,0.57,1.81,1.05,4.22,1.16v4.15h2.14v-4.15c2.4-0.11,4.21-0.59,4.21-1.16
		S63.67,56.5,61.26,56.39L61.26,56.39L61.26,56.39z M61.26,56.39"/>
</g>
<g>
	<path class="st61" d="M136.03,77.23H56.69c-2.76,0-5,2.24-5,5v7.47c0,2.76,2.24,5,5,5h79.34c2.76,0,5-2.24,5-5v-7.47
		C141.03,79.47,138.79,77.23,136.03,77.23z"/>
	<text transform="matrix(1 0 0 1 56.6854 89.7064)" class="st2 st62 st63">ON OPTIMISM</text>
</g>
</svg>
