<svg version="1.1" id="prefix__Layer_1" xmlns="http://www.w3.org/2000/svg" xmlns:xlink="http://www.w3.org/1999/xlink" x="0" y="0" viewBox="0 0 405 405" xml:space="preserve"><style>.prefix__st2{fill:#fff}.prefix__st11{font-family:&apos;RobotoMono-Regular&apos;}.prefix__st12{font-size:24px}</style><defs><path id="prefix__SVGID_00000117646934474673963860000009039396287791343754_" d="M375 405H30c-16.57 0-30-13.43-30-30V30C0 13.43 13.43 0 30 0h345c16.57 0 30 13.43 30 30v345c0 16.57-13.43 30-30 30z"/></defs><clipPath id="prefix__SVGID_00000180333457868865780670000003168440461556241593_"><use xlink:href="#prefix__SVGID_00000117646934474673963860000009039396287791343754_" overflow="visible"/></clipPath><g clip-path="url(#prefix__SVGID_00000180333457868865780670000003168440461556241593_)"><image width="406" height="406" xlink:href="https://gateway.pinata.cloud/ipfs/QmdPNypRBQLCVJb7PXKrbNyp8RKKSDQEtLuGbkQyApRd1x" transform="translate(-.878 -.776)" overflow="visible"/><path d="M60.2 75.3c4.71 0 8.5-3.79 8.5-8.5s-3.79-8.5-8.5-8.5-8.5 3.79-8.5 8.5 3.79 8.5 8.5 8.5z" fill="#2775ca"/><path class="prefix__st2" d="M62.54 68.14c0-1.24-.74-1.66-2.23-1.84-1.06-.14-1.28-.43-1.28-.92s.35-.81 1.06-.81c.64 0 .99.21 1.17.74.04.11.14.18.25.18h.57c.14 0 .25-.11.25-.25v-.04c-.14-.78-.78-1.38-1.59-1.45v-.85c0-.14-.11-.25-.28-.28h-.53c-.14 0-.25.11-.28.28v.81c-1.06.14-1.74.85-1.74 1.74 0 1.17.71 1.63 2.2 1.81.99.18 1.31.39 1.31.96s-.5.96-1.17.96c-.92 0-1.24-.39-1.35-.92-.04-.14-.14-.21-.25-.21h-.6c-.14 0-.25.11-.25.25v.04c.14.89.71 1.52 1.88 1.7v.85c0 .14.11.25.28.28h.53c.14 0 .25-.11.28-.28v-.85c1.06-.2 1.77-.94 1.77-1.9z"/><path class="prefix__st2" d="M58.39 71.86c-2.76-.99-4.18-4.07-3.15-6.8.53-1.49 1.7-2.62 3.15-3.15.14-.07.21-.18.21-.35v-.5c0-.14-.07-.25-.21-.28-.04 0-.11 0-.14.04a6.354 6.354 0 00-4.14 8 6.364 6.364 0 004.14 4.14c.14.07.28 0 .32-.14.04-.04.04-.07.04-.14v-.5c0-.11-.11-.25-.22-.32zm3.76-11.05c-.14-.07-.28 0-.32.14-.04.04-.04.07-.04.14v.5c0 .14.11.28.21.35 2.76.99 4.18 4.07 3.15 6.8A5.225 5.225 0 0162 71.89c-.14.07-.21.18-.21.35v.5c0 .14.07.25.21.28.04 0 .11 0 .14-.04a6.354 6.354 0 004.14-8 6.415 6.415 0 00-4.13-4.17z"/><text transform="translate(73.699 75.296)" class="prefix__st2 prefix__st11 prefix__st12">886 USDC</text><text transform="rotate(-90 217.763 147.232)" class="prefix__st2 prefix__st11 prefix__st12">0.02%</text><path class="prefix__st2" d="M268.33 349.96v2.5c0 .47-.37.83-.83.83h-8.33c-.47 0-.83-.37-.83-.83v-5c0-.47-.37-.83-.83-.83h-1.67c-.47 0-.83.37-.83.83v14.99c0 .47.37.83.83.83h1.67c.47 0 .83-.37.83-.83v-5c0-.47.37-.83.83-.83h8.33c.47 0 .83.37.83.83v5c0 .47.37.83.83.83h1.67c.47 0 .83-.37.83-.83v-14.99c0-.47-.37-.83-.83-.83h-1.67c-.47 0-.83.37-.83.83v2.5zM315 349.96h-2.5c-.47 0-.83-.37-.83-.83v-5c0-.47-.37-.83-.83-.83h-1.67c-.47 0-.83.37-.83.83v18.32c0 .47.37.83.83.83h1.67c.47 0 .83-.37.83-.83v-8.33c0-.47.37-.83.83-.83h5c.47 0 .83.37.83.83v8.33c0 .47.37.83.83.83h1.67c.47 0 .83-.37.83-.83v-11.66c0-.47-.37-.83-.83-.83H315zM335 354.13c0 .47-.37.83-.83.83h-5c-.47 0-.83-.37-.83-.83 0-.47.37-.83.83-.83h5c.46 0 .83.36.83.83zm-3.33-4.17h-5.83c-.47 0-.83.37-.83.83v11.68c0 .47.37.83.83.83h11.66c.47 0 .83-.37.83-.83v-1.67c0-.47-.37-.83-.83-.83h-8.33c-.47 0-.83-.37-.83-.83 0-.47.37-.83.83-.83h8.33c.47 0 .83-.37.83-.83v-6.67c0-.47-.37-.83-.83-.83h-5.83zM351.67 349.96h-9.17c-.47 0-.83.37-.83.83v11.66c0 .47.37.83.83.83h1.67c.47 0 .83-.37.83-.83v-8.33c0-.47.37-.83.83-.83h5c.47 0 .83.37.83.83v8.33c0 .47.37.83.83.83h1.67c.47 0 .83-.37.83-.83v-11.66c0-.47-.37-.83-.83-.83h-2.49zM285 353.3v5.83c0 .47-.37.83-.83.83h-5c-.47 0-.83-.37-.83-.83v-8.33c0-.47-.37-.83-.83-.83h-1.67c-.47 0-.83.37-.83.83v11.66c0 .47.37.83.83.83h8.33c.47 0 .83.37.83.83 0 .47-.37.83-.83.83h-5c-.47 0-.83.37-.83.83v1.67c0 .47.37.83.83.83h8.33c.47 0 .83-.37.83-.83v-16.66c0-.47-.37-.83-.83-.83h-1.67c-.47 0-.83.37-.83.83v2.51zM301.67 356.63v2.5c0 .47-.37.83-.83.83h-5c-.47 0-.83-.37-.83-.83v-5c0-.47.37-.83.83-.83h5c.47 0 .83.37.83.83v2.5zm-3.34-6.67h-5.83c-.47 0-.83.37-.83.83v16.66c0 .47.37.83.83.83h1.67c.47 0 .83-.37.83-.83v-3.33c0-.47.37-.83.83-.83h8.33c.47 0 .83-.37.83-.83V350.8c0-.47-.37-.83-.83-.83h-5.83z"/><g><path class="prefix__st2" d="M206.79 219.47h-8.63c-2.33 0-4.31 1.9-4.31 4.31v8.63c0 2.42-1.9 4.31-4.31 4.31h-8.63c-2.42 0-4.31-1.9-4.31-4.31v-43.14c0-2.42 1.9-4.31 4.31-4.31h2.5c3.88 0 5.78-4.66 3.02-7.33l-15.36-15.53c-1.73-1.73-4.4-1.73-6.13 0l-15.44 15.53c-2.76 2.67-.78 7.33 3.02 7.33h2.5c2.42 0 4.31 1.9 4.31 4.31V249.67c0 2.42 1.9 4.31 4.31 4.31h43.14c2.42 0 4.31-1.9 4.31-4.31v-25.88c.01-2.42-1.88-4.32-4.3-4.32z"/><path class="prefix__st2" d="M252.52 236.72h-2.59c-2.42 0-4.31-1.9-4.31-4.31V172.01c0-2.42-1.9-4.31-4.31-4.31h-43.15c-2.42 0-4.31 1.9-4.31 4.31v25.88c0 2.42 1.9 4.31 4.31 4.31h8.63c2.42 0 4.31-1.9 4.31-4.31v-8.63c0-2.42 1.9-4.31 4.31-4.31h8.63c2.42 0 4.31 1.9 4.31 4.31v43.14c0 2.42-1.9 4.31-4.31 4.31h-2.5c-3.88 0-5.78 4.66-3.02 7.33l15.44 15.44c1.73 1.73 4.4 1.73 6.13 0l15.44-15.44c2.68-2.66.79-7.32-3.01-7.32z"/></g><g><path d="M142.07 85.53H56.7c-2.76 0-5 2.24-5 5V98c0 2.76 2.24 5 5 5h85.37c2.76 0 5-2.24 5-5v-7.47c0-2.76-2.24-5-5-5z" fill="#e84142"/><path class="prefix__st2" d="M63.51 94.27c0 .79-.15 1.47-.45 2.02-.3.56-.71.98-1.22 1.27-.52.3-1.09.44-1.74.44-.65 0-1.23-.15-1.74-.44s-.92-.72-1.22-1.27c-.3-.56-.45-1.23-.45-2.02s.15-1.47.45-2.02c.3-.56.7-.98 1.22-1.27s1.09-.44 1.74-.44c.64 0 1.22.15 1.73.44s.92.72 1.22 1.27c.31.55.46 1.22.46 2.02zm-1.56 0c0-.51-.08-.95-.23-1.3s-.37-.62-.64-.8c-.28-.18-.6-.27-.97-.27s-.7.09-.97.27c-.28.18-.49.45-.64.8-.15.35-.23.79-.23 1.3s.08.95.23 1.3c.15.35.37.62.64.8.28.18.6.27.97.27s.7-.09.97-.27c.28-.18.49-.45.64-.8.15-.36.23-.79.23-1.3zM71.33 90.63v7.27H70l-3.16-4.58h-.05v4.58h-1.54v-7.27h1.35l3.14 4.57h.06v-4.57h1.53zM77.37 97.9h-1.65l2.51-7.27h1.98l2.51 7.27h-1.65l-1.82-5.61h-.06l-1.82 5.61zm-.1-2.86h3.89v1.2h-3.89v-1.2zM84.61 90.63l1.76 5.53h.07l1.76-5.53h1.71L87.4 97.9h-1.98l-2.51-7.27h1.7zM91.66 97.9h-1.65l2.51-7.27h1.98l2.51 7.27h-1.65l-1.82-5.61h-.06l-1.82 5.61zm-.1-2.86h3.89v1.2h-3.89v-1.2zM98.48 97.9v-7.27h1.54v6.01h3.12v1.27h-4.66zM106.19 97.9h-1.65l2.51-7.27h1.98l2.51 7.27h-1.65l-1.82-5.61h-.06l-1.82 5.61zm-.1-2.86h3.89v1.2h-3.89v-1.2zM119.1 90.63v7.27h-1.33l-3.16-4.58h-.05v4.58h-1.54v-7.27h1.35l3.14 4.57h.06v-4.57h1.53zM127.39 93.18h-1.56c-.03-.2-.09-.38-.17-.54-.09-.16-.2-.29-.34-.4-.14-.11-.3-.2-.47-.26s-.37-.09-.58-.09c-.38 0-.7.09-.98.28-.28.19-.5.46-.65.81-.15.35-.23.78-.23 1.29 0 .52.08.95.23 1.31.16.35.37.62.65.8.28.18.6.27.97.27.21 0 .4-.03.57-.08.18-.05.33-.13.47-.24s.25-.23.34-.39.15-.32.19-.52l1.56.01c-.04.33-.14.65-.3.96s-.37.58-.64.83-.59.43-.96.58c-.37.14-.79.21-1.26.21-.65 0-1.23-.15-1.74-.44-.51-.29-.91-.72-1.21-1.27s-.44-1.23-.44-2.02.15-1.47.45-2.02c.3-.56.7-.98 1.21-1.27a3.45 3.45 0 011.73-.44c.42 0 .81.06 1.17.18.36.12.68.29.96.52s.51.5.68.83c.18.3.3.67.35 1.1zM129.09 97.9v-7.27h1.54v3h3.12v-3h1.53v7.27h-1.53v-3h-3.12v3h-1.54zM137.15 97.9v-7.27h4.9v1.27h-3.36v1.73h3.11v1.27h-3.11v1.74h3.38v1.27h-4.92z"/></g><path fill="none" stroke="#fff" stroke-miterlimit="10" d="M61.88 283.54V113"/><text transform="translate(79.928 363.297)" class="prefix__st2 prefix__st11" font-size="10">ID: 5481</text></g></svg>