<?xml version="1.0" encoding="utf-8"?>
<!-- Generator: Adobe Illustrator 26.0.3, SVG Export Plug-In . SVG Version: 6.00 Build 0)  -->
<svg version="1.1" id="Layer_1" xmlns="http://www.w3.org/2000/svg" xmlns:xlink="http://www.w3.org/1999/xlink" x="0px"
	y="0px" viewBox="0 0 405 405" style="enable-background:new 0 0 405 405;" xml:space="preserve">
	<style type="text/css">
		.st0 {
			clip-path: url(#SVGID_00000101817843708533927570000006347290150639402912_);
		}

		.st1 {
			fill: #2775CA;
		}

		.st2 {
			fill: #FFFFFF;
		}

		.st3 {
			fill: #8247E5;
		}

		.st4 {
			fill: none;
			stroke: #FFFFFF;
			stroke-miterlimit: 10;
		}

		.st5 {
			clip-path: url(#SVGID_00000062874429219578379230000015388363040452889525_);
		}

		.st6 {
			font-family: 'RobotoMono-Regular';
		}

		.st7 {
			font-size: 24px;
		}

		.st8 {
			fill-rule: evenodd;
			clip-rule: evenodd;
			fill: #627EEA;
		}

		.st9 {
			fill: #FFFFFF;
			fill-opacity: 0.602;
		}

		.st10 {
			fill: #FFFFFF;
			fill-opacity: 0.2;
		}

		.st11 {
			fill: #E84142;
		}

		.st12 {
			font-size: 10px;
		}

		.st13 {
			clip-path: url(#SVGID_00000103966184643734880710000011133126906987968429_);
		}

		.st14 {
			clip-path: url(#SVGID_00000028313465121993141250000009306159434790884502_);
		}

		.st15 {
			fill-rule: evenodd;
			clip-rule: evenodd;
			fill: #50AF95;
		}

		.st16 {
			fill-rule: evenodd;
			clip-rule: evenodd;
			fill: #FFFFFF;
		}

		.st17 {
			clip-path: url(#SVGID_00000154419665030484376530000010806461503752977047_);
		}

		.st18 {
			clip-path: url(#SVGID_00000020367443654461210330000005850253989155348406_);
		}

		.st19 {
			clip-path: url(#SVGID_00000118375492573068770860000005088688973145979778_);
		}

		.st20 {
			fill: #8C8C8C;
		}

		.st21 {
			clip-path: url(#SVGID_00000062190763792679790920000012652669236361534093_);
		}

		.st22 {
			clip-path: url(#SVGID_00000083081057982462326340000002020674103599847566_);
		}
	</style>
	<g>
		<defs>
			<path id="SVGID_00000114068311178381779470000017631392581551909536_" d="M375,405H30c-16.57,0-30-13.43-30-30V30
			C0,13.43,13.43,0,30,0h345c16.57,0,30,13.43,30,30v345C405,391.57,391.57,405,375,405z" />
		</defs>
		<clipPath id="SVGID_00000163047284314016193880000007400989658248649886_">
			<use xlink:href="#SVGID_00000114068311178381779470000017631392581551909536_" style="overflow:visible;" />
		</clipPath>
		<g style="clip-path:url(#SVGID_00000163047284314016193880000007400989658248649886_);">

			<image style="overflow:visible;" width="406" height="406"
				xlink:href="https://gateway.pinata.cloud/ipfs/QmNaYLPG4jZVy3nSXTyZcowhRsDa2Q1pTL5aVoXQvYed2z"
				transform="matrix(1 0 0 1 -0.8785 -0.7759)">
			</image>
			<text transform="matrix(1 0 0 1 73.699 75.2964)" class="st2 st6 st7">0.235 ETH</text>
			<text transform="matrix(0 -1 1 0 70.5311 364.9956)" class="st2 st6 st7">0.02%</text>
			<g>
				<g>
					<path class="st2" d="M268.33,349.96v2.5c0,0.47-0.37,0.83-0.83,0.83H265h-3.33h-2.5c-0.47,0-0.83-0.37-0.83-0.83v-2.5v-2.5
					c0-0.47-0.37-0.83-0.83-0.83h-1.67c-0.47,0-0.83,0.37-0.83,0.83v2.5v3.33v3.33v3.33v2.5c0,0.47,0.37,0.83,0.83,0.83h1.67
					c0.47,0,0.83-0.37,0.83-0.83v-2.5v-2.5c0-0.47,0.37-0.83,0.83-0.83h2.5H265h2.5c0.47,0,0.83,0.37,0.83,0.83v2.5v2.5
					c0,0.47,0.37,0.83,0.83,0.83h1.67c0.47,0,0.83-0.37,0.83-0.83v-2.5v-3.33v-3.33v-3.33v-2.5c0-0.47-0.37-0.83-0.83-0.83h-1.67
					c-0.47,0-0.83,0.37-0.83,0.83V349.96z" />
				</g>
				<g>
					<path class="st2" d="M315,349.96h-2.5c-0.47,0-0.83-0.37-0.83-0.83v-2.5v-2.5c0-0.47-0.37-0.83-0.83-0.83h-1.67
					c-0.47,0-0.83,0.37-0.83,0.83v2.5v3.33v3.33v3.33v3.33v2.5c0,0.47,0.37,0.83,0.83,0.83h1.67c0.47,0,0.83-0.37,0.83-0.83v-2.5
					v-3.33v-2.5c0-0.47,0.37-0.83,0.83-0.83h2.5h2.5c0.47,0,0.83,0.37,0.83,0.83v2.5v3.33v2.5c0,0.47,0.37,0.83,0.83,0.83h1.67
					c0.47,0,0.83-0.37,0.83-0.83v-2.5v-3.33v-3.33v-2.5c0-0.47-0.37-0.83-0.83-0.83h-2.5H315z" />
				</g>
				<g>
					<path class="st2" d="M335,354.13c0,0.47-0.37,0.83-0.83,0.83h-2.5h-2.5c-0.47,0-0.83-0.37-0.83-0.83c0-0.47,0.37-0.83,0.83-0.83
					h2.5h2.5C334.63,353.3,335,353.66,335,354.13z M331.67,349.96h-3.33h-2.5c-0.47,0-0.83,0.37-0.83,0.83v2.5v1.67v1.67v1.67v1.67
					v1.67v0.83c0,0.47,0.37,0.83,0.83,0.83h2.5h3.33H335h2.5c0.47,0,0.83-0.37,0.83-0.83v-1.67c0-0.47-0.37-0.83-0.83-0.83H335
					h-3.33h-2.5c-0.47,0-0.83-0.37-0.83-0.83c0-0.47,0.37-0.83,0.83-0.83h2.5H335h2.5c0.47,0,0.83-0.37,0.83-0.83v-0.83v-1.67v-1.67
					v-2.5c0-0.47-0.37-0.83-0.83-0.83H335H331.67z" />
				</g>
				<g>
					<path class="st2"
						d="M351.67,349.96h-3.33H345h-2.5c-0.47,0-0.83,0.37-0.83,0.83v2.5v3.33v3.33v2.5c0,0.47,0.37,0.83,0.83,0.83
					h1.67c0.47,0,0.83-0.37,0.83-0.83v-2.5v-3.33v-2.5c0-0.47,0.37-0.83,0.83-0.83h2.5h2.5c0.47,0,0.83,0.37,0.83,0.83v2.5v3.33v2.5
					c0,0.47,0.37,0.83,0.83,0.83h1.67c0.47,0,0.83-0.37,0.83-0.83v-2.5v-3.33v-3.33v-2.5c0-0.47-0.37-0.83-0.83-0.83H351.67z" />
				</g>
				<g>
					<path class="st2" d="M285,353.3v3.33v2.5c0,0.47-0.37,0.83-0.83,0.83h-2.5h-2.5c-0.47,0-0.83-0.37-0.83-0.83v-2.5v-3.33v-2.5
					c0-0.47-0.37-0.83-0.83-0.83h-1.67c-0.47,0-0.83,0.37-0.83,0.83v2.5v3.33v3.33v2.5c0,0.47,0.37,0.83,0.83,0.83h2.5h3.33h2.5
					c0.47,0,0.83,0.37,0.83,0.83c0,0.47-0.37,0.83-0.83,0.83h-2.5h-2.5c-0.47,0-0.83,0.37-0.83,0.83v1.67
					c0,0.47,0.37,0.83,0.83,0.83h2.5H285h2.5c0.47,0,0.83-0.37,0.83-0.83v-0.83v-1.67v-1.67v-3.33v-3.33v-3.33v-2.5
					c0-0.47-0.37-0.83-0.83-0.83h-1.67c-0.47,0-0.83,0.37-0.83,0.83V353.3z" />
				</g>
				<g>
					<path class="st2" d="M301.67,356.63v2.5c0,0.47-0.37,0.83-0.83,0.83h-2.5h-2.5c-0.47,0-0.83-0.37-0.83-0.83v-2.5v-2.5
					c0-0.47,0.37-0.83,0.83-0.83h2.5h2.5c0.47,0,0.83,0.37,0.83,0.83V356.63z M298.33,349.96H295h-2.5c-0.47,0-0.83,0.37-0.83,0.83
					v2.5v3.33v3.33v3.33v1.67v1.67v0.83c0,0.47,0.37,0.83,0.83,0.83h1.67c0.47,0,0.83-0.37,0.83-0.83v-0.83v-1.67v-0.83
					c0-0.47,0.37-0.83,0.83-0.83h2.5h3.33h2.5c0.47,0,0.83-0.37,0.83-0.83v-2.5v-3.33v-3.33v-2.5c0-0.47-0.37-0.83-0.83-0.83h-2.5
					H298.33z" />
				</g>
			</g>
			<g>
				<path class="st2" d="M206.79,219.47h-8.63c-2.33,0-4.31,1.9-4.31,4.31v8.63c0,2.42-1.9,4.31-4.31,4.31h-8.63
				c-2.42,0-4.31-1.9-4.31-4.31v-12.94v-17.26v-12.94c0-2.42,1.9-4.31,4.31-4.31h2.5c3.88,0,5.78-4.66,3.02-7.33l-15.36-15.53
				c-1.73-1.73-4.4-1.73-6.13,0l-15.44,15.53c-2.76,2.67-0.78,7.33,3.02,7.33h2.5c2.42,0,4.31,1.9,4.31,4.31v12.94v17.26v17.26
				v12.94c0,2.42,1.9,4.31,4.31,4.31h12.94h17.26h12.94c2.42,0,4.31-1.9,4.31-4.31v-12.94v-12.94
				C211.1,221.37,209.21,219.47,206.79,219.47z" />
				<path class="st2"
					d="M252.52,236.72h-2.59c-2.42,0-4.31-1.9-4.31-4.31v-12.94v-17.26v-17.26v-12.94c0-2.42-1.9-4.31-4.31-4.31
				h-12.94H211.1h-12.94c-2.42,0-4.31,1.9-4.31,4.31v12.94v12.94c0,2.42,1.9,4.31,4.31,4.31h8.63c2.42,0,4.31-1.9,4.31-4.31v-8.63
				c0-2.42,1.9-4.31,4.31-4.31h8.63c2.42,0,4.31,1.9,4.31,4.31v12.94v17.26v12.94c0,2.42-1.9,4.31-4.31,4.31h-2.5
				c-3.88,0-5.78,4.66-3.02,7.33l15.44,15.44c1.73,1.73,4.4,1.73,6.13,0l15.44-15.44C258.21,241.38,256.32,236.72,252.52,236.72z" />
			</g>
			<g>
				<circle class="st8" cx="60.2" cy="66.8" r="8.5" />
				<g>
					<path class="st9" d="M60.46,60.42v4.71l3.98,1.78L60.46,60.42z" />
					<path class="st2" d="M60.46,60.42l-3.98,6.49l3.98-1.78V60.42z" />
					<path class="st9" d="M60.46,69.97v3.2l3.99-5.51L60.46,69.97z" />
					<path class="st2" d="M60.46,73.17v-3.2l-3.98-2.31L60.46,73.17z" />
					<path class="st10" d="M60.46,69.23l3.98-2.31l-3.98-1.78V69.23z" />
					<path class="st9" d="M56.48,66.91l3.98,2.31v-4.09L56.48,66.91z" />
				</g>
			</g>
			<g>
				<path class="st11" d="M142.07,85.53H56.7c-2.76,0-5,2.24-5,5V98c0,2.76,2.24,5,5,5h85.37c2.76,0,5-2.24,5-5v-7.47
				C147.07,87.77,144.83,85.53,142.07,85.53z" />
				<g>
					<path class="st2" d="M63.51,94.27c0,0.79-0.15,1.47-0.45,2.02c-0.3,0.56-0.71,0.98-1.22,1.27C61.32,97.86,60.75,98,60.1,98
					c-0.65,0-1.23-0.15-1.74-0.44s-0.92-0.72-1.22-1.27c-0.3-0.56-0.45-1.23-0.45-2.02c0-0.79,0.15-1.47,0.45-2.02
					c0.3-0.56,0.7-0.98,1.22-1.27s1.09-0.44,1.74-0.44c0.64,0,1.22,0.15,1.73,0.44s0.92,0.72,1.22,1.27
					C63.36,92.8,63.51,93.47,63.51,94.27z M61.95,94.27c0-0.51-0.08-0.95-0.23-1.3s-0.37-0.62-0.64-0.8
					c-0.28-0.18-0.6-0.27-0.97-0.27c-0.37,0-0.7,0.09-0.97,0.27c-0.28,0.18-0.49,0.45-0.64,0.8c-0.15,0.35-0.23,0.79-0.23,1.3
					s0.08,0.95,0.23,1.3c0.15,0.35,0.37,0.62,0.64,0.8c0.28,0.18,0.6,0.27,0.97,0.27c0.37,0,0.7-0.09,0.97-0.27
					c0.28-0.18,0.49-0.45,0.64-0.8C61.87,95.21,61.95,94.78,61.95,94.27z" />
					<path class="st2"
						d="M71.33,90.63v7.27H70l-3.16-4.58h-0.05v4.58h-1.54v-7.27h1.35l3.14,4.57h0.06v-4.57H71.33z" />
					<path class="st2" d="M77.37,97.9h-1.65l2.51-7.27h1.98l2.51,7.27h-1.65l-1.82-5.61h-0.06L77.37,97.9z M77.27,95.04h3.89v1.2
					h-3.89V95.04z" />
					<path class="st2"
						d="M84.61,90.63l1.76,5.53h0.07l1.76-5.53h1.71l-2.51,7.27h-1.98l-2.51-7.27H84.61z" />
					<path class="st2" d="M91.66,97.9h-1.65l2.51-7.27h1.98l2.51,7.27h-1.65l-1.82-5.61h-0.06L91.66,97.9z M91.56,95.04h3.89v1.2
					h-3.89V95.04z" />
					<path class="st2" d="M98.48,97.9v-7.27h1.54v6.01h3.12v1.27H98.48z" />
					<path class="st2" d="M106.19,97.9h-1.65l2.51-7.27h1.98l2.51,7.27h-1.65l-1.82-5.61h-0.06L106.19,97.9z M106.09,95.04h3.89v1.2
					h-3.89V95.04z" />
					<path class="st2"
						d="M119.1,90.63v7.27h-1.33l-3.16-4.58h-0.05v4.58h-1.54v-7.27h1.35l3.14,4.57h0.06v-4.57H119.1z" />
					<path class="st2" d="M127.39,93.18h-1.56c-0.03-0.2-0.09-0.38-0.17-0.54c-0.09-0.16-0.2-0.29-0.34-0.4
					c-0.14-0.11-0.3-0.2-0.47-0.26s-0.37-0.09-0.58-0.09c-0.38,0-0.7,0.09-0.98,0.28c-0.28,0.19-0.5,0.46-0.65,0.81
					c-0.15,0.35-0.23,0.78-0.23,1.29c0,0.52,0.08,0.95,0.23,1.31c0.16,0.35,0.37,0.62,0.65,0.8c0.28,0.18,0.6,0.27,0.97,0.27
					c0.21,0,0.4-0.03,0.57-0.08c0.18-0.05,0.33-0.13,0.47-0.24s0.25-0.23,0.34-0.39s0.15-0.32,0.19-0.52l1.56,0.01
					c-0.04,0.33-0.14,0.65-0.3,0.96s-0.37,0.58-0.64,0.83s-0.59,0.43-0.96,0.58c-0.37,0.14-0.79,0.21-1.26,0.21
					c-0.65,0-1.23-0.15-1.74-0.44c-0.51-0.29-0.91-0.72-1.21-1.27s-0.44-1.23-0.44-2.02c0-0.79,0.15-1.47,0.45-2.02
					c0.3-0.56,0.7-0.98,1.21-1.27c0.51-0.29,1.09-0.44,1.73-0.44c0.42,0,0.81,0.06,1.17,0.18c0.36,0.12,0.68,0.29,0.96,0.52
					s0.51,0.5,0.68,0.83C127.22,92.38,127.34,92.75,127.39,93.18z" />
					<path class="st2" d="M129.09,97.9v-7.27h1.54v3h3.12v-3h1.53v7.27h-1.53v-3h-3.12v3H129.09z" />
					<path class="st2"
						d="M137.15,97.9v-7.27h4.9v1.27h-3.36v1.73h3.11v1.27h-3.11v1.74h3.38v1.27H137.15z" />
				</g>
			</g>
			<line class="st4" x1="61.88" y1="283.54" x2="61.88" y2="113" />
			<text transform="matrix(1 0 0 1 79.928 363.297)" class="st2 st6 st12">ID: 45786</text>
		</g>
	</g>
</svg>