<?xml version="1.0" encoding="utf-8"?>
<!-- Generator: Adobe Illustrator 26.0.3, SVG Export Plug-In . SVG Version: 6.00 Build 0)  -->
<svg version="1.1" id="Layer_1" xmlns="http://www.w3.org/2000/svg" xmlns:xlink="http://www.w3.org/1999/xlink" x="0px"
	y="0px" viewBox="0 0 405 405" style="enable-background:new 0 0 405 405;" xml:space="preserve">
	<style type="text/css">
		.st0 {
			clip-path: url(#SVGID_00000036220924006342813100000005997820307665223307_);
		}

		.st1 {
			fill: #2775CA;
		}

		.st2 {
			fill: #FFFFFF;
		}

		.st3 {
			fill: #8247E5;
		}

		.st4 {
			fill: none;
			stroke: #FFFFFF;
			stroke-miterlimit: 10;
		}

		.st5 {
			clip-path: url(#SVGID_00000087375279591786286760000011389950575480794241_);
		}

		.st6 {
			fill-rule: evenodd;
			clip-rule: evenodd;
			fill: #627EEA;
		}

		.st7 {
			fill: #FFFFFF;
			fill-opacity: 0.602;
		}

		.st8 {
			fill: #FFFFFF;
			fill-opacity: 0.2;
		}

		.st9 {
			fill: #E84142;
		}

		.st10 {
			clip-path: url(#SVGID_00000165201744242418959160000012871081717990945668_);
		}

		.st11 {
			clip-path: url(#SVGID_00000011009182922830884100000006844312483349639574_);
		}

		.st12 {
			fill-rule: evenodd;
			clip-rule: evenodd;
			fill: #50AF95;
		}

		.st13 {
			fill-rule: evenodd;
			clip-rule: evenodd;
			fill: #FFFFFF;
		}

		.st14 {
			clip-path: url(#SVGID_00000022550787753630557460000000561614820701896635_);
		}

		.st15 {
			clip-path: url(#SVGID_00000046314805590555138990000008895560396558338719_);
		}

		.st16 {
			clip-path: url(#SVGID_00000140015016414022994170000006171724785584354494_);
		}

		.st17 {
			font-family: 'RobotoMono-Regular';
		}

		.st18 {
			font-size: 24px;
		}

		.st19 {
			fill: #8C8C8C;
		}

		.st20 {
			font-size: 10px;
		}

		.st21 {
			clip-path: url(#SVGID_00000003787959700244216240000007511015648332255385_);
		}

		.st22 {
			clip-path: url(#SVGID_00000043426478665899132710000012699968528747391109_);
		}
	</style>
	<g>
		<defs>
			<path id="SVGID_00000150094310614228767190000014419101344661456035_" d="M375,405H30c-16.57,0-30-13.43-30-30V30
			C0,13.43,13.43,0,30,0h345c16.57,0,30,13.43,30,30v345C405,391.57,391.57,405,375,405z" />
		</defs>
		<clipPath id="SVGID_00000011030596315724573670000011324769926051918996_">
			<use xlink:href="#SVGID_00000150094310614228767190000014419101344661456035_" style="overflow:visible;" />
		</clipPath>
		<g style="clip-path:url(#SVGID_00000011030596315724573670000011324769926051918996_);">

			<image style="overflow:visible;" width="406" height="406"
				xlink:href="https://gateway.pinata.cloud/ipfs/QmXKVXRM3PJLo19v74f925Mj7eb1Q3hNbHKkqr1hhNrEfH"
				transform="matrix(1 0 0 1 -0.8785 -0.7759)">
			</image>
			<text transform="matrix(1 0 0 1 73.699 75.2965)" class="st2 st17 st18">0.235 ETH</text>
			<text transform="matrix(0 -1 1 0 70.5311 364.9956)" class="st2 st17 st18">0.02%</text>
			<g>
				<g>
					<path class="st2" d="M268.33,349.96v2.5c0,0.47-0.37,0.83-0.83,0.83H265h-3.33h-2.5c-0.47,0-0.83-0.37-0.83-0.83v-2.5v-2.5
					c0-0.47-0.37-0.83-0.83-0.83h-1.67c-0.47,0-0.83,0.37-0.83,0.83v2.5v3.33v3.33v3.33v2.5c0,0.47,0.37,0.83,0.83,0.83h1.67
					c0.47,0,0.83-0.37,0.83-0.83v-2.5v-2.5c0-0.47,0.37-0.83,0.83-0.83h2.5H265h2.5c0.47,0,0.83,0.37,0.83,0.83v2.5v2.5
					c0,0.47,0.37,0.83,0.83,0.83h1.67c0.47,0,0.83-0.37,0.83-0.83v-2.5v-3.33v-3.33v-3.33v-2.5c0-0.47-0.37-0.83-0.83-0.83h-1.67
					c-0.47,0-0.83,0.37-0.83,0.83V349.96z" />
				</g>
				<g>
					<path class="st2" d="M315,349.96h-2.5c-0.47,0-0.83-0.37-0.83-0.83v-2.5v-2.5c0-0.47-0.37-0.83-0.83-0.83h-1.67
					c-0.47,0-0.83,0.37-0.83,0.83v2.5v3.33v3.33v3.33v3.33v2.5c0,0.47,0.37,0.83,0.83,0.83h1.67c0.47,0,0.83-0.37,0.83-0.83v-2.5
					v-3.33v-2.5c0-0.47,0.37-0.83,0.83-0.83h2.5h2.5c0.47,0,0.83,0.37,0.83,0.83v2.5v3.33v2.5c0,0.47,0.37,0.83,0.83,0.83h1.67
					c0.47,0,0.83-0.37,0.83-0.83v-2.5v-3.33v-3.33v-2.5c0-0.47-0.37-0.83-0.83-0.83h-2.5H315z" />
				</g>
				<g>
					<path class="st2" d="M335,354.13c0,0.47-0.37,0.83-0.83,0.83h-2.5h-2.5c-0.47,0-0.83-0.37-0.83-0.83c0-0.47,0.37-0.83,0.83-0.83
					h2.5h2.5C334.63,353.3,335,353.66,335,354.13z M331.67,349.96h-3.33h-2.5c-0.47,0-0.83,0.37-0.83,0.83v2.5v1.67v1.67v1.67v1.67
					v1.67v0.83c0,0.47,0.37,0.83,0.83,0.83h2.5h3.33H335h2.5c0.47,0,0.83-0.37,0.83-0.83v-1.67c0-0.47-0.37-0.83-0.83-0.83H335
					h-3.33h-2.5c-0.47,0-0.83-0.37-0.83-0.83c0-0.47,0.37-0.83,0.83-0.83h2.5H335h2.5c0.47,0,0.83-0.37,0.83-0.83v-0.83v-1.67v-1.67
					v-2.5c0-0.47-0.37-0.83-0.83-0.83H335H331.67z" />
				</g>
				<g>
					<path class="st2"
						d="M351.67,349.96h-3.33H345h-2.5c-0.47,0-0.83,0.37-0.83,0.83v2.5v3.33v3.33v2.5c0,0.47,0.37,0.83,0.83,0.83
					h1.67c0.47,0,0.83-0.37,0.83-0.83v-2.5v-3.33v-2.5c0-0.47,0.37-0.83,0.83-0.83h2.5h2.5c0.47,0,0.83,0.37,0.83,0.83v2.5v3.33v2.5
					c0,0.47,0.37,0.83,0.83,0.83h1.67c0.47,0,0.83-0.37,0.83-0.83v-2.5v-3.33v-3.33v-2.5c0-0.47-0.37-0.83-0.83-0.83H351.67z" />
				</g>
				<g>
					<path class="st2" d="M285,353.3v3.33v2.5c0,0.47-0.37,0.83-0.83,0.83h-2.5h-2.5c-0.47,0-0.83-0.37-0.83-0.83v-2.5v-3.33v-2.5
					c0-0.47-0.37-0.83-0.83-0.83h-1.67c-0.47,0-0.83,0.37-0.83,0.83v2.5v3.33v3.33v2.5c0,0.47,0.37,0.83,0.83,0.83h2.5h3.33h2.5
					c0.47,0,0.83,0.37,0.83,0.83c0,0.47-0.37,0.83-0.83,0.83h-2.5h-2.5c-0.47,0-0.83,0.37-0.83,0.83v1.67
					c0,0.47,0.37,0.83,0.83,0.83h2.5H285h2.5c0.47,0,0.83-0.37,0.83-0.83v-0.83v-1.67v-1.67v-3.33v-3.33v-3.33v-2.5
					c0-0.47-0.37-0.83-0.83-0.83h-1.67c-0.47,0-0.83,0.37-0.83,0.83V353.3z" />
				</g>
				<g>
					<path class="st2" d="M301.67,356.63v2.5c0,0.47-0.37,0.83-0.83,0.83h-2.5h-2.5c-0.47,0-0.83-0.37-0.83-0.83v-2.5v-2.5
					c0-0.47,0.37-0.83,0.83-0.83h2.5h2.5c0.47,0,0.83,0.37,0.83,0.83V356.63z M298.33,349.96H295h-2.5c-0.47,0-0.83,0.37-0.83,0.83
					v2.5v3.33v3.33v3.33v1.67v1.67v0.83c0,0.47,0.37,0.83,0.83,0.83h1.67c0.47,0,0.83-0.37,0.83-0.83v-0.83v-1.67v-0.83
					c0-0.47,0.37-0.83,0.83-0.83h2.5h3.33h2.5c0.47,0,0.83-0.37,0.83-0.83v-2.5v-3.33v-3.33v-2.5c0-0.47-0.37-0.83-0.83-0.83h-2.5
					H298.33z" />
				</g>
			</g>
			<g>
				<path class="st2" d="M206.79,219.47h-8.63c-2.33,0-4.31,1.9-4.31,4.31v8.63c0,2.42-1.9,4.31-4.31,4.31h-8.63
				c-2.42,0-4.31-1.9-4.31-4.31v-12.94v-17.26v-12.94c0-2.42,1.9-4.31,4.31-4.31h2.5c3.88,0,5.78-4.66,3.02-7.33l-15.36-15.53
				c-1.73-1.73-4.4-1.73-6.13,0l-15.44,15.53c-2.76,2.67-0.78,7.33,3.02,7.33h2.5c2.42,0,4.31,1.9,4.31,4.31v12.94v17.26v17.26
				v12.94c0,2.42,1.9,4.31,4.31,4.31h12.94h17.26h12.94c2.42,0,4.31-1.9,4.31-4.31v-12.94v-12.94
				C211.1,221.37,209.21,219.47,206.79,219.47z" />
				<path class="st2"
					d="M252.52,236.72h-2.59c-2.42,0-4.31-1.9-4.31-4.31v-12.94v-17.26v-17.26v-12.94c0-2.42-1.9-4.31-4.31-4.31
				h-12.94H211.1h-12.94c-2.42,0-4.31,1.9-4.31,4.31v12.94v12.94c0,2.42,1.9,4.31,4.31,4.31h8.63c2.42,0,4.31-1.9,4.31-4.31v-8.63
				c0-2.42,1.9-4.31,4.31-4.31h8.63c2.42,0,4.31,1.9,4.31,4.31v12.94v17.26v12.94c0,2.42-1.9,4.31-4.31,4.31h-2.5
				c-3.88,0-5.78,4.66-3.02,7.33l15.44,15.44c1.73,1.73,4.4,1.73,6.13,0l15.44-15.44C258.21,241.38,256.32,236.72,252.52,236.72z" />
			</g>
			<g>
				<circle class="st6" cx="60.2" cy="66.8" r="8.5" />
				<g>
					<path class="st7" d="M60.46,60.42v4.71l3.98,1.78L60.46,60.42z" />
					<path class="st2" d="M60.46,60.42l-3.98,6.49l3.98-1.78V60.42z" />
					<path class="st7" d="M60.46,69.97v3.2l3.99-5.51L60.46,69.97z" />
					<path class="st2" d="M60.46,73.17v-3.2l-3.98-2.31L60.46,73.17z" />
					<path class="st8" d="M60.46,69.23l3.98-2.31l-3.98-1.78V69.23z" />
					<path class="st7" d="M56.48,66.91l3.98,2.31v-4.09L56.48,66.91z" />
				</g>
			</g>
			<g>
				<path class="st19" d="M134.68,85.53H56.7c-2.76,0-5,2.24-5,5V98c0,2.76,2.24,5,5,5h77.98c2.76,0,5-2.24,5-5v-7.47
				C139.68,87.77,137.44,85.53,134.68,85.53z" />
				<g>
					<path class="st2" d="M63.51,94.27c0,0.79-0.15,1.47-0.45,2.02c-0.3,0.56-0.71,0.98-1.22,1.27S60.75,98,60.1,98
					c-0.65,0-1.23-0.15-1.74-0.44c-0.51-0.29-0.92-0.72-1.22-1.27c-0.3-0.56-0.45-1.23-0.45-2.02c0-0.79,0.15-1.47,0.45-2.02
					c0.3-0.56,0.7-0.98,1.22-1.27c0.51-0.29,1.09-0.44,1.74-0.44c0.64,0,1.22,0.15,1.73,0.44c0.51,0.29,0.92,0.72,1.22,1.27
					S63.51,93.47,63.51,94.27z M61.95,94.27c0-0.51-0.08-0.95-0.23-1.3s-0.37-0.62-0.64-0.8s-0.6-0.27-0.97-0.27
					c-0.37,0-0.7,0.09-0.97,0.27c-0.28,0.18-0.49,0.45-0.64,0.8c-0.15,0.35-0.23,0.79-0.23,1.3s0.08,0.95,0.23,1.3
					c0.15,0.35,0.37,0.62,0.64,0.8c0.28,0.18,0.6,0.27,0.97,0.27c0.37,0,0.7-0.09,0.97-0.27c0.28-0.18,0.49-0.45,0.64-0.8
					C61.87,95.21,61.95,94.78,61.95,94.27z" />
					<path class="st2"
						d="M71.33,90.63v7.27H70l-3.16-4.58h-0.05v4.58h-1.54v-7.27h1.35l3.14,4.57h0.06v-4.57H71.33z" />
					<path class="st2" d="M76.12,97.9v-7.27h4.9v1.27h-3.36v1.73h3.11v1.27h-3.11v1.74h3.38v1.27H76.12z" />
					<path class="st2" d="M82.56,91.9v-1.27h5.97v1.27h-2.23v6h-1.52v-6H82.56z" />
					<path class="st2" d="M90.12,97.9v-7.27h1.54v3h3.12v-3h1.53v7.27h-1.53v-3h-3.12v3H90.12z" />
					<path class="st2" d="M98.19,97.9v-7.27h4.9v1.27h-3.36v1.73h3.11v1.27h-3.11v1.74h3.38v1.27H98.19z" />
					<path class="st2" d="M104.91,97.9v-7.27h2.87c0.55,0,1.02,0.1,1.41,0.29s0.69,0.47,0.89,0.83s0.31,0.78,0.31,1.26
					c0,0.48-0.1,0.9-0.31,1.24c-0.21,0.35-0.51,0.61-0.9,0.8s-0.87,0.28-1.43,0.28h-1.92v-1.24h1.67c0.29,0,0.54-0.04,0.73-0.12
					c0.19-0.08,0.34-0.2,0.43-0.36c0.1-0.16,0.14-0.36,0.14-0.6c0-0.24-0.05-0.45-0.14-0.61c-0.1-0.17-0.24-0.29-0.44-0.38
					s-0.44-0.13-0.74-0.13h-1.04v6.02H104.91z M108.84,94.59l1.81,3.31h-1.7l-1.77-3.31H108.84z" />
					<path class="st2"
						d="M112.07,97.9v-7.27h4.9v1.27h-3.36v1.73h3.11v1.27h-3.11v1.74h3.38v1.27H112.07z" />
					<path class="st2" d="M123.29,90.63h1.54v4.72c0,0.53-0.13,1-0.38,1.39c-0.25,0.4-0.6,0.71-1.06,0.93
					c-0.45,0.22-0.98,0.33-1.58,0.33c-0.6,0-1.13-0.11-1.58-0.33c-0.45-0.22-0.8-0.53-1.05-0.93s-0.38-0.86-0.38-1.39v-4.72h1.54
					v4.59c0,0.28,0.06,0.52,0.18,0.74c0.12,0.22,0.29,0.38,0.52,0.51s0.48,0.18,0.78,0.18c0.3,0,0.56-0.06,0.78-0.18
					c0.22-0.12,0.39-0.29,0.51-0.51c0.12-0.21,0.18-0.46,0.18-0.74V90.63z" />
					<path class="st2" d="M126.69,90.63h1.9l2,4.89h0.08l2-4.89h1.9v7.27h-1.49v-4.73h-0.06l-1.88,4.7h-1.02l-1.88-4.72h-0.06v4.75
					h-1.49V90.63z" />
				</g>
			</g>
			<line class="st4" x1="61.88" y1="283.54" x2="61.88" y2="113" />
			<text transform="matrix(1 0 0 1 79.928 363.297)" class="st2 st17 st20">ID: 45786</text>
		</g>
	</g>
</svg>