<svg version="1.1" id="prefix__Layer_1" xmlns="http://www.w3.org/2000/svg" xmlns:xlink="http://www.w3.org/1999/xlink" x="0" y="0" viewBox="0 0 405 405" xml:space="preserve"><style>.prefix__st2{fill:#fff}.prefix__st20{font-family:&apos;RobotoMono-Regular&apos;}.prefix__st21{font-size:24px}</style><defs><path id="prefix__SVGID_00000053510234492796431770000008545740331449511063_" d="M375 405H30c-16.57 0-30-13.43-30-30V30C0 13.43 13.43 0 30 0h345c16.57 0 30 13.43 30 30v345c0 16.57-13.43 30-30 30z"/></defs><clipPath id="prefix__SVGID_00000043448798262752601680000000411995869073405621_"><use xlink:href="#prefix__SVGID_00000053510234492796431770000008545740331449511063_" overflow="visible"/></clipPath><g clip-path="url(#prefix__SVGID_00000043448798262752601680000000411995869073405621_)"><image width="406" height="406" xlink:href="https://gateway.pinata.cloud/ipfs/QmVUkGnfPacUJDDVw64iuj1v5YZP8YyjRBg5xTeVrTya9m" transform="translate(-.878 -.776)" overflow="visible"/><text transform="translate(73.7 75.296)" class="prefix__st2 prefix__st20 prefix__st21">1881 USDT</text><text transform="rotate(-90 217.763 147.232)" class="prefix__st2 prefix__st20 prefix__st21">0.02%</text><path class="prefix__st2" d="M268.33 349.96v2.5c0 .47-.37.83-.83.83h-8.33c-.47 0-.83-.37-.83-.83v-5c0-.47-.37-.83-.83-.83h-1.67c-.47 0-.83.37-.83.83v14.99c0 .47.37.83.83.83h1.67c.47 0 .83-.37.83-.83v-5c0-.47.37-.83.83-.83h8.33c.47 0 .83.37.83.83v5c0 .47.37.83.83.83h1.67c.47 0 .83-.37.83-.83v-14.99c0-.47-.37-.83-.83-.83h-1.67c-.47 0-.83.37-.83.83v2.5zM315 349.96h-2.5c-.47 0-.83-.37-.83-.83v-5c0-.47-.37-.83-.83-.83h-1.67c-.47 0-.83.37-.83.83v18.32c0 .47.37.83.83.83h1.67c.47 0 .83-.37.83-.83v-8.33c0-.47.37-.83.83-.83h5c.47 0 .83.37.83.83v8.33c0 .47.37.83.83.83h1.67c.47 0 .83-.37.83-.83v-11.66c0-.47-.37-.83-.83-.83H315zM335 354.13c0 .47-.37.83-.83.83h-5c-.47 0-.83-.37-.83-.83 0-.47.37-.83.83-.83h5c.46 0 .83.36.83.83zm-3.33-4.17h-5.83c-.47 0-.83.37-.83.83v11.68c0 .47.37.83.83.83h11.66c.47 0 .83-.37.83-.83v-1.67c0-.47-.37-.83-.83-.83h-8.33c-.47 0-.83-.37-.83-.83 0-.47.37-.83.83-.83h8.33c.47 0 .83-.37.83-.83v-6.67c0-.47-.37-.83-.83-.83h-5.83zM351.67 349.96h-9.17c-.47 0-.83.37-.83.83v11.66c0 .47.37.83.83.83h1.67c.47 0 .83-.37.83-.83v-8.33c0-.47.37-.83.83-.83h5c.47 0 .83.37.83.83v8.33c0 .47.37.83.83.83h1.67c.47 0 .83-.37.83-.83v-11.66c0-.47-.37-.83-.83-.83h-2.49zM285 353.3v5.83c0 .47-.37.83-.83.83h-5c-.47 0-.83-.37-.83-.83v-8.33c0-.47-.37-.83-.83-.83h-1.67c-.47 0-.83.37-.83.83v11.66c0 .47.37.83.83.83h8.33c.47 0 .83.37.83.83 0 .47-.37.83-.83.83h-5c-.47 0-.83.37-.83.83v1.67c0 .47.37.83.83.83h8.33c.47 0 .83-.37.83-.83v-16.66c0-.47-.37-.83-.83-.83h-1.67c-.47 0-.83.37-.83.83v2.51zM301.67 356.63v2.5c0 .47-.37.83-.83.83h-5c-.47 0-.83-.37-.83-.83v-5c0-.47.37-.83.83-.83h5c.47 0 .83.37.83.83v2.5zm-3.34-6.67h-5.83c-.47 0-.83.37-.83.83v16.66c0 .47.37.83.83.83h1.67c.47 0 .83-.37.83-.83v-3.33c0-.47.37-.83.83-.83h8.33c.47 0 .83-.37.83-.83V350.8c0-.47-.37-.83-.83-.83h-5.83z"/><g><path class="prefix__st2" d="M206.79 219.47h-8.63c-2.33 0-4.31 1.9-4.31 4.31v8.63c0 2.42-1.9 4.31-4.31 4.31h-8.63c-2.42 0-4.31-1.9-4.31-4.31v-43.14c0-2.42 1.9-4.31 4.31-4.31h2.5c3.88 0 5.78-4.66 3.02-7.33l-15.36-15.53c-1.73-1.73-4.4-1.73-6.13 0l-15.44 15.53c-2.76 2.67-.78 7.33 3.02 7.33h2.5c2.42 0 4.31 1.9 4.31 4.31V249.67c0 2.42 1.9 4.31 4.31 4.31h43.14c2.42 0 4.31-1.9 4.31-4.31v-25.88c.01-2.42-1.88-4.32-4.3-4.32z"/><path class="prefix__st2" d="M252.52 236.72h-2.59c-2.42 0-4.31-1.9-4.31-4.31V172.01c0-2.42-1.9-4.31-4.31-4.31h-43.15c-2.42 0-4.31 1.9-4.31 4.31v25.88c0 2.42 1.9 4.31 4.31 4.31h8.63c2.42 0 4.31-1.9 4.31-4.31v-8.63c0-2.42 1.9-4.31 4.31-4.31h8.63c2.42 0 4.31 1.9 4.31 4.31v43.14c0 2.42-1.9 4.31-4.31 4.31h-2.5c-3.88 0-5.78 4.66-3.02 7.33l15.44 15.44c1.73 1.73 4.4 1.73 6.13 0l15.44-15.44c2.68-2.66.79-7.32-3.01-7.32z"/></g><path fill="none" stroke="#fff" stroke-miterlimit="10" d="M61.88 283.54V113"/><text transform="translate(79.928 363.297)" class="prefix__st2 prefix__st20" font-size="10">ID: 27</text><g fill-rule="evenodd" clip-rule="evenodd"><path d="M54.81 59.47l-3.1 6.51a.14.14 0 00.03.15l8.37 8.02c.05.05.13.05.18 0l8.37-8.02c.04-.04.05-.1.03-.15l-3.1-6.51a.136.136 0 00-.11-.07H54.93c-.05 0-.1.03-.12.07z" fill="#50af95"/><path d="M61.27 66.65c-.06 0-.37.02-1.06.02-.55 0-.94-.02-1.08-.02-2.13-.09-3.72-.46-3.72-.91s1.59-.81 3.72-.91v1.45c.14.01.54.03 1.09.03.66 0 .99-.03 1.05-.03v-1.45c2.12.09 3.71.47 3.71.91s-1.58.82-3.71.91zm0-1.96v-1.3h2.97v-1.98h-8.07v1.98h2.96v1.3c-2.41.11-4.22.59-4.22 1.16s1.81 1.05 4.22 1.16v4.15h2.14v-4.15c2.4-.11 4.21-.59 4.21-1.16s-1.8-1.05-4.21-1.16zm0 0" fill="#fff"/></g><g><path d="M134.68 85.53H56.7c-2.76 0-5 2.24-5 5V98c0 2.76 2.24 5 5 5h77.98c2.76 0 5-2.24 5-5v-7.47c0-2.76-2.24-5-5-5z" fill="#8c8c8c"/><path class="prefix__st2" d="M63.51 94.27c0 .79-.15 1.47-.45 2.02-.3.56-.71.98-1.22 1.27s-1.09.44-1.74.44c-.65 0-1.23-.15-1.74-.44a3.18 3.18 0 01-1.22-1.27c-.3-.56-.45-1.23-.45-2.02s.15-1.47.45-2.02c.3-.56.7-.98 1.22-1.27a3.46 3.46 0 011.74-.44c.64 0 1.22.15 1.73.44.51.29.92.72 1.22 1.27s.46 1.22.46 2.02zm-1.56 0c0-.51-.08-.95-.23-1.3s-.37-.62-.64-.8-.6-.27-.97-.27-.7.09-.97.27c-.28.18-.49.45-.64.8-.15.35-.23.79-.23 1.3s.08.95.23 1.3c.15.35.37.62.64.8.28.18.6.27.97.27s.7-.09.97-.27c.28-.18.49-.45.64-.8.15-.36.23-.79.23-1.3zM71.33 90.63v7.27H70l-3.16-4.58h-.05v4.58h-1.54v-7.27h1.35l3.14 4.57h.06v-4.57h1.53zM76.12 97.9v-7.27h4.9v1.27h-3.36v1.73h3.11v1.27h-3.11v1.74h3.38v1.27h-4.92zM82.56 91.9v-1.27h5.97v1.27H86.3v6h-1.52v-6h-2.22zM90.12 97.9v-7.27h1.54v3h3.12v-3h1.53v7.27h-1.53v-3h-3.12v3h-1.54zM98.19 97.9v-7.27h4.9v1.27h-3.36v1.73h3.11v1.27h-3.11v1.74h3.38v1.27h-4.92zM104.91 97.9v-7.27h2.87c.55 0 1.02.1 1.41.29s.69.47.89.83.31.78.31 1.26-.1.9-.31 1.24c-.21.35-.51.61-.9.8s-.87.28-1.43.28h-1.92v-1.24h1.67c.29 0 .54-.04.73-.12.19-.08.34-.2.43-.36.1-.16.14-.36.14-.6s-.05-.45-.14-.61c-.1-.17-.24-.29-.44-.38s-.44-.13-.74-.13h-1.04v6.02h-1.53zm3.93-3.31l1.81 3.31h-1.7l-1.77-3.31h1.66zM112.07 97.9v-7.27h4.9v1.27h-3.36v1.73h3.11v1.27h-3.11v1.74h3.38v1.27h-4.92zM123.29 90.63h1.54v4.72c0 .53-.13 1-.38 1.39-.25.4-.6.71-1.06.93-.45.22-.98.33-1.58.33-.6 0-1.13-.11-1.58-.33-.45-.22-.8-.53-1.05-.93s-.38-.86-.38-1.39v-4.72h1.54v4.59c0 .28.06.52.18.74.12.22.29.38.52.51s.48.18.78.18c.3 0 .56-.06.78-.18.22-.12.39-.29.51-.51.12-.21.18-.46.18-.74v-4.59zM126.69 90.63h1.9l2 4.89h.08l2-4.89h1.9v7.27h-1.49v-4.73h-.06l-1.88 4.7h-1.02l-1.88-4.72h-.06v4.75h-1.49v-7.27z"/></g></g></svg>