<?xml version="1.0" encoding="utf-8"?>
<!-- Generator: Adobe Illustrator 26.0.3, SVG Export Plug-In . SVG Version: 6.00 Build 0)  -->
<svg version="1.1" id="Layer_1" xmlns="http://www.w3.org/2000/svg" xmlns:xlink="http://www.w3.org/1999/xlink" x="0px"
	y="0px" viewBox="0 0 405 405" style="enable-background:new 0 0 405 405;" xml:space="preserve">
	<style type="text/css">
		.st0 {
			clip-path: url(#SVGID_00000074441963761410742640000014171090663222217891_);
		}

		.st1 {
			fill: #2775CA;
		}

		.st2 {
			fill: #FFFFFF;
		}

		.st3 {
			fill: #8247E5;
		}

		.st4 {
			fill: none;
			stroke: #FFFFFF;
			stroke-miterlimit: 10;
		}

		.st5 {
			clip-path: url(#SVGID_00000176760113156399623410000009456810867553286058_);
		}

		.st6 {
			fill-rule: evenodd;
			clip-rule: evenodd;
			fill: #627EEA;
		}

		.st7 {
			fill: #FFFFFF;
			fill-opacity: 0.602;
		}

		.st8 {
			fill: #FFFFFF;
			fill-opacity: 0.2;
		}

		.st9 {
			fill: #E84142;
		}

		.st10 {
			clip-path: url(#SVGID_00000105410347060740444550000011211151929250042809_);
		}

		.st11 {
			clip-path: url(#SVGID_00000050649950687476541230000003781099479740679823_);
		}

		.st12 {
			fill-rule: evenodd;
			clip-rule: evenodd;
			fill: #50AF95;
		}

		.st13 {
			fill-rule: evenodd;
			clip-rule: evenodd;
			fill: #FFFFFF;
		}

		.st14 {
			clip-path: url(#SVGID_00000060019659305821528010000009481884711094761151_);
		}

		.st15 {
			clip-path: url(#SVGID_00000116942008831530531600000003490077483383989403_);
		}

		.st16 {
			font-family: 'RobotoMono-Regular';
		}

		.st17 {
			font-size: 24px;
		}

		.st18 {
			font-size: 10px;
		}

		.st19 {
			clip-path: url(#SVGID_00000025443892829621220280000013123927162540795791_);
		}

		.st20 {
			fill: #8C8C8C;
		}

		.st21 {
			clip-path: url(#SVGID_00000168817767734713365540000004454310984540996736_);
		}

		.st22 {
			clip-path: url(#SVGID_00000114054236657715687990000000305873841887151783_);
		}
	</style>
	<g>
		<defs>
			<path id="SVGID_00000074418840961101728720000006510697231418485664_" d="M375,405H30c-16.57,0-30-13.43-30-30V30
			C0,13.43,13.43,0,30,0h345c16.57,0,30,13.43,30,30v345C405,391.57,391.57,405,375,405z" />
		</defs>
		<clipPath id="SVGID_00000030459153954695895010000004746707538603410062_">
			<use xlink:href="#SVGID_00000074418840961101728720000006510697231418485664_" style="overflow:visible;" />
		</clipPath>
		<g style="clip-path:url(#SVGID_00000030459153954695895010000004746707538603410062_);">

			<image style="overflow:visible;" width="406" height="406"
				xlink:href="https://gateway.pinata.cloud/ipfs/QmZ51HpMS5nRybFLrX69hyHF1SZzmoyohMPGHxLsiWQCCa"
				transform="matrix(1 0 0 1 -0.8785 -0.7759)">
			</image>
			<text transform="matrix(1 0 0 1 73.699 75.2964)" class="st2 st16 st17">0.235 ETH</text>
			<text transform="matrix(0 -1 1 0 70.5311 364.9956)" class="st2 st16 st17">0.02%</text>
			<g>
				<g>
					<path class="st2" d="M268.33,349.96v2.5c0,0.47-0.37,0.83-0.83,0.83H265h-3.33h-2.5c-0.47,0-0.83-0.37-0.83-0.83v-2.5v-2.5
					c0-0.47-0.37-0.83-0.83-0.83h-1.67c-0.47,0-0.83,0.37-0.83,0.83v2.5v3.33v3.33v3.33v2.5c0,0.47,0.37,0.83,0.83,0.83h1.67
					c0.47,0,0.83-0.37,0.83-0.83v-2.5v-2.5c0-0.47,0.37-0.83,0.83-0.83h2.5H265h2.5c0.47,0,0.83,0.37,0.83,0.83v2.5v2.5
					c0,0.47,0.37,0.83,0.83,0.83h1.67c0.47,0,0.83-0.37,0.83-0.83v-2.5v-3.33v-3.33v-3.33v-2.5c0-0.47-0.37-0.83-0.83-0.83h-1.67
					c-0.47,0-0.83,0.37-0.83,0.83V349.96z" />
				</g>
				<g>
					<path class="st2" d="M315,349.96h-2.5c-0.47,0-0.83-0.37-0.83-0.83v-2.5v-2.5c0-0.47-0.37-0.83-0.83-0.83h-1.67
					c-0.47,0-0.83,0.37-0.83,0.83v2.5v3.33v3.33v3.33v3.33v2.5c0,0.47,0.37,0.83,0.83,0.83h1.67c0.47,0,0.83-0.37,0.83-0.83v-2.5
					v-3.33v-2.5c0-0.47,0.37-0.83,0.83-0.83h2.5h2.5c0.47,0,0.83,0.37,0.83,0.83v2.5v3.33v2.5c0,0.47,0.37,0.83,0.83,0.83h1.67
					c0.47,0,0.83-0.37,0.83-0.83v-2.5v-3.33v-3.33v-2.5c0-0.47-0.37-0.83-0.83-0.83h-2.5H315z" />
				</g>
				<g>
					<path class="st2" d="M335,354.13c0,0.47-0.37,0.83-0.83,0.83h-2.5h-2.5c-0.47,0-0.83-0.37-0.83-0.83c0-0.47,0.37-0.83,0.83-0.83
					h2.5h2.5C334.63,353.3,335,353.66,335,354.13z M331.67,349.96h-3.33h-2.5c-0.47,0-0.83,0.37-0.83,0.83v2.5v1.67v1.67v1.67v1.67
					v1.67v0.83c0,0.47,0.37,0.83,0.83,0.83h2.5h3.33H335h2.5c0.47,0,0.83-0.37,0.83-0.83v-1.67c0-0.47-0.37-0.83-0.83-0.83H335
					h-3.33h-2.5c-0.47,0-0.83-0.37-0.83-0.83c0-0.47,0.37-0.83,0.83-0.83h2.5H335h2.5c0.47,0,0.83-0.37,0.83-0.83v-0.83v-1.67v-1.67
					v-2.5c0-0.47-0.37-0.83-0.83-0.83H335H331.67z" />
				</g>
				<g>
					<path class="st2"
						d="M351.67,349.96h-3.33H345h-2.5c-0.47,0-0.83,0.37-0.83,0.83v2.5v3.33v3.33v2.5c0,0.47,0.37,0.83,0.83,0.83
					h1.67c0.47,0,0.83-0.37,0.83-0.83v-2.5v-3.33v-2.5c0-0.47,0.37-0.83,0.83-0.83h2.5h2.5c0.47,0,0.83,0.37,0.83,0.83v2.5v3.33v2.5
					c0,0.47,0.37,0.83,0.83,0.83h1.67c0.47,0,0.83-0.37,0.83-0.83v-2.5v-3.33v-3.33v-2.5c0-0.47-0.37-0.83-0.83-0.83H351.67z" />
				</g>
				<g>
					<path class="st2" d="M285,353.3v3.33v2.5c0,0.47-0.37,0.83-0.83,0.83h-2.5h-2.5c-0.47,0-0.83-0.37-0.83-0.83v-2.5v-3.33v-2.5
					c0-0.47-0.37-0.83-0.83-0.83h-1.67c-0.47,0-0.83,0.37-0.83,0.83v2.5v3.33v3.33v2.5c0,0.47,0.37,0.83,0.83,0.83h2.5h3.33h2.5
					c0.47,0,0.83,0.37,0.83,0.83c0,0.47-0.37,0.83-0.83,0.83h-2.5h-2.5c-0.47,0-0.83,0.37-0.83,0.83v1.67
					c0,0.47,0.37,0.83,0.83,0.83h2.5H285h2.5c0.47,0,0.83-0.37,0.83-0.83v-0.83v-1.67v-1.67v-3.33v-3.33v-3.33v-2.5
					c0-0.47-0.37-0.83-0.83-0.83h-1.67c-0.47,0-0.83,0.37-0.83,0.83V353.3z" />
				</g>
				<g>
					<path class="st2" d="M301.67,356.63v2.5c0,0.47-0.37,0.83-0.83,0.83h-2.5h-2.5c-0.47,0-0.83-0.37-0.83-0.83v-2.5v-2.5
					c0-0.47,0.37-0.83,0.83-0.83h2.5h2.5c0.47,0,0.83,0.37,0.83,0.83V356.63z M298.33,349.96H295h-2.5c-0.47,0-0.83,0.37-0.83,0.83
					v2.5v3.33v3.33v3.33v1.67v1.67v0.83c0,0.47,0.37,0.83,0.83,0.83h1.67c0.47,0,0.83-0.37,0.83-0.83v-0.83v-1.67v-0.83
					c0-0.47,0.37-0.83,0.83-0.83h2.5h3.33h2.5c0.47,0,0.83-0.37,0.83-0.83v-2.5v-3.33v-3.33v-2.5c0-0.47-0.37-0.83-0.83-0.83h-2.5
					H298.33z" />
				</g>
			</g>
			<g>
				<path class="st2" d="M206.79,219.47h-8.63c-2.33,0-4.31,1.9-4.31,4.31v8.63c0,2.42-1.9,4.31-4.31,4.31h-8.63
				c-2.42,0-4.31-1.9-4.31-4.31v-12.94v-17.26v-12.94c0-2.42,1.9-4.31,4.31-4.31h2.5c3.88,0,5.78-4.66,3.02-7.33l-15.36-15.53
				c-1.73-1.73-4.4-1.73-6.13,0l-15.44,15.53c-2.76,2.67-0.78,7.33,3.02,7.33h2.5c2.42,0,4.31,1.9,4.31,4.31v12.94v17.26v17.26
				v12.94c0,2.42,1.9,4.31,4.31,4.31h12.94h17.26h12.94c2.42,0,4.31-1.9,4.31-4.31v-12.94v-12.94
				C211.1,221.37,209.21,219.47,206.79,219.47z" />
				<path class="st2"
					d="M252.52,236.72h-2.59c-2.42,0-4.31-1.9-4.31-4.31v-12.94v-17.26v-17.26v-12.94c0-2.42-1.9-4.31-4.31-4.31
				h-12.94H211.1h-12.94c-2.42,0-4.31,1.9-4.31,4.31v12.94v12.94c0,2.42,1.9,4.31,4.31,4.31h8.63c2.42,0,4.31-1.9,4.31-4.31v-8.63
				c0-2.42,1.9-4.31,4.31-4.31h8.63c2.42,0,4.31,1.9,4.31,4.31v12.94v17.26v12.94c0,2.42-1.9,4.31-4.31,4.31h-2.5
				c-3.88,0-5.78,4.66-3.02,7.33l15.44,15.44c1.73,1.73,4.4,1.73,6.13,0l15.44-15.44C258.21,241.38,256.32,236.72,252.52,236.72z" />
			</g>
			<g>
				<circle class="st6" cx="60.2" cy="66.8" r="8.5" />
				<g>
					<path class="st7" d="M60.46,60.42v4.71l3.98,1.78L60.46,60.42z" />
					<path class="st2" d="M60.46,60.42l-3.98,6.49l3.98-1.78V60.42z" />
					<path class="st7" d="M60.46,69.97v3.2l3.99-5.51L60.46,69.97z" />
					<path class="st2" d="M60.46,73.17v-3.2l-3.98-2.31L60.46,73.17z" />
					<path class="st8" d="M60.46,69.23l3.98-2.31l-3.98-1.78V69.23z" />
					<path class="st7" d="M56.48,66.91l3.98,2.31v-4.09L56.48,66.91z" />
				</g>
			</g>
			<g>
				<path class="st3" d="M127.17,85.53H56.7c-2.76,0-5,2.24-5,5V98c0,2.76,2.24,5,5,5h70.47c2.76,0,5-2.24,5-5v-7.47
				C132.17,87.77,129.93,85.53,127.17,85.53z" />
				<g>
					<path class="st2" d="M63.51,94.27c0,0.79-0.15,1.47-0.45,2.02c-0.3,0.56-0.71,0.98-1.22,1.27C61.32,97.86,60.75,98,60.1,98
					c-0.65,0-1.23-0.15-1.74-0.44s-0.92-0.72-1.22-1.27c-0.3-0.56-0.45-1.23-0.45-2.02c0-0.79,0.15-1.47,0.45-2.02
					c0.3-0.56,0.7-0.98,1.22-1.27s1.09-0.44,1.74-0.44c0.64,0,1.22,0.15,1.73,0.44s0.92,0.72,1.22,1.27
					C63.36,92.8,63.51,93.47,63.51,94.27z M61.95,94.27c0-0.51-0.08-0.95-0.23-1.3s-0.37-0.62-0.64-0.8
					c-0.28-0.18-0.6-0.27-0.97-0.27c-0.37,0-0.7,0.09-0.97,0.27c-0.28,0.18-0.49,0.45-0.64,0.8c-0.15,0.35-0.23,0.79-0.23,1.3
					s0.08,0.95,0.23,1.3c0.15,0.35,0.37,0.62,0.64,0.8c0.28,0.18,0.6,0.27,0.97,0.27c0.37,0,0.7-0.09,0.97-0.27
					c0.28-0.18,0.49-0.45,0.64-0.8C61.87,95.21,61.95,94.78,61.95,94.27z" />
					<path class="st2"
						d="M71.33,90.63v7.27H70l-3.16-4.58h-0.05v4.58h-1.54v-7.27h1.35l3.14,4.57h0.06v-4.57H71.33z" />
					<path class="st2" d="M76.12,97.9v-7.27h2.87c0.55,0,1.02,0.1,1.41,0.31s0.68,0.5,0.89,0.87s0.31,0.8,0.31,1.28
					s-0.1,0.91-0.31,1.28c-0.21,0.37-0.51,0.66-0.9,0.86s-0.87,0.31-1.43,0.31h-1.83v-1.23h1.58c0.3,0,0.54-0.05,0.73-0.15
					c0.19-0.1,0.34-0.25,0.43-0.43c0.1-0.18,0.14-0.4,0.14-0.63c0-0.24-0.05-0.45-0.14-0.63c-0.1-0.18-0.24-0.32-0.43-0.42
					s-0.44-0.15-0.74-0.15h-1.04v6.02H76.12z" />
					<path class="st2" d="M89.88,94.27c0,0.79-0.15,1.47-0.45,2.02c-0.3,0.56-0.71,0.98-1.22,1.27C87.69,97.86,87.11,98,86.47,98
					c-0.65,0-1.23-0.15-1.74-0.44s-0.92-0.72-1.22-1.27c-0.3-0.56-0.45-1.23-0.45-2.02c0-0.79,0.15-1.47,0.45-2.02
					c0.3-0.56,0.7-0.98,1.22-1.27s1.09-0.44,1.74-0.44c0.64,0,1.22,0.15,1.73,0.44s0.92,0.72,1.22,1.27
					C89.73,92.8,89.88,93.47,89.88,94.27z M88.32,94.27c0-0.51-0.08-0.95-0.23-1.3s-0.37-0.62-0.64-0.8
					c-0.28-0.18-0.6-0.27-0.97-0.27c-0.37,0-0.7,0.09-0.97,0.27c-0.28,0.18-0.49,0.45-0.64,0.8c-0.15,0.35-0.23,0.79-0.23,1.3
					s0.08,0.95,0.23,1.3c0.15,0.35,0.37,0.62,0.64,0.8c0.28,0.18,0.6,0.27,0.97,0.27c0.37,0,0.7-0.09,0.97-0.27
					c0.28-0.18,0.49-0.45,0.64-0.8C88.24,95.21,88.32,94.78,88.32,94.27z" />
					<path class="st2" d="M91.61,97.9v-7.27h1.54v6.01h3.12v1.27H91.61z" />
					<path class="st2"
						d="M96.53,90.63h1.72l1.66,3.13h0.07l1.66-3.13h1.72l-2.65,4.7v2.57h-1.53v-2.57L96.53,90.63z" />
					<path class="st2" d="M109.18,92.98c-0.05-0.17-0.12-0.33-0.21-0.46s-0.2-0.25-0.33-0.34c-0.13-0.09-0.28-0.17-0.44-0.21
					c-0.17-0.05-0.35-0.07-0.55-0.07c-0.37,0-0.7,0.09-0.98,0.28c-0.28,0.18-0.5,0.45-0.66,0.8s-0.23,0.78-0.23,1.29
					c0,0.51,0.08,0.94,0.23,1.29c0.15,0.36,0.37,0.63,0.65,0.81c0.28,0.19,0.61,0.28,1,0.28c0.35,0,0.65-0.06,0.89-0.19
					c0.25-0.12,0.44-0.3,0.57-0.53c0.13-0.23,0.2-0.5,0.2-0.81l0.31,0.05h-1.88v-1.16h3.04v0.92c0,0.64-0.14,1.19-0.41,1.65
					c-0.27,0.46-0.64,0.81-1.12,1.06c-0.47,0.25-1.02,0.37-1.63,0.37c-0.68,0-1.28-0.15-1.8-0.45c-0.52-0.3-0.92-0.73-1.21-1.29
					c-0.29-0.56-0.43-1.22-0.43-1.99c0-0.59,0.09-1.12,0.26-1.58c0.17-0.46,0.41-0.86,0.72-1.18c0.31-0.32,0.67-0.57,1.08-0.74
					s0.86-0.25,1.34-0.25c0.41,0,0.8,0.06,1.15,0.18c0.36,0.12,0.67,0.29,0.95,0.51c0.28,0.22,0.5,0.48,0.68,0.78
					c0.17,0.3,0.29,0.63,0.34,0.99H109.18z" />
					<path class="st2" d="M119.25,94.27c0,0.79-0.15,1.47-0.45,2.02c-0.3,0.56-0.71,0.98-1.22,1.27c-0.51,0.29-1.09,0.44-1.73,0.44
					c-0.65,0-1.23-0.15-1.74-0.44s-0.92-0.72-1.22-1.27c-0.3-0.56-0.45-1.23-0.45-2.02c0-0.79,0.15-1.47,0.45-2.02
					c0.3-0.56,0.7-0.98,1.22-1.27s1.09-0.44,1.74-0.44c0.64,0,1.22,0.15,1.73,0.44s0.92,0.72,1.22,1.27
					C119.1,92.8,119.25,93.47,119.25,94.27z M117.69,94.27c0-0.51-0.08-0.95-0.23-1.3s-0.37-0.62-0.64-0.8
					c-0.28-0.18-0.6-0.27-0.97-0.27c-0.37,0-0.7,0.09-0.97,0.27c-0.28,0.18-0.49,0.45-0.64,0.8c-0.15,0.35-0.23,0.79-0.23,1.3
					s0.08,0.95,0.23,1.3c0.15,0.35,0.37,0.62,0.64,0.8c0.28,0.18,0.6,0.27,0.97,0.27c0.37,0,0.7-0.09,0.97-0.27
					c0.28-0.18,0.49-0.45,0.64-0.8C117.61,95.21,117.69,94.78,117.69,94.27z" />
					<path class="st2"
						d="M127.07,90.63v7.27h-1.33l-3.16-4.58h-0.05v4.58h-1.54v-7.27h1.35l3.14,4.57h0.06v-4.57H127.07z" />
				</g>
			</g>
			<line class="st4" x1="61.88" y1="283.54" x2="61.88" y2="113" />
			<text transform="matrix(1 0 0 1 79.928 363.297)" class="st2 st16 st18">ID: 45786</text>
		</g>
	</g>
</svg>