<svg version="1.1" id="prefix__Layer_1" xmlns="http://www.w3.org/2000/svg" xmlns:xlink="http://www.w3.org/1999/xlink" x="0" y="0" viewBox="0 0 405 405" xml:space="preserve"><style>.prefix__st2{fill:#fff}.prefix__st4{font-family:&apos;RobotoMono-Regular&apos;}.prefix__st5{font-size:24px}</style><defs><path id="prefix__SVGID_1_" d="M375 405H30c-16.57 0-30-13.43-30-30V30C0 13.43 13.43 0 30 0h345c16.57 0 30 13.43 30 30v345c0 16.57-13.43 30-30 30z"/></defs><clipPath id="prefix__SVGID_00000128482410428354645040000000569371560736105883_"><use xlink:href="#prefix__SVGID_1_" overflow="visible"/></clipPath><g clip-path="url(#prefix__SVGID_00000128482410428354645040000000569371560736105883_)"><image width="406" height="406" xlink:href="https://gateway.pinata.cloud/ipfs/QmSfMMMPyKDDDsUPAErokN4Xr5oYnc2pkhWjgSuqsZm5js" transform="translate(-.878 -.776)" overflow="visible"/><path d="M60.2 75.3c4.71 0 8.5-3.79 8.5-8.5s-3.79-8.5-8.5-8.5-8.5 3.79-8.5 8.5 3.79 8.5 8.5 8.5z" fill="#2775ca"/><path class="prefix__st2" d="M62.54 68.14c0-1.24-.74-1.66-2.23-1.84-1.06-.14-1.28-.43-1.28-.92s.35-.81 1.06-.81c.64 0 .99.21 1.17.74.04.11.14.18.25.18h.57c.14 0 .25-.11.25-.25v-.04c-.14-.78-.78-1.38-1.59-1.45v-.85c0-.14-.11-.25-.28-.28h-.53c-.14 0-.25.11-.28.28v.81c-1.06.14-1.74.85-1.74 1.74 0 1.17.71 1.63 2.2 1.81.99.18 1.31.39 1.31.96s-.5.96-1.17.96c-.92 0-1.24-.39-1.35-.92-.04-.14-.14-.21-.25-.21h-.6c-.14 0-.25.11-.25.25v.04c.14.89.71 1.52 1.88 1.7v.85c0 .14.11.25.28.28h.53c.14 0 .25-.11.28-.28v-.85c1.06-.2 1.77-.94 1.77-1.9z"/><path class="prefix__st2" d="M58.39 71.86c-2.76-.99-4.18-4.07-3.15-6.8.53-1.49 1.7-2.62 3.15-3.15.14-.07.21-.18.21-.35v-.5c0-.14-.07-.25-.21-.28-.04 0-.11 0-.14.04a6.354 6.354 0 00-4.14 8 6.364 6.364 0 004.14 4.14c.14.07.28 0 .32-.14.04-.04.04-.07.04-.14v-.5c0-.11-.11-.25-.22-.32zm3.76-11.05c-.14-.07-.28 0-.32.14-.04.04-.04.07-.04.14v.5c0 .14.11.28.21.35 2.76.99 4.18 4.07 3.15 6.8A5.225 5.225 0 0162 71.89c-.14.07-.21.18-.21.35v.5c0 .14.07.25.21.28.04 0 .11 0 .14-.04a6.354 6.354 0 004.14-8 6.415 6.415 0 00-4.13-4.17z"/><path d="M127.17 85.53H56.7c-2.76 0-5 2.24-5 5V98c0 2.76 2.24 5 5 5h70.47c2.76 0 5-2.24 5-5v-7.47c0-2.76-2.24-5-5-5z" fill="#8247e5"/><path class="prefix__st2" d="M63.51 94.27c0 .79-.15 1.47-.45 2.02-.3.56-.71.98-1.22 1.27-.52.3-1.09.44-1.74.44-.65 0-1.23-.15-1.74-.44s-.92-.72-1.22-1.27c-.3-.56-.45-1.23-.45-2.02s.15-1.47.45-2.02c.3-.56.7-.98 1.22-1.27s1.09-.44 1.74-.44c.64 0 1.22.15 1.73.44s.92.72 1.22 1.27c.31.55.46 1.22.46 2.02zm-1.56 0c0-.51-.08-.95-.23-1.3s-.37-.62-.64-.8c-.28-.18-.6-.27-.97-.27s-.7.09-.97.27c-.28.18-.49.45-.64.8-.15.35-.23.79-.23 1.3s.08.95.23 1.3c.15.35.37.62.64.8.28.18.6.27.97.27s.7-.09.97-.27c.28-.18.49-.45.64-.8.15-.36.23-.79.23-1.3zM71.33 90.63v7.27H70l-3.16-4.58h-.05v4.58h-1.54v-7.27h1.35l3.14 4.57h.06v-4.57h1.53zM76.12 97.9v-7.27h2.87c.55 0 1.02.1 1.41.31s.68.5.89.87.31.8.31 1.28-.1.91-.31 1.28-.51.66-.9.86-.87.31-1.43.31h-1.83v-1.23h1.58c.3 0 .54-.05.73-.15.19-.1.34-.25.43-.43.1-.18.14-.4.14-.63 0-.24-.05-.45-.14-.63-.1-.18-.24-.32-.43-.42s-.44-.15-.74-.15h-1.04v6.02h-1.54zM89.88 94.27c0 .79-.15 1.47-.45 2.02-.3.56-.71.98-1.22 1.27-.52.3-1.1.44-1.74.44-.65 0-1.23-.15-1.74-.44s-.92-.72-1.22-1.27c-.3-.56-.45-1.23-.45-2.02s.15-1.47.45-2.02c.3-.56.7-.98 1.22-1.27s1.09-.44 1.74-.44c.64 0 1.22.15 1.73.44s.92.72 1.22 1.27c.31.55.46 1.22.46 2.02zm-1.56 0c0-.51-.08-.95-.23-1.3s-.37-.62-.64-.8c-.28-.18-.6-.27-.97-.27s-.7.09-.97.27c-.28.18-.49.45-.64.8-.15.35-.23.79-.23 1.3s.08.95.23 1.3c.15.35.37.62.64.8.28.18.6.27.97.27s.7-.09.97-.27c.28-.18.49-.45.64-.8.15-.36.23-.79.23-1.3zM91.61 97.9v-7.27h1.54v6.01h3.12v1.27h-4.66zM96.53 90.63h1.72l1.66 3.13h.07l1.66-3.13h1.72l-2.65 4.7v2.57h-1.53v-2.57l-2.65-4.7zM109.18 92.98c-.05-.17-.12-.33-.21-.46s-.2-.25-.33-.34c-.13-.09-.28-.17-.44-.21-.17-.05-.35-.07-.55-.07-.37 0-.7.09-.98.28-.28.18-.5.45-.66.8s-.23.78-.23 1.29.08.94.23 1.29c.15.36.37.63.65.81.28.19.61.28 1 .28.35 0 .65-.06.89-.19.25-.12.44-.3.57-.53.13-.23.2-.5.2-.81l.31.05h-1.88v-1.16h3.04v.92c0 .64-.14 1.19-.41 1.65-.27.46-.64.81-1.12 1.06-.47.25-1.02.37-1.63.37-.68 0-1.28-.15-1.8-.45-.52-.3-.92-.73-1.21-1.29-.29-.56-.43-1.22-.43-1.99 0-.59.09-1.12.26-1.58.17-.46.41-.86.72-1.18.31-.32.67-.57 1.08-.74s.86-.25 1.34-.25c.41 0 .8.06 1.15.18.36.12.67.29.95.51.28.22.5.48.68.78.17.3.29.63.34.99h-1.53zM119.25 94.27c0 .79-.15 1.47-.45 2.02-.3.56-.71.98-1.22 1.27-.51.29-1.09.44-1.73.44-.65 0-1.23-.15-1.74-.44s-.92-.72-1.22-1.27c-.3-.56-.45-1.23-.45-2.02s.15-1.47.45-2.02c.3-.56.7-.98 1.22-1.27s1.09-.44 1.74-.44c.64 0 1.22.15 1.73.44s.92.72 1.22 1.27c.3.55.45 1.22.45 2.02zm-1.56 0c0-.51-.08-.95-.23-1.3s-.37-.62-.64-.8c-.28-.18-.6-.27-.97-.27s-.7.09-.97.27c-.28.18-.49.45-.64.8-.15.35-.23.79-.23 1.3s.08.95.23 1.3c.15.35.37.62.64.8.28.18.6.27.97.27s.7-.09.97-.27c.28-.18.49-.45.64-.8.15-.36.23-.79.23-1.3zM127.07 90.63v7.27h-1.33l-3.16-4.58h-.05v4.58h-1.54v-7.27h1.35l3.14 4.57h.06v-4.57h1.53z"/><text transform="translate(73.699 75.296)" class="prefix__st2 prefix__st4 prefix__st5">886 USDC</text><text transform="rotate(-90 217.763 147.232)" class="prefix__st2 prefix__st4 prefix__st5">0.02%</text><g><path class="prefix__st2" d="M268.33 349.96v2.5c0 .47-.37.83-.83.83h-8.33c-.47 0-.83-.37-.83-.83v-5c0-.47-.37-.83-.83-.83h-1.67c-.47 0-.83.37-.83.83v14.99c0 .47.37.83.83.83h1.67c.47 0 .83-.37.83-.83v-5c0-.47.37-.83.83-.83h8.33c.47 0 .83.37.83.83v5c0 .47.37.83.83.83h1.67c.47 0 .83-.37.83-.83v-14.99c0-.47-.37-.83-.83-.83h-1.67c-.47 0-.83.37-.83.83v2.5zM315 349.96h-2.5c-.47 0-.83-.37-.83-.83v-5c0-.47-.37-.83-.83-.83h-1.67c-.47 0-.83.37-.83.83v18.32c0 .47.37.83.83.83h1.67c.47 0 .83-.37.83-.83v-8.33c0-.47.37-.83.83-.83h5c.47 0 .83.37.83.83v8.33c0 .47.37.83.83.83h1.67c.47 0 .83-.37.83-.83v-11.66c0-.47-.37-.83-.83-.83H315zM335 354.13c0 .47-.37.83-.83.83h-5c-.47 0-.83-.37-.83-.83 0-.47.37-.83.83-.83h5c.46 0 .83.36.83.83zm-3.33-4.17h-5.83c-.47 0-.83.37-.83.83v11.68c0 .47.37.83.83.83h11.66c.47 0 .83-.37.83-.83v-1.67c0-.47-.37-.83-.83-.83h-8.33c-.47 0-.83-.37-.83-.83 0-.47.37-.83.83-.83h8.33c.47 0 .83-.37.83-.83v-6.67c0-.47-.37-.83-.83-.83h-5.83zM351.67 349.96h-9.17c-.47 0-.83.37-.83.83v11.66c0 .47.37.83.83.83h1.67c.47 0 .83-.37.83-.83v-8.33c0-.47.37-.83.83-.83h5c.47 0 .83.37.83.83v8.33c0 .47.37.83.83.83h1.67c.47 0 .83-.37.83-.83v-11.66c0-.47-.37-.83-.83-.83h-2.49zM285 353.3v5.83c0 .47-.37.83-.83.83h-5c-.47 0-.83-.37-.83-.83v-8.33c0-.47-.37-.83-.83-.83h-1.67c-.47 0-.83.37-.83.83v11.66c0 .47.37.83.83.83h8.33c.47 0 .83.37.83.83 0 .47-.37.83-.83.83h-5c-.47 0-.83.37-.83.83v1.67c0 .47.37.83.83.83h8.33c.47 0 .83-.37.83-.83v-16.66c0-.47-.37-.83-.83-.83h-1.67c-.47 0-.83.37-.83.83v2.51zM301.67 356.63v2.5c0 .47-.37.83-.83.83h-5c-.47 0-.83-.37-.83-.83v-5c0-.47.37-.83.83-.83h5c.47 0 .83.37.83.83v2.5zm-3.34-6.67h-5.83c-.47 0-.83.37-.83.83v16.66c0 .47.37.83.83.83h1.67c.47 0 .83-.37.83-.83v-3.33c0-.47.37-.83.83-.83h8.33c.47 0 .83-.37.83-.83V350.8c0-.47-.37-.83-.83-.83h-5.83z"/></g><g><path class="prefix__st2" d="M206.79 219.47h-8.63c-2.33 0-4.31 1.9-4.31 4.31v8.63c0 2.42-1.9 4.31-4.31 4.31h-8.63c-2.42 0-4.31-1.9-4.31-4.31v-43.14c0-2.42 1.9-4.31 4.31-4.31h2.5c3.88 0 5.78-4.66 3.02-7.33l-15.36-15.53c-1.73-1.73-4.4-1.73-6.13 0l-15.44 15.53c-2.76 2.67-.78 7.33 3.02 7.33h2.5c2.42 0 4.31 1.9 4.31 4.31V249.67c0 2.42 1.9 4.31 4.31 4.31h43.14c2.42 0 4.31-1.9 4.31-4.31v-25.88c.01-2.42-1.88-4.32-4.3-4.32z"/><path class="prefix__st2" d="M252.52 236.72h-2.59c-2.42 0-4.31-1.9-4.31-4.31V172.01c0-2.42-1.9-4.31-4.31-4.31h-43.15c-2.42 0-4.31 1.9-4.31 4.31v25.88c0 2.42 1.9 4.31 4.31 4.31h8.63c2.42 0 4.31-1.9 4.31-4.31v-8.63c0-2.42 1.9-4.31 4.31-4.31h8.63c2.42 0 4.31 1.9 4.31 4.31v43.14c0 2.42-1.9 4.31-4.31 4.31h-2.5c-3.88 0-5.78 4.66-3.02 7.33l15.44 15.44c1.73 1.73 4.4 1.73 6.13 0l15.44-15.44c2.68-2.66.79-7.32-3.01-7.32z"/></g><path fill="none" stroke="#fff" stroke-miterlimit="10" d="M61.88 283.54V113"/><text transform="translate(79.928 363.297)" class="prefix__st2 prefix__st4" font-size="10">ID: 5481</text></g></svg>